SplineFontDB: 3.2
FontName: D-DIN-PRO-Condensed-Bold
FullName: D-DIN-PRO-Condensed-Bold
FamilyName: D-DIN-PRO-Condensed
Weight: Bold
Copyright: Copyright (c) CyberFei. All rights reserved
Version: 1.1.0
ItalicAngle: 0
UnderlinePosition: -150
UnderlineWidth: 50
Ascent: 831
Descent: 169
InvalidEm: 0
sfntRevision: 0x0001199a
LayerCount: 2
Layer: 0 0 "Back" 1
Layer: 1 0 "Fore" 0
XUID: [1021 868 -1451673819 16614]
StyleMap: 0x0020
FSType: 4
OS2Version: 3
OS2_WeightWidthSlopeOnly: 0
OS2_UseTypoMetrics: 0
CreationTime: 1462909513
ModificationTime: 1509658801
PfmFamily: 17
TTFWeight: 700
TTFWidth: 3
LineGap: 86
VLineGap: 0
Panose: 2 11 8 6 3 2 2 3 2 4
OS2TypoAscent: 831
OS2TypoAOffset: 0
OS2TypoDescent: -169
OS2TypoDOffset: 0
OS2TypoLinegap: 86
OS2WinAscent: 902
OS2WinAOffset: 0
OS2WinDescent: 184
OS2WinDOffset: 0
HheadAscent: 831
HheadAOffset: 0
HheadDescent: -169
HheadDOffset: 0
OS2SubXSize: 650
OS2SubYSize: 600
OS2SubXOff: 0
OS2SubYOff: 75
OS2SupXSize: 650
OS2SupYSize: 600
OS2SupXOff: 0
OS2SupYOff: 350
OS2StrikeYSize: 50
OS2StrikeYPos: 316
OS2CapHeight: 690
OS2XHeight: 528
OS2Vendor: 'MONO'
OS2CodePages: 20000001.00000000
OS2UnicodeRanges: 8000006f.4000000a.00000000.00000000
Lookup: 1 0 0 "'rtla' Right to Left Alternates lookup 0" { "'rtla' Right to Left Alternates lookup 0 subtable"  } ['rtla' ('DFLT' <'dflt' > ) ]
Lookup: 1 0 0 "'sups' Superscript lookup 1" { "'sups' Superscript lookup 1 subtable" ("superior") } ['sups' ('DFLT' <'dflt' > ) ]
Lookup: 4 0 0 "'frac' Diagonal Fractions lookup 2" { "'frac' Diagonal Fractions lookup 2 subtable"  } ['frac' ('DFLT' <'dflt' > ) ]
Lookup: 4 0 0 "'dlig' Discretionary Ligatures in Latin lookup 3" { "'dlig' Discretionary Ligatures in Latin lookup 3 subtable"  } ['dlig' ('latn' <'dflt' > ) ]
Lookup: 4 0 1 "'liga' Standard Ligatures in Latin lookup 4" { "'liga' Standard Ligatures in Latin lookup 4 subtable"  } ['liga' ('latn' <'dflt' > ) ]

StartChar: .notdef
Encoding: 65536 -1 0
Width: 600
GlyphClass: 1
Flags: W
LayerCount: 2
Fore
SplineSet
101 690 m 1
 498 690 l 1
 498 0 l 1
 101 0 l 1
 101 690 l 1
464 34 m 1
 464 656 l 1
 135 656 l 1
 135 34 l 1
 464 34 l 1
EndSplineSet
EndChar

StartChar: exclam
Encoding: 33 33 3
Width: 208
GlyphClass: 2
Flags: W
LayerCount: 2
Fore
SplineSet
41 690 m 1
 167 690 l 1
 143 220 l 1
 65 220 l 1
 41 690 l 1
49 127 m 1
 158 127 l 1
 158 0 l 1
 49 0 l 1
 49 127 l 1
EndSplineSet
EndChar

StartChar: quotedbl
Encoding: 34 34 4
Width: 351
GlyphClass: 2
Flags: W
LayerCount: 2
Fore
SplineSet
29 690 m 1
 142 690 l 1
 142 398 l 1
 29 398 l 1
 29 690 l 1
209 690 m 1
 322 690 l 1
 322 398 l 1
 209 398 l 1
 209 690 l 1
EndSplineSet
EndChar

StartChar: numbersign
Encoding: 35 35 5
Width: 462
GlyphClass: 2
Flags: W
LayerCount: 2
Fore
SplineSet
369 410 m 1
 357 295 l 1
 429 295 l 1
 429 213 l 1
 348 213 l 1
 326 0 l 1
 235 0 l 1
 257 213 l 1
 168 213 l 1
 146 0 l 1
 54 0 l 1
 76 213 l 1
 14 213 l 1
 14 295 l 1
 85 295 l 1
 97 410 l 1
 34 410 l 1
 34 492 l 1
 105 492 l 1
 126 690 l 1
 217 690 l 1
 197 492 l 1
 286 492 l 1
 306 690 l 1
 398 690 l 1
 377 492 l 1
 448 492 l 1
 448 410 l 1
 369 410 l 1
277 410 m 1
 188 410 l 1
 176 295 l 1
 265 295 l 1
 277 410 l 1
EndSplineSet
EndChar

StartChar: dollar
Encoding: 36 36 6
Width: 428
GlyphClass: 2
Flags: W
LayerCount: 2
Fore
SplineSet
344 93.5 m 0
 322.666992188 63.1669921875 292.3359375 43.3330078125 253.002929688 34 c 1
 253.002929688 -45 l 1
 168.002929688 -45 l 1
 168.002929688 28 l 1
 120.002929688 32.6669921875 83.5029296875 51 58.5029296875 83 c 0
 33.5029296875 115 20.3359375 158.333007812 19.0029296875 213 c 1
 134.002929688 213 l 1
 135.3359375 185.666992188 141.168945312 165.166992188 151.501953125 151.5 c 0
 161.834960938 137.833007812 177.001953125 131 197.001953125 131 c 0
 217.668945312 131 232.8359375 137.166992188 242.501953125 149.5 c 0
 252.168945312 161.833007812 257.001953125 181.333007812 257.001953125 208 c 0
 257.001953125 228.666992188 251.668945312 245.333984375 241.001953125 258 c 0
 230.334960938 270.666992188 212.66796875 282.666992188 188.000976562 294 c 2
 139.000976562 316 l 2
 98.333984375 334 69.1669921875 356.166992188 51.5 382.5 c 0
 33.8330078125 408.833984375 25 444.666992188 25 490 c 0
 25 538 37.8330078125 577.166992188 63.5 607.5 c 0
 89.1669921875 637.833007812 124 656.333007812 168 663 c 1
 168 755 l 1
 253 755 l 1
 253 659 l 1
 289 649 317 629 337 599 c 0
 357 569 367.666992188 530 369 482 c 1
 257 482 l 1
 256.33203125 508 251.83203125 527.5 243.5 540.5 c 0
 235.166992188 553.5 221 560 201 560 c 0
 163 560 144 538.666992188 144 496 c 0
 144 476 148.666992188 460 158 448 c 0
 167.333007812 436 182 426 202 418 c 2
 249 399 l 2
 294.333007812 380.333007812 326.833007812 356.5 346.5 327.5 c 0
 366.166992188 298.5 376 259.666992188 376 211 c 0
 376 163 365.333007812 123.833007812 344 93.5 c 0
89.001953125 689.999023438 m 1024
EndSplineSet
EndChar

StartChar: percent
Encoding: 37 37 7
Width: 762
GlyphClass: 2
Flags: W
LayerCount: 2
Fore
SplineSet
470 698 m 1
 552 698 l 1
 292 0 l 1
 210 0 l 1
 470 698 l 1
31 378 m 2
 31 584 l 2
 31 658.666992188 68 696 142 696 c 0
 216 696 253 658.666992188 253 584 c 2
 253 378 l 2
 253 303.333007812 216 266 142 266 c 0
 68 266 31 303.333007812 31 378 c 2
165.5 350.5 m 0
 169.833007812 357.5 172.001953125 370.666992188 172.001953125 390 c 2
 172.001953125 572 l 2
 172.001953125 592 169.834960938 605.333007812 165.501953125 612 c 0
 161.16796875 618.666992188 153.334960938 622 142.001953125 622 c 0
 130.66796875 622 123.000976562 618.666992188 119.000976562 612 c 0
 115.000976562 605.333007812 113.000976562 592 113.000976562 572 c 2
 113.000976562 390 l 2
 113.000976562 370.666992188 115.000976562 357.5 119.000976562 350.5 c 0
 123.000976562 343.5 130.66796875 340 142.000976562 340 c 0
 153.333984375 340 161.166992188 343.5 165.5 350.5 c 0
509.001953125 105 m 2
 509.001953125 311 l 2
 509.001953125 385.666992188 546.001953125 423 620.001953125 423 c 0
 694.001953125 423 731.001953125 385.666992188 731.001953125 311 c 2
 731.001953125 105 l 2
 731.001953125 30.3330078125 694.001953125 -7 620.001953125 -7 c 0
 546.001953125 -7 509.001953125 30.3330078125 509.001953125 105 c 2
643.501953125 77.5 m 0
 647.834960938 84.5 650.001953125 97.6669921875 650.001953125 117 c 2
 650.001953125 299 l 2
 650.001953125 319 647.834960938 332.333007812 643.501953125 339 c 0
 639.1640625 345.666992188 631.331054688 349 620.002929688 349 c 0
 608.669921875 349 601.002929688 345.666992188 597.002929688 339 c 0
 593.002929688 332.333007812 591.002929688 319 591.002929688 299 c 2
 591.002929688 117 l 2
 591.002929688 97.6669921875 593.002929688 84.5 597.002929688 77.5 c 0
 601.002929688 70.5 608.669921875 67 620.002929688 67 c 0
 631.3359375 67 639.168945312 70.5 643.501953125 77.5 c 0
EndSplineSet
EndChar

StartChar: ampersand
Encoding: 38 38 8
Width: 514
GlyphClass: 2
Flags: W
LayerCount: 2
Fore
SplineSet
439.5 107 m 0
 445.834960938 103 453.668945312 100.997070312 463.000976562 100.997070312 c 2
 475.000976562 100.997070312 l 1
 475.000976562 -0.0029296875 l 1
 427.000976562 -0.0029296875 l 2
 405.000976562 -0.0029296875 388.16796875 3.9970703125 376.500976562 11.9970703125 c 0
 364.833984375 19.9970703125 352.000976562 34.9970703125 338.000976562 56.9970703125 c 1
 319.333984375 32.9970703125 298.333984375 15.830078125 275.000976562 5.4970703125 c 0
 251.66796875 -4.8359375 224.66796875 -10.0029296875 194.000976562 -10.0029296875 c 0
 147.333984375 -10.0029296875 109.666992188 4.6640625 81 33.9970703125 c 0
 52.3330078125 63.330078125 38 102.330078125 38 150.997070312 c 0
 38 185.6640625 46.5 219.831054688 63.5 253.498046875 c 0
 80.5 287.165039062 109 325.33203125 149 367.999023438 c 1
 123 410.666015625 104.5 444.833007812 93.5 470.5 c 0
 82.5 496.166992188 77 522 77 548 c 0
 77 593.333007812 91.3330078125 630 120 658 c 0
 148.666992188 686 186 700 232 700 c 0
 277.333007812 700 314.333007812 686 343 658 c 0
 371.666992188 630 386 593.333007812 386 548 c 0
 386 518.666015625 378.333007812 488.666015625 363 458 c 0
 347.666992188 427.333007812 322 392.666015625 286 354 c 1
 347 252 l 1
 393 326 l 1
 476 269 l 1
 404 157 l 1
 422 127 l 2
 427.336914062 117.666992188 433.169921875 111 439.5 107 c 0
199.500976562 594.497070312 m 0
 191.833984375 584.830078125 188.000976562 571.330078125 188.000976562 553.997070312 c 0
 188.000976562 541.997070312 190.833984375 528.1640625 196.500976562 512.497070312 c 0
 202.16796875 496.830078125 212.66796875 475.997070312 228.000976562 449.997070312 c 1
 246.66796875 471.330078125 259.16796875 489.497070312 265.500976562 504.497070312 c 0
 271.833984375 519.497070312 275.000976562 535.997070312 275.000976562 553.997070312 c 0
 275.000976562 571.997070312 271.16796875 585.6640625 263.500976562 594.997070312 c 0
 255.833984375 604.330078125 245.333984375 608.997070312 232.000976562 608.997070312 c 0
 218.000976562 608.997070312 207.16796875 604.1640625 199.500976562 594.497070312 c 0
245.000976562 107.997070312 m 0
 256.333984375 115.330078125 269.001953125 128.663085938 283.001953125 147.99609375 c 1
 206.001953125 273.99609375 l 1
 186.668945312 251.99609375 173.168945312 232.49609375 165.501953125 215.49609375 c 0
 157.834960938 198.49609375 154.001953125 180.99609375 154.001953125 162.99609375 c 0
 154.001953125 141.663085938 158.834960938 125.330078125 168.501953125 113.997070312 c 0
 178.168945312 102.6640625 191.3359375 96.9970703125 208.001953125 96.9970703125 c 0
 221.334960938 96.9970703125 233.66796875 100.6640625 245.000976562 107.997070312 c 0
EndSplineSet
EndChar

StartChar: quotesingle
Encoding: 39 39 9
Width: 171
GlyphClass: 2
Flags: W
LayerCount: 2
Fore
SplineSet
29 690 m 1
 142 690 l 1
 142 398 l 1
 29 398 l 1
 29 690 l 1
EndSplineSet
EndChar

StartChar: parenleft
Encoding: 40 40 10
Width: 272
GlyphClass: 2
Flags: W
LayerCount: 2
Fore
SplineSet
62.5 114 m 0
 46.1669921875 184 38 255.331054688 38 327.998046875 c 0
 38 400.665039062 46.1669921875 471.998046875 62.5 541.998046875 c 0
 78.8330078125 611.998046875 103 677.998046875 135 739.998046875 c 1
 234 739.998046875 l 1
 207.333007812 675.331054688 187 607.831054688 173 537.498046875 c 0
 159 467.165039062 152 397.33203125 152 327.999023438 c 0
 152 258.666015625 159 188.833007812 173 118.5 c 0
 187 48.1669921875 207.333007812 -19.3330078125 234 -84 c 1
 135 -84 l 1
 103 -22 78.8330078125 44 62.5 114 c 0
EndSplineSet
Substitution2: "'rtla' Right to Left Alternates lookup 0 subtable" parenright
EndChar

StartChar: parenright
Encoding: 41 41 11
Width: 272
GlyphClass: 2
Flags: W
LayerCount: 2
Fore
SplineSet
99 118.5 m 0
 113 188.833007812 120 258.666992188 120 328 c 0
 120 397.333984375 113 467.166992188 99 537.5 c 0
 85 607.833007812 64.6669921875 675.333007812 38 740 c 1
 137 740 l 1
 169 678 193.166992188 612 209.5 542 c 0
 225.833007812 472 234 400.666992188 234 328 c 0
 234 255.333007812 225.833007812 184 209.5 114 c 0
 193.166992188 44 169 -22 137 -84 c 1
 38 -84 l 1
 64.6669921875 -19.3330078125 85 48.1669921875 99 118.5 c 0
EndSplineSet
Substitution2: "'rtla' Right to Left Alternates lookup 0 subtable" parenleft
EndChar

StartChar: asterisk
Encoding: 42 42 12
Width: 336
GlyphClass: 2
Flags: W
LayerCount: 2
Fore
SplineSet
135 491 m 1
 68 452 l 1
 39 503 l 1
 108 543 l 1
 38 584 l 1
 68 637 l 1
 135 598 l 1
 135 690 l 1
 201 690 l 1
 201 596 l 1
 268 635 l 1
 297 584 l 1
 227 544 l 1
 298 502 l 1
 268 450 l 1
 201 489 l 1
 201 392 l 1
 135 392 l 1
 135 491 l 1
EndSplineSet
EndChar

StartChar: plus
Encoding: 43 43 13
Width: 419
GlyphClass: 2
Flags: W
LayerCount: 2
Fore
SplineSet
154 220 m 1
 32 220 l 1
 32 331 l 1
 154 331 l 1
 154 453 l 1
 265 453 l 1
 265 331 l 1
 387 331 l 1
 387 220 l 1
 265 220 l 1
 265 98 l 1
 154 98 l 1
 154 220 l 1
EndSplineSet
EndChar

StartChar: comma
Encoding: 44 44 14
Width: 171
GlyphClass: 2
Flags: W
LayerCount: 2
Fore
SplineSet
29 133 m 1
 142 133 l 1
 142 -69 l 1
 29 -160 l 1
 29 133 l 1
EndSplineSet
EndChar

StartChar: hyphen
Encoding: 45 45 15
Width: 351
GlyphClass: 2
Flags: W
LayerCount: 2
Fore
SplineSet
38 401 m 1
 313 401 l 1
 313 291 l 1
 38 291 l 1
 38 401 l 1
EndSplineSet
EndChar

StartChar: period
Encoding: 46 46 16
Width: 175
GlyphClass: 2
Flags: W
LayerCount: 2
Fore
SplineSet
29 132 m 1
 146 132 l 1
 146 0 l 1
 29 0 l 1
 29 132 l 1
EndSplineSet
EndChar

StartChar: slash
Encoding: 47 47 17
Width: 298
GlyphClass: 2
Flags: W
LayerCount: 2
Fore
SplineSet
168 698 m 1
 260 698 l 1
 129 -10 l 1
 38 -10 l 1
 168 698 l 1
EndSplineSet
EndChar

StartChar: zero
Encoding: 48 48 18
Width: 409
GlyphClass: 2
Flags: W
LayerCount: 2
Fore
SplineSet
79 38.5 m 0
 51.6669921875 70.8330078125 38 120.000976562 38 186.000976562 c 2
 38 506.000976562 l 2
 38 571.333984375 51.6669921875 620.166992188 79 652.5 c 0
 106.333007812 684.833007812 148 701 204 701 c 0
 260.666992188 701 302.666992188 684.833007812 330 652.5 c 0
 357.333007812 620.165039062 371 571.33203125 371 506 c 2
 371 186 l 2
 371 120 357.333007812 70.8330078125 330 38.5 c 0
 302.666992188 6.1669921875 260.666992188 -10 204 -10 c 0
 148 -10 106.333007812 6.1669921875 79 38.5 c 0
239 120.000976562 m 0
 245.666992188 132.66796875 249.000976562 155.000976562 249.000976562 187.000976562 c 2
 249.000976562 505.000976562 l 2
 249.000976562 536.333984375 245.66796875 558.333984375 239.000976562 571.000976562 c 0
 232.333984375 583.66796875 220.666992188 590.000976562 204 590.000976562 c 0
 187.333007812 590.000976562 176 583.833984375 170 571.500976562 c 0
 164 559.16796875 161 537.000976562 161 505.000976562 c 2
 161 187.000976562 l 2
 161 155.000976562 164.166992188 132.66796875 170.5 120.000976562 c 0
 176.833007812 107.333984375 188 101.000976562 204 101.000976562 c 0
 220.666992188 101.000976562 232.333984375 107.333984375 239 120.000976562 c 0
EndSplineSet
EndChar

StartChar: one
Encoding: 49 49 19
Width: 293
GlyphClass: 2
Flags: W
LayerCount: 2
Fore
SplineSet
122 547 m 1
 27 470 l 1
 27 613 l 1
 122 690 l 1
 247 690 l 1
 247 0 l 1
 122 0 l 1
 122 547 l 1
EndSplineSet
Substitution2: "'sups' Superscript lookup 1 subtable" uni00B9
EndChar

StartChar: two
Encoding: 50 50 20
Width: 397
GlyphClass: 2
Flags: W
LayerCount: 2
Fore
SplineSet
34 107 m 1
 209 390.000976562 l 2
 221 410.000976562 229.5 427.16796875 234.5 441.500976562 c 0
 239.5 455.833984375 242 474.000976562 242 496.000976562 c 2
 242 535.000976562 l 2
 242 571.66796875 227.666992188 590.000976562 199 590.000976562 c 0
 171 590.000976562 157 570.000976562 157 530.000976562 c 2
 157 484.000976562 l 1
 38 484.000976562 l 1
 38 545.000976562 l 2
 38 592.333984375 53 630.000976562 83 658.000976562 c 0
 113 686.000976562 152.666992188 700.000976562 202 700.000976562 c 0
 251.333007812 700.000976562 290.5 685.66796875 319.5 657.000976562 c 0
 348.5 628.333984375 363 589.666992188 363 541 c 2
 363 492 l 2
 363 462 359 435.833007812 351 413.5 c 0
 343 391.166992188 330.333007812 366 313 338 c 2
 171 111 l 1
 363 111 l 1
 363 0 l 1
 34 0 l 1
 34 107 l 1
EndSplineSet
Substitution2: "'sups' Superscript lookup 1 subtable" uni00B2
EndChar

StartChar: three
Encoding: 51 51 21
Width: 399
GlyphClass: 2
Flags: W
LayerCount: 2
Fore
SplineSet
75 32.5 m 0
 47 60.8330078125 33.0009765625 99.66796875 33.0009765625 149.000976562 c 2
 33.0009765625 200.000976562 l 1
 152.000976562 200.000976562 l 1
 152.000976562 155.000976562 l 2
 152.000976562 119.000976562 166.333984375 101.000976562 195.000976562 101.000976562 c 0
 211.66796875 101.000976562 223.000976562 106.000976562 229.000976562 116.000976562 c 0
 235.000976562 126.000976562 238.000976562 141.333984375 238.000976562 162.000976562 c 2
 238.000976562 233.000976562 l 2
 238.000976562 257.66796875 234.66796875 275.000976562 228.000976562 285.000976562 c 0
 221.333984375 295.000976562 208.000976562 300.000976562 188.000976562 300.000976562 c 2
 162.000976562 300.000976562 l 1
 162.000976562 410.000976562 l 1
 190.000976562 410.000976562 l 2
 209.333984375 410.000976562 222.166992188 414.833984375 228.5 424.500976562 c 0
 234.833007812 434.16796875 238 449.66796875 238 471.000976562 c 2
 238 528.000976562 l 2
 238 548.66796875 234.833007812 564.000976562 228.5 574.000976562 c 0
 222.166992188 584.000976562 211 589.000976562 195 589.000976562 c 0
 166.333007812 589.000976562 152 571.000976562 152 535.000976562 c 2
 152 493.000976562 l 1
 33 493.000976562 l 1
 33 542.000976562 l 2
 33 590.66796875 47.5 629.16796875 76.5 657.500976562 c 0
 105.5 685.833984375 145.666992188 700.000976562 197 700.000976562 c 0
 249 700.000976562 289.333007812 685.66796875 318 657.000976562 c 0
 346.666992188 628.333984375 361 587.666992188 361 535 c 2
 361 488 l 2
 361 454.666992188 356 428 346 408 c 0
 336 388 318 372 292 360 c 1
 320 348 338.5 332 347.5 312 c 0
 356.5 292 361 263.666992188 361 227 c 2
 361 156 l 2
 361 104 346.5 63.3330078125 317.5 34 c 0
 288.5 4.6669921875 248 -10 196 -10 c 0
 143.333007812 -10 103 4.1669921875 75 32.5 c 0
EndSplineSet
Substitution2: "'sups' Superscript lookup 1 subtable" uni00B3
EndChar

StartChar: four
Encoding: 52 52 22
Width: 427
GlyphClass: 2
Flags: W
LayerCount: 2
Fore
SplineSet
400 115 m 1
 357 115 l 1
 357 0 l 1
 234 0 l 1
 234 115 l 1
 27 115 l 1
 27 226 l 1
 164 690 l 1
 287 690 l 1
 150 226 l 1
 234 226 l 1
 234 378 l 1
 357 378 l 1
 357 226 l 1
 400 226 l 1
 400 115 l 1
EndSplineSet
EndChar

StartChar: five
Encoding: 53 53 23
Width: 406
GlyphClass: 2
Flags: W
LayerCount: 2
Fore
SplineSet
80.5 33 m 0
 52.1669921875 61.6669921875 37.9990234375 103.333984375 37.9990234375 158.000976562 c 2
 37.9990234375 190.000976562 l 1
 158.999023438 190.000976562 l 1
 158.999023438 163.000976562 l 2
 158.999023438 141.000976562 162.33203125 125.000976562 168.999023438 115.000976562 c 0
 175.666015625 105.000976562 186.666015625 100.000976562 201.999023438 100.000976562 c 0
 217.33203125 100.000976562 228.33203125 105.000976562 234.999023438 115.000976562 c 0
 241.666015625 125.000976562 244.999023438 141.000976562 244.999023438 163.000976562 c 2
 244.999023438 284.000976562 l 2
 244.999023438 323.333984375 230.666015625 343.000976562 201.999023438 343.000976562 c 0
 191.33203125 343.000976562 182.665039062 340.16796875 175.998046875 334.500976562 c 0
 169.331054688 328.833984375 163.331054688 320.000976562 157.998046875 308.000976562 c 1
 45.998046875 308.000976562 l 1
 45.998046875 690.000976562 l 1
 367.998046875 690.000976562 l 1
 367.998046875 578.000976562 l 1
 157.998046875 578.000976562 l 1
 157.998046875 424.000976562 l 1
 177.331054688 441.333984375 203.331054688 450.000976562 235.998046875 450.000976562 c 0
 323.998046875 450.000976562 367.998046875 396.333984375 367.998046875 289.000976562 c 2
 367.998046875 161.000976562 l 2
 367.998046875 104.333984375 353.831054688 61.6669921875 325.498046875 33 c 0
 297.165039062 4.3330078125 256.33203125 -10 202.999023438 -10 c 0
 149.666015625 -10 108.833007812 4.3330078125 80.5 33 c 0
EndSplineSet
EndChar

StartChar: six
Encoding: 54 54 24
Width: 400
GlyphClass: 2
Flags: W
LayerCount: 2
Fore
SplineSet
76.5 33.5 m 0
 48.1669921875 62.5 34 104.333007812 34 159 c 2
 34 262 l 2
 34 293.333984375 36.6669921875 319.666992188 42 341 c 0
 47.3330078125 362.333007812 56 387 68 415 c 2
 190 690 l 1
 317 690 l 1
 200 421 l 1
 210.666992188 425.666992188 223.333984375 428 238 428 c 0
 278 428 309.333007812 414.5 332 387.5 c 0
 354.666992188 360.5 366 323.333007812 366 276 c 2
 366 155 l 2
 366 103 351.5 62.5 322.5 33.5 c 0
 293.5 4.5 252.666992188 -10 200 -10 c 0
 146 -10 104.833007812 4.5 76.5 33.5 c 0
232 115 m 0
 239.333007812 124.333007812 243 137.666015625 243 154.999023438 c 2
 243 266.999023438 l 2
 243 302.33203125 228.666992188 319.999023438 200 319.999023438 c 0
 186 319.999023438 175.333007812 315.83203125 168 307.499023438 c 0
 160.666992188 299.166015625 157 287.333007812 157 272 c 2
 157 154 l 2
 157 118.666992188 171.333007812 101 200 101 c 0
 214 101 224.666992188 105.666992188 232 115 c 0
EndSplineSet
EndChar

StartChar: seven
Encoding: 55 55 25
Width: 381
GlyphClass: 2
Flags: W
LayerCount: 2
Fore
SplineSet
358 690 m 1
 358 579 l 1
 189 0 l 1
 66 0 l 1
 235 579 l 1
 23 579 l 1
 23 690 l 1
 358 690 l 1
EndSplineSet
EndChar

StartChar: eight
Encoding: 56 56 26
Width: 410
GlyphClass: 2
Flags: W
LayerCount: 2
Fore
SplineSet
81 34.5 m 0
 52.3330078125 64.1669921875 38 107.333984375 38 164.000976562 c 2
 38 235.000976562 l 2
 38 293.66796875 57.6669921875 335.66796875 97 361.000976562 c 1
 77.6669921875 372.334960938 63 388.66796875 53 410.000976562 c 0
 43 431.333984375 38 453.333984375 38 476.000976562 c 2
 38 541.000976562 l 2
 38 589.66796875 53.1669921875 628.334960938 83.5 657.000976562 c 0
 113.833007812 685.66796875 154.333007812 700.000976562 205 700.000976562 c 0
 256.333007812 700.000976562 297 685.66796875 327 657.000976562 c 0
 357 628.333984375 372 589.666992188 372 541 c 2
 372 476 l 2
 372 453.333007812 366.833007812 431.333007812 356.5 410 c 0
 346.166992188 388.666992188 331.666992188 372.333984375 313 361.000976562 c 1
 352.333007812 336.333984375 372 294.333984375 372 235.000976562 c 2
 372 164.000976562 l 2
 372 107.333984375 357.5 64.1669921875 328.5 34.5 c 0
 299.5 4.8330078125 258.333007812 -10 205 -10 c 0
 151 -10 109.666992188 4.8330078125 81 34.5 c 0
239 425.5 m 0
 245 435.833984375 248 450.666992188 248 469.999023438 c 2
 248 539.999023438 l 2
 248 555.999023438 244.333007812 568.499023438 237 577.499023438 c 0
 229.666992188 586.499023438 219 590.999023438 205 590.999023438 c 0
 191 590.999023438 180.333007812 586.499023438 173 577.499023438 c 0
 165.666992188 568.499023438 162 555.999023438 162 539.999023438 c 2
 162 469.999023438 l 2
 162 450.666015625 165.166992188 435.833007812 171.5 425.5 c 0
 177.833007812 415.166992188 189 410 205 410 c 0
 221.666992188 410 233 415.166992188 239 425.5 c 0
239.5 115 m 0
 245.166992188 125.666992188 248 141.666992188 248 163 c 2
 248 244 l 2
 248 283.333007812 233.666992188 303 205 303 c 0
 189 303 177.833007812 297.833007812 171.5 287.5 c 0
 165.166992188 277.166992188 162 262.666992188 162 244 c 2
 162 163 l 2
 162 141.666992188 165 125.666992188 171 115 c 0
 177 104.333007812 188.333007812 99 205 99 c 0
 222.333007812 99 233.833007812 104.333007812 239.5 115 c 0
EndSplineSet
EndChar

StartChar: nine
Encoding: 57 57 27
Width: 400
GlyphClass: 2
Flags: W
LayerCount: 2
Fore
SplineSet
200 269 m 1
 190.666992188 264.333007812 178 262 162 262 c 0
 122 262 90.6669921875 275.5 68 302.5 c 0
 45.3330078125 329.5 34 366.666992188 34 414 c 2
 34 535 l 2
 34 587 48.5 627.5 77.5 656.5 c 0
 106.5 685.5 147.666992188 700 201 700 c 0
 255 700 296 685.5 324 656.5 c 0
 352 627.5 366 585.666992188 366 531 c 2
 366 428 l 2
 366 396.666992188 363.5 370.166992188 358.5 348.5 c 0
 353.5 326.833007812 345 302.333007812 333 275 c 2
 210 0 l 1
 83 0 l 1
 200 269 l 1
232 382.5 m 0
 239.333007812 390.834960938 243.000976562 402.66796875 243.000976562 418 c 2
 243.000976562 536 l 2
 243.000976562 571.333007812 229.000976562 589 201.000976562 589 c 0
 171.66796875 589 157.000976562 571 157.000976562 535 c 2
 157.000976562 423 l 2
 157.000976562 387.666992188 171.66796875 370 201.000976562 370 c 0
 214.333984375 370 224.666992188 374.166992188 232 382.5 c 0
EndSplineSet
EndChar

StartChar: colon
Encoding: 58 58 28
Width: 175
GlyphClass: 2
Flags: W
LayerCount: 2
Fore
SplineSet
29 132 m 1
 146 132 l 1
 146 0 l 1
 29 0 l 1
 29 132 l 1
29 470 m 1
 146 470 l 1
 146 338 l 1
 29 338 l 1
 29 470 l 1
EndSplineSet
EndChar

StartChar: semicolon
Encoding: 59 59 29
Width: 175
GlyphClass: 2
Flags: W
LayerCount: 2
Fore
SplineSet
29 470 m 1
 146 470 l 1
 146 338 l 1
 29 338 l 1
 29 470 l 1
33 133 m 1
 146 133 l 1
 146 -69 l 1
 33 -160 l 1
 33 133 l 1
EndSplineSet
EndChar

StartChar: less
Encoding: 60 60 30
Width: 419
GlyphClass: 2
Flags: W
LayerCount: 2
Fore
SplineSet
32 232 m 1
 32 320 l 1
 374 458 l 1
 374 359 l 1
 156 276 l 1
 374 193 l 1
 374 94 l 1
 32 232 l 1
EndSplineSet
Substitution2: "'rtla' Right to Left Alternates lookup 0 subtable" greater
EndChar

StartChar: equal
Encoding: 61 61 31
Width: 419
GlyphClass: 2
Flags: W
LayerCount: 2
Fore
SplineSet
32 419 m 1
 374 419 l 1
 374 325 l 1
 32 325 l 1
 32 419 l 1
32 227 m 1
 374 227 l 1
 374 132 l 1
 32 132 l 1
 32 227 l 1
EndSplineSet
EndChar

StartChar: greater
Encoding: 62 62 32
Width: 419
GlyphClass: 2
Flags: W
LayerCount: 2
Fore
SplineSet
32 193 m 1
 249 276 l 1
 32 359 l 1
 32 458 l 1
 374 320 l 1
 374 232 l 1
 32 94 l 1
 32 193 l 1
EndSplineSet
Substitution2: "'rtla' Right to Left Alternates lookup 0 subtable" less
EndChar

StartChar: question
Encoding: 63 63 33
Width: 376
GlyphClass: 2
Flags: W
LayerCount: 2
Fore
SplineSet
129 241 m 2
 129 270.333984375 131.166992188 293.666992188 135.5 311 c 0
 139.833007812 328.333007812 151 351.333007812 169 380 c 2
 204 436 l 2
 214.66796875 452.666992188 221.834960938 467.5 225.500976562 480.5 c 0
 229.16796875 493.5 231.000976562 510.333007812 231.000976562 531 c 0
 231.000976562 573 215.333984375 594 184.000976562 594 c 0
 163.333984375 594 150.166992188 586.666992188 144.5 572 c 0
 138.833007812 557.333007812 136 532.333007812 136 497 c 1
 20 497 l 1
 20 565 33.1669921875 615.666992188 59.5 649 c 0
 85.8330078125 682.333007812 127.666015625 699 184.999023438 699 c 0
 235.666015625 699 275.833007812 684.5 305.5 655.5 c 0
 335.166992188 626.5 350 586 350 534 c 0
 350 508 347 485 341 465 c 0
 335 445 323 421.666992188 305 395 c 2
 266 338 l 2
 254 321.333007812 246.5 306.666015625 243.5 294 c 0
 240.5 281.333007812 239 264 239 242 c 2
 239 198 l 1
 129 198 l 1
 129 241 l 2
129 127 m 1
 239 127 l 1
 239 0 l 1
 129 0 l 1
 129 127 l 1
EndSplineSet
EndChar

StartChar: at
Encoding: 64 64 34
Width: 714
GlyphClass: 2
Flags: W
LayerCount: 2
Fore
SplineSet
186.5 -94 m 0
 138.833007812 -67.3330078125 102.166992188 -28.8330078125 76.5 21.5 c 0
 50.8330078125 71.8330078125 38 131 38 199 c 2
 38 370 l 2
 38 437.333007812 51.1669921875 496 77.5 546 c 0
 103.833007812 596 141 634.5 189 661.5 c 0
 237 688.5 293 702 357 702 c 0
 421 702 477.166992188 688.5 525.5 661.5 c 0
 573.833007812 634.5 611 596.166992188 637 546.5 c 0
 663 496.833007812 676 439.333007812 676 374 c 2
 676 216 l 2
 676 164 664.166992188 124.333007812 640.5 97 c 0
 616.833007812 69.6669921875 582.666015625 56 537.999023438 56 c 0
 509.999023438 56 485.83203125 61.8330078125 465.499023438 73.5 c 0
 445.166015625 85.1669921875 429.666015625 101.666992188 418.999023438 123 c 1
 410.999023438 99.6669921875 399.166015625 82.6669921875 383.499023438 72 c 0
 367.83203125 61.3330078125 346.665039062 56 319.999023438 56 c 0
 283.33203125 56 256.665039062 68.3330078125 239.999023438 93 c 0
 223.33203125 117.666992188 214.999023438 155.333984375 214.999023438 206.000976562 c 2
 214.999023438 364.000976562 l 2
 214.999023438 409.333984375 222.999023438 443.833984375 238.999023438 467.500976562 c 0
 254.999023438 491.16796875 280.999023438 503.000976562 316.999023438 503.000976562 c 0
 334.999023438 503.000976562 350.33203125 499.333984375 362.999023438 492.000976562 c 0
 375.666015625 484.66796875 386.333007812 473.000976562 395 457.000976562 c 1
 395 495.000976562 l 1
 500 495.000976562 l 1
 500 192.000976562 l 2
 500 176.66796875 503.5 165.16796875 510.5 157.500976562 c 0
 517.5 149.833984375 527 146.000976562 539 146.000976562 c 0
 553.670898438 146.000976562 563.837890625 151.000976562 569.5 161.000976562 c 0
 575.166992188 171.000976562 578 184.66796875 578 202.000976562 c 2
 578 383.000976562 l 2
 578 455.66796875 559 511.66796875 521 551.000976562 c 0
 483 590.333984375 428.333007812 610.000976562 357 610.000976562 c 0
 284.333007812 610.000976562 229.666015625 589.833984375 192.999023438 549.500976562 c 0
 156.33203125 509.16796875 137.999023438 449.000976562 137.999023438 369.000976562 c 2
 137.999023438 209.000976562 l 2
 137.999023438 41.66796875 210.999023438 -41.9990234375 356.999023438 -41.9990234375 c 0
 389.666015625 -41.9990234375 418.166015625 -38.33203125 442.499023438 -30.9990234375 c 0
 466.83203125 -23.666015625 491.33203125 -11.3330078125 515.999023438 6 c 1
 566.999023438 -66 l 1
 534.999023438 -89.3330078125 501.83203125 -106.5 467.499023438 -117.5 c 0
 433.166015625 -128.5 396.333007812 -134 357 -134 c 0
 291 -134 234.166992188 -120.666992188 186.5 -94 c 0
388.000976562 163.5 m 0
 393.333984375 173.833007812 396.000976562 188 396.000976562 206 c 2
 396.000976562 359 l 2
 396.000976562 393.666992188 383.000976562 411 357.000976562 411 c 0
 331.66796875 411 319.000976562 393.666992188 319.000976562 359 c 2
 319.000976562 203 l 2
 319.000976562 185 321.833984375 171.333007812 327.500976562 162 c 0
 333.16796875 152.666992188 343.000976562 148 357.000976562 148 c 0
 372.3359375 148 382.668945312 153.166992188 388.000976562 163.5 c 0
EndSplineSet
EndChar

StartChar: A
Encoding: 65 65 35
Width: 485
GlyphClass: 2
Flags: W
LayerCount: 2
Fore
SplineSet
323 134 m 1
 162 134 l 1
 134 0 l 1
 6 0 l 1
 183 690 l 1
 303 690 l 1
 479 0 l 1
 351 0 l 1
 323 134 l 1
301 244 m 1
 243 524 l 1
 185 244 l 1
 301 244 l 1
EndSplineSet
EndChar

StartChar: B
Encoding: 66 66 36
Width: 456
GlyphClass: 2
Flags: W
LayerCount: 2
Fore
SplineSet
402 303 m 0
 412.666992188 277 418 242.66796875 418 200.000976562 c 0
 418 130.000976562 403.666992188 79.16796875 375 47.5009765625 c 0
 346.333007812 15.833984375 297.666015625 0.0009765625 228.999023438 0.0009765625 c 2
 41.9990234375 0.0009765625 l 1
 41.9990234375 690.000976562 l 1
 228.999023438 690.000976562 l 2
 296.33203125 690.000976562 344.33203125 675.16796875 372.999023438 645.500976562 c 0
 401.666015625 615.833984375 415.999023438 568.666992188 415.999023438 504 c 0
 415.999023438 470 410.33203125 441 398.999023438 417 c 0
 387.666015625 393 368.333007812 374.666992188 341 362 c 1
 371 348.666992188 391.333007812 329 402 303 c 0
164 580.000976562 m 1
 164 413 l 1
 216 413 l 2
 244.666992188 413 264.666992188 419.5 276 432.5 c 0
 287.333007812 445.5 293 466.666992188 293 496 c 0
 293 526.668945312 287.333007812 548.3359375 276 561.000976562 c 0
 264.666992188 573.66796875 244.666992188 580.000976562 216 580.000976562 c 2
 164 580.000976562 l 1
278 132.5 m 0
 289.333007812 147.5 295 173 295 209 c 0
 295 243.666992188 288.833007812 268.666992188 276.5 284 c 0
 264.166992188 299.333007812 243.666992188 307 215 307 c 2
 164 307 l 1
 164 110 l 1
 215 110 l 2
 245.666992188 110 266.666992188 117.5 278 132.5 c 0
EndSplineSet
EndChar

StartChar: C
Encoding: 67 67 37
Width: 468
GlyphClass: 2
Flags: W
LayerCount: 2
Fore
SplineSet
90 42.5 m 0
 55.3330078125 76.1669921875 38.0009765625 125.333984375 38.0009765625 190.000976562 c 2
 38.0009765625 501.000976562 l 2
 38.0009765625 566.333984375 56.333984375 615.833984375 93.0009765625 649.500976562 c 0
 129.66796875 683.16796875 178.000976562 700.000976562 238.000976562 700.000976562 c 0
 295.333984375 700.000976562 341.666992188 683.333984375 377 650.000976562 c 0
 412.333007812 616.66796875 430 566.000976562 430 498.000976562 c 2
 430 477.000976562 l 1
 307 477.000976562 l 1
 307 497.000976562 l 2
 307 528.333984375 300.5 551.500976562 287.5 566.500976562 c 0
 274.5 581.500976562 257 589.000976562 235 589.000976562 c 0
 209 589.000976562 190.166992188 580.000976562 178.5 562.000976562 c 0
 166.833007812 544.000976562 161 517.000976562 161 481.000976562 c 2
 161 204.000976562 l 2
 161 136.66796875 185.666992188 103.000976562 235 103.000976562 c 0
 257 103.000976562 274.5 110.66796875 287.5 126.000976562 c 0
 300.5 141.333984375 307 164.000976562 307 194.000976562 c 2
 307 212.000976562 l 1
 429 212.000976562 l 1
 429 193.000976562 l 2
 429 126.333984375 410.5 76.1669921875 373.5 42.5 c 0
 336.5 8.8330078125 289 -8 231 -8 c 0
 171.666992188 -8 124.666992188 8.8330078125 90 42.5 c 0
EndSplineSet
EndChar

StartChar: D
Encoding: 68 68 38
Width: 463
GlyphClass: 2
Flags: W
LayerCount: 2
Fore
SplineSet
42 690 m 1
 233 690.000976562 l 2
 291 690.000976562 337.5 673.333984375 372.5 640.000976562 c 0
 407.5 606.666992188 425 557.333984375 425 492.000976562 c 2
 425 198.000976562 l 2
 425 133.333984375 406.666992188 84.1669921875 370 50.5 c 0
 333.333007812 16.8330078125 285.666015625 0 227 0 c 2
 42 0 l 1
 42 690 l 1
230 110.000976562 m 2
 253.333007812 110.000976562 271.166992188 119.001953125 283.5 137.001953125 c 0
 295.833007812 155.001953125 302 180.001953125 302 212.001953125 c 2
 302 471.001953125 l 2
 302 506.334960938 296 533.16796875 284 551.500976562 c 0
 272 569.833984375 254 579.000976562 230 579.000976562 c 2
 164 579.000976562 l 1
 164 110.000976562 l 1
 230 110.000976562 l 2
EndSplineSet
EndChar

StartChar: E
Encoding: 69 69 39
Width: 375
GlyphClass: 2
Flags: W
LayerCount: 2
Fore
SplineSet
164 579 m 1
 164 406 l 1
 324 406 l 1
 324 296 l 1
 164 296 l 1
 164 110 l 1
 350 110 l 1
 350 0 l 1
 42 0 l 1
 42 690 l 1
 350 690 l 1
 350 579 l 1
 164 579 l 1
EndSplineSet
EndChar

StartChar: F
Encoding: 70 70 40
Width: 371
GlyphClass: 2
Flags: W
LayerCount: 2
Fore
SplineSet
165 579 m 1
 165 403 l 1
 325 403 l 1
 325 292 l 1
 165 292 l 1
 165 0 l 1
 42 0 l 1
 42 690 l 1
 350 690 l 1
 350 579 l 1
 165 579 l 1
EndSplineSet
EndChar

StartChar: G
Encoding: 71 71 41
Width: 468
GlyphClass: 2
Flags: W
LayerCount: 2
Fore
SplineSet
90 42.5 m 0
 55.3330078125 76.1669921875 38 125.333007812 38 190 c 2
 38 501 l 2
 38 566.333007812 56.3330078125 615.833007812 93 649.5 c 0
 129.666992188 683.166992188 178 700 238 700 c 0
 295.333007812 700 341.666015625 683.666992188 376.999023438 651 c 0
 412.33203125 618.333007812 429.999023438 570 429.999023438 506 c 2
 429.999023438 485 l 1
 306.999023438 485 l 1
 306.999023438 506 l 2
 306.999023438 532.666992188 300.33203125 553.166992188 286.999023438 567.5 c 0
 273.666015625 581.833007812 256.333007812 589 235 589 c 0
 209 589 190.166992188 580 178.5 562 c 0
 166.833007812 544 161 517 161 481 c 2
 161 204 l 2
 161 136.666992188 185.666992188 103 235 103 c 0
 259 103 277 111.166992188 289 127.5 c 0
 301 143.833007812 307 167.333007812 307 198 c 2
 307 271 l 1
 234 271 l 1
 234 368 l 1
 430 368 l 1
 430 190 l 2
 430 126 411.5 77 374.5 43 c 0
 337.5 9 289.666992188 -8 231 -8 c 0
 171.666992188 -8 124.666992188 8.8330078125 90 42.5 c 0
EndSplineSet
EndChar

StartChar: H
Encoding: 72 72 42
Width: 460
GlyphClass: 2
Flags: W
LayerCount: 2
Fore
SplineSet
418 690 m 1
 418 0 l 1
 295 0 l 1
 295 296 l 1
 165 296 l 1
 165 0 l 1
 42 0 l 1
 42 690 l 1
 165 690 l 1
 165 406 l 1
 295 406 l 1
 295 690 l 1
 418 690 l 1
EndSplineSet
EndChar

StartChar: I
Encoding: 73 73 43
Width: 214
GlyphClass: 2
Flags: W
LayerCount: 2
Fore
SplineSet
46 690 m 1
 168 690 l 1
 168 0 l 1
 46 0 l 1
 46 690 l 1
EndSplineSet
EndChar

StartChar: J
Encoding: 74 74 44
Width: 266
GlyphClass: 2
Flags: W
LayerCount: 2
Fore
SplineSet
17 111 m 1
 33 111 l 2
 75.6669921875 111 97 133.333007812 97 178 c 2
 97 690 l 1
 220 690 l 1
 220 164 l 2
 220 54.6669921875 160.333007812 0 41 0 c 2
 17 0 l 1
 17 111 l 1
EndSplineSet
EndChar

StartChar: K
Encoding: 75 75 45
Width: 460
GlyphClass: 2
Flags: W
LayerCount: 2
Fore
SplineSet
220 267 m 1
 164 156 l 1
 164 0 l 1
 42 0 l 1
 42 690 l 1
 164 690 l 1
 164 365 l 1
 311 690 l 1
 434 690 l 1
 290 406 l 1
 456 0 l 1
 325 0 l 1
 220 267 l 1
EndSplineSet
EndChar

StartChar: L
Encoding: 76 76 46
Width: 367
GlyphClass: 2
Flags: W
LayerCount: 2
Fore
SplineSet
42 690 m 1
 165 690 l 1
 165 110 l 1
 350 110 l 1
 350 0 l 1
 42 0 l 1
 42 690 l 1
EndSplineSet
EndChar

StartChar: M
Encoding: 77 77 47
Width: 571
GlyphClass: 2
Flags: W
LayerCount: 2
Fore
SplineSet
529 690 m 1
 529 0 l 1
 406 0 l 1
 406 404 l 1
 318 134 l 1
 252 134 l 1
 165 401 l 1
 165 0 l 1
 42 0 l 1
 42 690 l 1
 165 690 l 1
 285 326 l 1
 406 690 l 1
 529 690 l 1
EndSplineSet
EndChar

StartChar: N
Encoding: 78 78 48
Width: 474
GlyphClass: 2
Flags: W
LayerCount: 2
Fore
SplineSet
432 690 m 1
 432 0 l 1
 309 0 l 1
 165 368 l 1
 165 0 l 1
 42 0 l 1
 42 690 l 1
 165 690 l 1
 309 306 l 1
 309 690 l 1
 432 690 l 1
EndSplineSet
EndChar

StartChar: O
Encoding: 79 79 49
Width: 468
GlyphClass: 2
Flags: W
LayerCount: 2
Fore
SplineSet
90 42.5 m 0
 55.3330078125 76.1669921875 38 125.333007812 38 190 c 2
 38 501 l 2
 38 566.333007812 56.3330078125 615.833007812 93 649.5 c 0
 129.666992188 683.166992188 178 700 238 700 c 0
 296 700 342.5 683.166992188 377.5 649.5 c 0
 412.5 615.833007812 430 566.333007812 430 501 c 2
 430 190 l 2
 430 126 411.5 77 374.5 43 c 0
 337.5 9 289.666992188 -8 231 -8 c 0
 171.666992188 -8 124.666992188 8.8330078125 90 42.5 c 0
288.5 129.499023438 m 0
 300.833007812 147.166015625 307 172 307 204 c 2
 307 481 l 2
 307 516.333007812 301 543.166015625 289 561.499023438 c 0
 277 579.83203125 259 588.999023438 235 588.999023438 c 0
 209 588.999023438 190.166992188 579.999023438 178.5 561.999023438 c 0
 166.833007812 543.999023438 161 516.999023438 161 480.999023438 c 2
 161 203.999023438 l 2
 161 136.666015625 185.666992188 102.999023438 235 102.999023438 c 0
 258.333984375 102.999023438 276.166992188 111.83203125 288.5 129.499023438 c 0
EndSplineSet
EndChar

StartChar: P
Encoding: 80 80 50
Width: 434
GlyphClass: 2
Flags: W
LayerCount: 2
Fore
SplineSet
373.5 636 m 0
 402.5 600 417.000976562 545.666992188 417.000976562 473 c 0
 417.000976562 399.666992188 402.16796875 345 372.500976562 309 c 0
 342.833984375 273 294.666992188 255 228 255 c 2
 164 255 l 1
 164 0 l 1
 42 0 l 1
 42 690 l 1
 228 690 l 2
 296 690 344.5 672 373.5 636 c 0
278.500976562 392 m 0
 288.833984375 409.333007812 294.000976562 436.333007812 294.000976562 473 c 0
 294.000976562 509.666992188 288.833984375 536.666992188 278.500976562 554 c 0
 268.16796875 571.333007812 250.000976562 580 224.000976562 580 c 2
 164.000976562 580 l 1
 164.000976562 366 l 1
 224.000976562 366 l 2
 250.000976562 366 268.16796875 374.666992188 278.500976562 392 c 0
EndSplineSet
EndChar

StartChar: Q
Encoding: 81 81 51
Width: 468
GlyphClass: 2
Flags: W
LayerCount: 2
Fore
SplineSet
406 84.5 m 0
 390 55.5 368 33.33203125 340 17.9990234375 c 1
 385 -107.000976562 l 1
 281 -145.000976562 l 1
 232 -8.0009765625 l 1
 231 -8.0009765625 l 2
 171.666992188 -8.0009765625 124.666992188 8.83203125 90 42.4990234375 c 0
 55.3330078125 76.166015625 38 125.333007812 38 190 c 2
 38 501 l 2
 38 566.333007812 56.3330078125 615.833007812 93 649.5 c 0
 129.666992188 683.166992188 178 700 238 700 c 0
 296 700 342.5 683.166992188 377.5 649.5 c 0
 412.5 615.833007812 430 566.333007812 430 501 c 2
 430 190 l 2
 430 148.666992188 422 113.5 406 84.5 c 0
235 102.999023438 m 0
 258.333984375 102.999023438 276.166992188 111.833007812 288.5 129.5 c 0
 300.833007812 147.166992188 307 172 307 204 c 2
 307 481 l 2
 307 516.333007812 301 543.166015625 289 561.499023438 c 0
 277 579.83203125 259 588.999023438 235 588.999023438 c 0
 209 588.999023438 190.166992188 579.999023438 178.5 561.999023438 c 0
 166.833007812 543.999023438 161 516.999023438 161 480.999023438 c 2
 161 203.999023438 l 2
 161 136.666015625 185.666992188 102.999023438 235 102.999023438 c 0
EndSplineSet
EndChar

StartChar: R
Encoding: 82 82 52
Width: 460
GlyphClass: 2
Flags: W
LayerCount: 2
Fore
SplineSet
224 277 m 1
 165 277 l 1
 165 0 l 1
 42 0 l 1
 42 690 l 1
 230 690 l 2
 298 690 346.166992188 673.666992188 374.5 641 c 0
 402.833007812 608.333007812 417 556 417 484 c 0
 417 438 410.666992188 399.666992188 398 369 c 0
 385.333007812 338.333007812 364.666015625 315.333007812 336 300 c 1
 439 0 l 1
 311 0 l 1
 224 277 l 1
165 387 m 1
 229 387 l 2
 253.666992188 387 270.666992188 395.166992188 280 411.5 c 0
 289.333007812 427.833007812 294 452 294 484 c 0
 294 516 289.5 540 280.5 556 c 0
 271.5 572 254.333007812 580 229 580 c 2
 165 580 l 1
 165 387 l 1
EndSplineSet
EndChar

StartChar: S
Encoding: 83 83 53
Width: 426
GlyphClass: 2
Flags: W
LayerCount: 2
Fore
SplineSet
68 45 m 0
 36 80.3330078125 19.6669921875 130.999023438 19 196.999023438 c 1
 135 196.999023438 l 1
 136.333007812 162.999023438 143.166015625 137.999023438 155.499023438 121.999023438 c 0
 167.83203125 105.999023438 185.999023438 97.9990234375 209.999023438 97.9990234375 c 0
 233.999023438 97.9990234375 251.499023438 105.33203125 262.499023438 119.999023438 c 0
 273.499023438 134.666015625 278.999023438 157.999023438 278.999023438 189.999023438 c 0
 278.999023438 216.666015625 272.83203125 237.833007812 260.499023438 253.499023438 c 0
 248.166015625 269.166015625 227.333007812 283.666015625 198 296.999023438 c 2
 151 317.999023438 l 2
 106.333007812 337.999023438 74.166015625 362.666015625 54.4990234375 391.999023438 c 0
 34.83203125 421.333007812 24.9990234375 460.666015625 24.9990234375 509.999023438 c 0
 24.9990234375 567.999023438 41.83203125 614.33203125 75.4990234375 648.999023438 c 0
 109.166015625 683.666015625 154.666015625 700.999023438 211.999023438 700.999023438 c 0
 268.666015625 700.999023438 312.499023438 683.83203125 343.499023438 649.499023438 c 0
 374.499023438 615.166015625 390.999023438 565.666015625 392.999023438 500.999023438 c 1
 279.999023438 500.999023438 l 1
 279.33203125 532.33203125 273.83203125 555.83203125 263.499023438 571.499023438 c 0
 253.166015625 587.166015625 235.999023438 594.999023438 211.999023438 594.999023438 c 0
 167.33203125 594.999023438 144.999023438 568.666015625 144.999023438 515.999023438 c 0
 144.999023438 491.999023438 150.499023438 472.83203125 161.499023438 458.499023438 c 0
 172.499023438 444.166015625 190.999023438 431.333007812 216.999023438 420 c 2
 261.999023438 400 l 2
 309.999023438 378.666992188 344.83203125 352 366.499023438 320 c 0
 388.166015625 288 398.999023438 245.333007812 398.999023438 192 c 0
 398.999023438 128 382.33203125 78.6669921875 348.999023438 44 c 0
 315.666015625 9.3330078125 268.333007812 -8 207 -8 c 0
 146.333007812 -8 100 9.6669921875 68 45 c 0
EndSplineSet
EndChar

StartChar: T
Encoding: 84 84 54
Width: 369
GlyphClass: 2
Flags: W
LayerCount: 2
Fore
SplineSet
365 579 m 1
 246 579 l 1
 246 0 l 1
 124 0 l 1
 124 579 l 1
 4 579 l 1
 4 690 l 1
 365 690 l 1
 365 579 l 1
EndSplineSet
EndChar

StartChar: U
Encoding: 85 85 55
Width: 460
GlyphClass: 2
Flags: W
LayerCount: 2
Fore
SplineSet
133.5 15.5 m 0
 105.166992188 31.1669921875 82.8330078125 53.333984375 66.5 82.0009765625 c 0
 50.1669921875 110.66796875 42 143.66796875 42 181.000976562 c 2
 42 690.000976562 l 1
 165 690.000976562 l 1
 165 184.000976562 l 2
 165 156.000976562 170.333007812 135.500976562 181 122.500976562 c 0
 191.666992188 109.500976562 208 103.000976562 230 103.000976562 c 0
 273.333007812 103.000976562 295 130.000976562 295 184.000976562 c 2
 295 690.000976562 l 1
 418 690.000976562 l 1
 418 181.000976562 l 2
 418 143.66796875 410 110.66796875 394 82.0009765625 c 0
 378 53.333984375 355.666992188 31.1669921875 327 15.5 c 0
 298.333007812 -0.1669921875 266 -8 230 -8 c 0
 194 -8 161.833007812 -0.1669921875 133.5 15.5 c 0
EndSplineSet
EndChar

StartChar: V
Encoding: 86 86 56
Width: 449
GlyphClass: 2
Flags: W
LayerCount: 2
Fore
SplineSet
6 690 m 1
 141 690 l 1
 224 174 l 1
 308 690 l 1
 443 690 l 1
 288 0 l 1
 161 0 l 1
 6 690 l 1
EndSplineSet
EndChar

StartChar: W
Encoding: 87 87 57
Width: 674
GlyphClass: 2
Flags: W
LayerCount: 2
Fore
SplineSet
668 690 m 1
 545 0 l 1
 412 0 l 1
 337 424 l 1
 261 0 l 1
 129 0 l 1
 6 690 l 1
 131 690 l 1
 198 174 l 1
 263 690 l 1
 413 690 l 1
 478 174 l 1
 545 690 l 1
 668 690 l 1
EndSplineSet
EndChar

StartChar: X
Encoding: 88 88 58
Width: 415
GlyphClass: 2
Flags: W
LayerCount: 2
Fore
SplineSet
147 358 m 1
 16 690 l 1
 137 690 l 1
 208 474 l 1
 278 690 l 1
 399 690 l 1
 268 358 l 1
 409 0 l 1
 288 0 l 1
 208 241 l 1
 127 0 l 1
 6 0 l 1
 147 358 l 1
EndSplineSet
EndChar

StartChar: Y
Encoding: 89 89 59
Width: 415
GlyphClass: 2
Flags: W
LayerCount: 2
Fore
SplineSet
269 269 m 1
 269 0 l 1
 146 0 l 1
 146 271 l 1
 6 690 l 1
 141 690 l 1
 207 426 l 1
 273 690 l 1
 409 690 l 1
 269 269 l 1
EndSplineSet
EndChar

StartChar: Z
Encoding: 90 90 60
Width: 359
GlyphClass: 2
Flags: W
LayerCount: 2
Fore
SplineSet
340 111 m 1
 340 0 l 1
 21 0 l 1
 21 111 l 1
 215 579 l 1
 31 579 l 1
 31 690 l 1
 336 690 l 1
 336 579 l 1
 143 111 l 1
 340 111 l 1
EndSplineSet
EndChar

StartChar: bracketleft
Encoding: 91 91 61
Width: 283
GlyphClass: 2
Flags: W
LayerCount: 2
Fore
SplineSet
42 740 m 1
 245 740 l 1
 245 629 l 1
 156 629 l 1
 156 27 l 1
 245 27 l 1
 245 -84 l 1
 42 -84 l 1
 42 740 l 1
EndSplineSet
Substitution2: "'rtla' Right to Left Alternates lookup 0 subtable" bracketright
EndChar

StartChar: backslash
Encoding: 92 92 62
Width: 298
GlyphClass: 2
Flags: W
LayerCount: 2
Fore
SplineSet
38 698 m 1
 129 698 l 1
 260 -10 l 1
 168 -10 l 1
 38 698 l 1
EndSplineSet
EndChar

StartChar: bracketright
Encoding: 93 93 63
Width: 283
GlyphClass: 2
Flags: W
LayerCount: 2
Fore
SplineSet
38 27 m 1
 126 27 l 1
 126 629 l 1
 38 629 l 1
 38 740 l 1
 241 740 l 1
 241 -84 l 1
 38 -84 l 1
 38 27 l 1
EndSplineSet
Substitution2: "'rtla' Right to Left Alternates lookup 0 subtable" bracketleft
EndChar

StartChar: asciicircum
Encoding: 94 94 64
Width: 419
GlyphClass: 2
Flags: W
LayerCount: 2
Fore
SplineSet
159 698 m 1
 251 698 l 1
 380 279 l 1
 289 279 l 1
 205 560 l 1
 121 279 l 1
 30 279 l 1
 159 698 l 1
EndSplineSet
EndChar

StartChar: underscore
Encoding: 95 95 65
Width: 425
GlyphClass: 2
Flags: W
LayerCount: 2
Fore
SplineSet
0 -48 m 1
 425 -48 l 1
 425 -117 l 1
 0 -117 l 1
 0 -48 l 1
EndSplineSet
EndChar

StartChar: grave
Encoding: 96 96 66
Width: 500
GlyphClass: 2
Flags: W
LayerCount: 2
Fore
SplineSet
139 726 m 1
 262 726 l 1
 361 590 l 1
 262 590 l 1
 139 726 l 1
EndSplineSet
EndChar

StartChar: a
Encoding: 97 97 67
Width: 405
GlyphClass: 2
Flags: W
LayerCount: 2
Fore
SplineSet
321.5 490.5 m 0
 349.833007812 460.166992188 364.001953125 419.33203125 364.001953125 367.999023438 c 2
 364.001953125 -0.0009765625 l 1
 256.001953125 -0.0009765625 l 1
 256.001953125 43.9990234375 l 1
 242.001953125 25.9990234375 228.334960938 12.83203125 215.001953125 4.4990234375 c 0
 201.66796875 -3.833984375 184.334960938 -8.0009765625 163.001953125 -8.0009765625 c 0
 119.001953125 -8.0009765625 85.8349609375 6.33203125 63.501953125 34.9990234375 c 0
 41.1689453125 63.666015625 30.001953125 103.666015625 30.001953125 154.999023438 c 0
 30.001953125 204.33203125 45.001953125 242.499023438 75.001953125 269.499023438 c 0
 105.001953125 296.499023438 148.001953125 309.999023438 204.001953125 309.999023438 c 2
 248.001953125 309.999023438 l 1
 248.001953125 376.999023438 l 2
 248.001953125 395.666015625 243.834960938 409.833007812 235.501953125 419.5 c 0
 227.168945312 429.166992188 215.001953125 434 199.001953125 434 c 0
 184.334960938 434 172.66796875 429.333007812 164.000976562 420 c 0
 155.333984375 410.666992188 151.000976562 398 151.000976562 382 c 2
 151.000976562 374 l 1
 44.0009765625 374 l 1
 44.0009765625 378 l 2
 44.0009765625 430 58.66796875 469.333007812 88.0009765625 496 c 0
 117.333984375 522.666992188 155.333984375 536 202.000976562 536 c 0
 253.333984375 536 293.166992188 520.833007812 321.5 490.5 c 0
233.501953125 110.498046875 m 0
 243.168945312 122.165039062 248.001953125 137.999023438 248.001953125 157.999023438 c 2
 248.001953125 228.999023438 l 1
 218.001953125 228.999023438 l 2
 194.66796875 228.999023438 176.834960938 223.666015625 164.501953125 212.999023438 c 0
 152.168945312 202.33203125 146.001953125 184.665039062 146.001953125 159.998046875 c 0
 146.001953125 137.998046875 150.334960938 121.331054688 159.001953125 109.998046875 c 0
 167.668945312 98.6650390625 180.3359375 92.998046875 197.001953125 92.998046875 c 0
 211.668945312 92.998046875 223.8359375 98.8310546875 233.501953125 110.498046875 c 0
EndSplineSet
EndChar

StartChar: b
Encoding: 98 98 68
Width: 410
GlyphClass: 2
Flags: W
LayerCount: 2
Fore
SplineSet
194.5 3 m 0
 180.166992188 10.3330078125 166.33203125 21.6650390625 152.999023438 36.998046875 c 1
 152.999023438 -0.001953125 l 1
 40.9990234375 -0.001953125 l 1
 40.9990234375 689.998046875 l 1
 156.999023438 689.998046875 l 1
 156.999023438 485.998046875 l 1
 166.33203125 502 178.499023438 514.333007812 193.499023438 522.998046875 c 0
 208.499023438 531.665039062 225.999023438 535.998046875 245.999023438 535.998046875 c 0
 284.666015625 535.998046875 315.333007812 522.331054688 338 494.998046875 c 0
 360.666992188 467.665039062 372 424.33203125 372 364.999023438 c 2
 372 162.999023438 l 2
 372 103.666015625 360.166992188 60.3330078125 336.5 33 c 0
 312.833007812 5.6669921875 282 -8 244 -8 c 0
 225.333007812 -8 208.833007812 -4.3330078125 194.5 3 c 0
243.498046875 115.999023438 m 0
 251.831054688 129.33203125 255.999023438 151.33203125 255.999023438 181.999023438 c 2
 255.999023438 345.999023438 l 2
 255.999023438 375.999023438 251.83203125 397.83203125 243.499023438 411.499023438 c 0
 235.166015625 425.166015625 222.666015625 431.999023438 205.999023438 431.999023438 c 0
 189.33203125 431.999023438 176.665039062 425.166015625 167.998046875 411.499023438 c 0
 159.331054688 397.83203125 154.998046875 375.999023438 154.998046875 345.999023438 c 2
 154.998046875 181.999023438 l 2
 154.998046875 124.666015625 171.998046875 95.9990234375 205.998046875 95.9990234375 c 0
 222.665039062 95.9990234375 235.165039062 102.666015625 243.498046875 115.999023438 c 0
EndSplineSet
EndChar

StartChar: c
Encoding: 99 99 69
Width: 407
GlyphClass: 2
Flags: W
LayerCount: 2
Fore
SplineSet
81 37 m 0
 52.3330078125 67 38 115.666992188 38 183 c 2
 38 345 l 2
 38 412.333007812 52.3330078125 461 81 491 c 0
 109.666992188 521 151.333984375 536 206.000976562 536 c 0
 258.66796875 536 299.000976562 521.666992188 327.000976562 493 c 0
 355.000976562 464.333007812 369.000976562 421.333007812 369.000976562 364 c 2
 369.000976562 344 l 1
 257.000976562 344 l 1
 257.000976562 362 l 2
 257.000976562 385.333007812 252.500976562 402.833007812 243.500976562 414.5 c 0
 234.500976562 426.166992188 222.000976562 432 206.000976562 432 c 0
 188.66796875 432 175.66796875 425.166992188 167.000976562 411.5 c 0
 158.333984375 397.833007812 154.000976562 376 154.000976562 346 c 2
 154.000976562 182 l 2
 154.000976562 152 158.333984375 130.166992188 167.000976562 116.5 c 0
 175.66796875 102.833007812 188.334960938 96 205.000976562 96 c 0
 221.66796875 96 234.500976562 101.833007812 243.500976562 113.5 c 0
 252.500976562 125.166992188 257.000976562 143 257.000976562 167 c 2
 257.000976562 184 l 1
 369.000976562 184 l 1
 369.000976562 167 l 2
 369.000976562 108.333007812 355.000976562 64.5 327.000976562 35.5 c 0
 299.000976562 6.5 258.66796875 -8 206.000976562 -8 c 0
 151.333984375 -8 109.666992188 7 81 37 c 0
EndSplineSet
EndChar

StartChar: d
Encoding: 100 100 70
Width: 410
GlyphClass: 2
Flags: W
LayerCount: 2
Fore
SplineSet
73.5 33 m 0
 49.8330078125 60.3330078125 38.001953125 103.66796875 38.001953125 163.000976562 c 2
 38.001953125 365.000976562 l 2
 38.001953125 424.333984375 49.501953125 467.666992188 72.501953125 495 c 0
 95.501953125 522.333007812 126.334960938 536 165.001953125 536 c 0
 184.334960938 536 201.66796875 531.666992188 217.000976562 523 c 0
 232.333984375 514.333007812 244.666992188 502 254 486 c 1
 254 690 l 1
 369 690 l 1
 369 0 l 1
 258 0 l 1
 258 37 l 1
 232.666992188 7 202.333984375 -8 167.000976562 -8 c 0
 128.333984375 -8 97.1669921875 5.6669921875 73.5 33 c 0
256.001953125 182.001953125 m 2
 256.002929688 346.001953125 l 2
 256.002929688 376.001953125 251.669921875 397.834960938 243.002929688 411.501953125 c 0
 234.3359375 425.168945312 221.3359375 432.001953125 204.002929688 432.001953125 c 0
 187.3359375 432.001953125 174.8359375 425.168945312 166.502929688 411.501953125 c 0
 158.169921875 397.834960938 154.002929688 376.001953125 154.002929688 346.001953125 c 2
 154.002929688 182.001953125 l 2
 154.002929688 151.334960938 158.169921875 129.334960938 166.502929688 116.001953125 c 0
 174.8359375 102.668945312 187.668945312 96.001953125 205.001953125 96.001953125 c 0
 239.001953125 96.001953125 256.001953125 124.668945312 256.001953125 182.001953125 c 2
EndSplineSet
EndChar

StartChar: e
Encoding: 101 101 71
Width: 411
GlyphClass: 2
Flags: W
LayerCount: 2
Fore
SplineSet
154 223 m 1
 153.998046875 174.999023438 l 2
 153.998046875 120.999023438 171.331054688 93.9990234375 205.998046875 93.9990234375 c 0
 239.998046875 93.9990234375 256.998046875 116.33203125 256.998046875 160.999023438 c 2
 256.998046875 165.999023438 l 1
 368.998046875 165.999023438 l 1
 368.998046875 159.999023438 l 2
 368.998046875 104.666015625 354.998046875 62.8330078125 326.998046875 34.5 c 0
 298.998046875 6.1669921875 258.665039062 -8 205.998046875 -8 c 0
 152.665039062 -8 111.33203125 8 81.9990234375 40 c 0
 52.666015625 72 37.9990234375 125 37.9990234375 199 c 2
 37.9990234375 328 l 2
 37.9990234375 400 51.83203125 452.666992188 79.4990234375 486 c 0
 107.166015625 519.333007812 148.333007812 536 203 536 c 0
 257 536 298.833007812 519 328.5 485 c 0
 358.166992188 451 373 398.666992188 373 328 c 2
 373 223 l 1
 154 223 l 1
166.998046875 411.499023438 m 0
 158.331054688 397.83203125 153.999023438 375.999023438 153.999023438 345.999023438 c 2
 153.999023438 306.999023438 l 1
 256.999023438 306.999023438 l 1
 256.999023438 345.999023438 l 2
 256.999023438 375.999023438 252.666015625 397.83203125 243.999023438 411.499023438 c 0
 235.33203125 425.166015625 222.33203125 431.999023438 204.999023438 431.999023438 c 0
 188.33203125 431.999023438 175.665039062 425.166015625 166.998046875 411.499023438 c 0
EndSplineSet
EndChar

StartChar: f
Encoding: 102 102 72
Width: 287
GlyphClass: 2
Flags: W
LayerCount: 2
Fore
SplineSet
207.5 595 m 0
 199.166992188 586.333007812 195 571.333007812 195 550 c 2
 195 528 l 1
 266 528 l 1
 266 447 l 1
 195 447 l 1
 195 0 l 1
 80 0 l 1
 80 447 l 1
 27 447 l 1
 27 528 l 1
 80 528 l 1
 80 558 l 2
 80 646 125.333007812 690 216 690 c 2
 266 690 l 1
 266 608 l 1
 251 608 l 2
 230.333007812 608 215.833007812 603.666992188 207.5 595 c 0
EndSplineSet
EndChar

StartChar: g
Encoding: 103 103 73
Width: 410
GlyphClass: 2
Flags: W
LayerCount: 2
Fore
SplineSet
90.5 -130 m 0
 62.8330078125 -104.666992188 48.3359375 -67.3330078125 47.0029296875 -18 c 1
 155.002929688 -18 l 1
 155.002929688 -34 159.3359375 -46.3330078125 168.002929688 -55 c 0
 176.669921875 -63.6669921875 189.336914062 -68 206.002929688 -68 c 0
 222.669921875 -68 235.502929688 -62.6669921875 244.502929688 -52 c 0
 253.502929688 -41.3330078125 258.002929688 -25.666015625 258.002929688 -4.9990234375 c 2
 258.002929688 86.0009765625 l 1
 232.669921875 56.0009765625 202.336914062 41.0009765625 167.00390625 41.0009765625 c 0
 128.336914062 41.0009765625 97.169921875 54.66796875 73.5029296875 82.0009765625 c 0
 49.8359375 109.333984375 38.0029296875 152.666992188 38.0029296875 212 c 2
 38.0029296875 365 l 2
 38.0029296875 424.333007812 49.5029296875 467.666015625 72.5029296875 494.999023438 c 0
 95.5029296875 522.33203125 126.3359375 535.999023438 165.002929688 535.999023438 c 0
 184.3359375 535.999023438 201.668945312 531.666015625 217.001953125 522.999023438 c 0
 232.334960938 514.33203125 244.66796875 501.999023438 254.000976562 485.999023438 c 1
 254.000976562 527.999023438 l 1
 369.000976562 527.999023438 l 1
 369.000976562 5.9990234375 l 2
 369.000976562 -47.333984375 354.500976562 -89.6669921875 325.500976562 -121 c 0
 296.500976562 -152.333007812 256.333984375 -168 205.000976562 -168 c 0
 156.333984375 -168 118.166992188 -155.333007812 90.5 -130 c 0
256.002929688 231.000976562 m 2
 256.00390625 346.000976562 l 2
 256.00390625 376.000976562 251.670898438 397.833984375 243.00390625 411.500976562 c 0
 234.336914062 425.16796875 221.336914062 432.000976562 204.00390625 432.000976562 c 0
 187.336914062 432.000976562 174.836914062 425.16796875 166.50390625 411.500976562 c 0
 158.170898438 397.833984375 154.00390625 376.000976562 154.00390625 346.000976562 c 2
 154.00390625 231.000976562 l 2
 154.00390625 200.333984375 158.170898438 178.333984375 166.50390625 165.000976562 c 0
 174.836914062 151.66796875 187.669921875 145.000976562 205.002929688 145.000976562 c 0
 239.002929688 145.000976562 256.002929688 173.66796875 256.002929688 231.000976562 c 2
EndSplineSet
EndChar

StartChar: h
Encoding: 104 104 74
Width: 410
GlyphClass: 2
Flags: W
LayerCount: 2
Fore
SplineSet
41 690 m 1
 156.999023438 689.999023438 l 1
 156.999023438 493.999023438 l 1
 181.666015625 521.999023438 209.333007812 535.999023438 240 535.999023438 c 0
 284.666992188 535.999023438 317.333984375 522.33203125 338.000976562 494.999023438 c 0
 358.66796875 467.666015625 369.000976562 428.333007812 369.000976562 377 c 2
 369.000976562 0 l 1
 253.000976562 0 l 1
 253.000976562 376 l 2
 253.000976562 394 248.500976562 407.833007812 239.500976562 417.5 c 0
 230.500976562 427.166992188 219.000976562 432 205.000976562 432 c 0
 190.333984375 432 178.666992188 427.166992188 170 417.5 c 0
 161.333007812 407.833007812 157 394 157 376 c 2
 157 0 l 1
 41 0 l 1
 41 690 l 1
EndSplineSet
EndChar

StartChar: i
Encoding: 105 105 75
Width: 206
GlyphClass: 2
Flags: W
LayerCount: 2
Fore
SplineSet
45 528 m 1
 161 528 l 1
 161 0 l 1
 45 0 l 1
 45 528 l 1
45 690 m 1
 161 690 l 1
 161 593 l 1
 45 593 l 1
 45 690 l 1
EndSplineSet
EndChar

StartChar: j
Encoding: 106 106 76
Width: 206
GlyphClass: 2
Flags: W
LayerCount: 2
Fore
SplineSet
45 690 m 1
 161 690 l 1
 161 593 l 1
 45 593 l 1
 45 690 l 1
-24 -54 m 1
 -19 -54 l 2
 23.6669921875 -54 45 -31.6669921875 45 13 c 2
 45 528 l 1
 161 528 l 1
 161 6 l 2
 161 -103.333007812 101.333007812 -158 -18 -158 c 2
 -24 -158 l 1
 -24 -54 l 1
EndSplineSet
EndChar

StartChar: k
Encoding: 107 107 77
Width: 419
GlyphClass: 2
Flags: W
LayerCount: 2
Fore
SplineSet
197 210 m 1
 157 149 l 1
 157 0 l 1
 41 0 l 1
 41 690 l 1
 157 690 l 1
 157 313 l 1
 283 528 l 1
 404 528 l 1
 269 321 l 1
 409 0 l 1
 281 0 l 1
 197 210 l 1
EndSplineSet
EndChar

StartChar: l
Encoding: 108 108 78
Width: 240
GlyphClass: 2
Flags: W
LayerCount: 2
Fore
SplineSet
41 164 m 2
 41 690 l 1
 157 690 l 1
 157 171 l 2
 157 126.333007812 178.333007812 104 221 104 c 2
 226 104 l 1
 226 0 l 1
 220 0 l 2
 100.666992188 0 41 54.6669921875 41 164 c 2
EndSplineSet
EndChar

StartChar: m
Encoding: 109 109 79
Width: 622
GlyphClass: 2
Flags: W
LayerCount: 2
Fore
SplineSet
41 528 m 1
 152.000976562 528.000976562 l 1
 152.000976562 489.000976562 l 1
 176.000976562 520.333984375 205.66796875 536.000976562 241.000976562 536.000976562 c 0
 262.333984375 536.000976562 282.000976562 531.16796875 300.000976562 521.500976562 c 0
 318.000976562 511.833984375 332.66796875 498.333984375 344.000976562 481.000976562 c 1
 357.334960938 497.000976562 373.16796875 510.16796875 391.500976562 520.500976562 c 0
 409.834960938 530.833984375 428.66796875 536.000976562 448.000976562 536.000976562 c 0
 496.000976562 536.000976562 530.16796875 522.66796875 550.500976562 496.000976562 c 0
 570.833984375 469.333984375 581.000976562 429.666992188 581.000976562 377 c 2
 581.000976562 0 l 1
 465.000976562 0 l 1
 465.000976562 376 l 2
 465.000976562 394 460.500976562 407.833007812 451.500976562 417.5 c 0
 442.500976562 427.166992188 431.000976562 432 417.000976562 432 c 0
 403.000976562 432 391.500976562 427.166992188 382.500976562 417.5 c 0
 373.500976562 407.833007812 369.000976562 394 369.000976562 376 c 2
 369.000976562 0 l 1
 253.000976562 0 l 1
 253.000976562 376 l 2
 253.000976562 394 248.500976562 407.833007812 239.500976562 417.5 c 0
 230.500976562 427.166992188 219.000976562 432 205.000976562 432 c 0
 190.333984375 432 178.666992188 427.166992188 170 417.5 c 0
 161.333007812 407.833007812 157 394 157 376 c 2
 157 0 l 1
 41 0 l 1
 41 528 l 1
EndSplineSet
EndChar

StartChar: n
Encoding: 110 110 80
Width: 410
GlyphClass: 2
Flags: W
LayerCount: 2
Fore
SplineSet
41 528 m 1
 152.000976562 528 l 1
 152.000976562 489 l 1
 176.66796875 520.333007812 206.000976562 536 240.000976562 536 c 0
 326.000976562 536 369.000976562 483 369.000976562 377 c 2
 369.000976562 0 l 1
 253.000976562 0 l 1
 253.000976562 376 l 2
 253.000976562 394 248.500976562 407.833007812 239.500976562 417.5 c 0
 230.500976562 427.166992188 219.000976562 432 205.000976562 432 c 0
 190.333984375 432 178.666992188 427.166992188 170 417.5 c 0
 161.333007812 407.833007812 157 394 157 376 c 2
 157 0 l 1
 41 0 l 1
 41 528 l 1
EndSplineSet
EndChar

StartChar: o
Encoding: 111 111 81
Width: 411
GlyphClass: 2
Flags: W
LayerCount: 2
Fore
SplineSet
81 37 m 0
 52.3330078125 67 38 115.666992188 38 183 c 2
 38 345 l 2
 38 412.333007812 52.3330078125 461 81 491 c 0
 109.666992188 521 151.333984375 536 206.000976562 536 c 0
 260.66796875 536 302.16796875 521 330.500976562 491 c 0
 358.833984375 461 373.000976562 412.333007812 373.000976562 345 c 2
 373.000976562 183 l 2
 373.000976562 115.666992188 358.833984375 67 330.500976562 37 c 0
 302.16796875 7 260.66796875 -8 206.000976562 -8 c 0
 151.333984375 -8 109.666992188 7 81 37 c 0
244 116.5 m 0
 252.666992188 130.166992188 257.000976562 152 257.000976562 182 c 2
 257.000976562 346 l 2
 257.000976562 376 252.66796875 397.833007812 244.000976562 411.5 c 0
 235.333984375 425.166992188 222.333984375 432 205.000976562 432 c 0
 188.333984375 432 175.666992188 425.166992188 167 411.5 c 0
 158.333007812 397.833007812 154 376 154 346 c 2
 154 182 l 2
 154 152 158.333007812 130.166992188 167 116.5 c 0
 175.666992188 102.833007812 188.333984375 96 205 96 c 0
 222.333007812 96 235.333007812 102.833007812 244 116.5 c 0
EndSplineSet
EndChar

StartChar: p
Encoding: 112 112 82
Width: 410
GlyphClass: 2
Flags: W
LayerCount: 2
Fore
SplineSet
41 528 m 1
 152.999023438 527.998046875 l 1
 152.999023438 485.998046875 l 1
 175.666015625 519.331054688 206.666015625 535.998046875 245.999023438 535.998046875 c 0
 284.666015625 535.998046875 315.333007812 522.331054688 338 494.998046875 c 0
 360.666992188 467.665039062 372 424.33203125 372 364.999023438 c 2
 372 162.999023438 l 2
 372 103.666015625 360.166992188 60.3330078125 336.5 33 c 0
 312.833007812 5.6669921875 282 -8 244 -8 c 0
 208.666992188 -8 179.666992188 5.3330078125 157 32 c 1
 157 -158 l 1
 41 -158 l 1
 41 528 l 1
243.499023438 115.998046875 m 0
 251.83203125 129.331054688 256 151.331054688 256 181.998046875 c 2
 256 345.998046875 l 2
 256 375.998046875 251.833007812 397.831054688 243.5 411.498046875 c 0
 235.166992188 425.165039062 222.666992188 431.998046875 206 431.998046875 c 0
 189.333007812 431.998046875 176.666015625 425.165039062 167.999023438 411.498046875 c 0
 159.33203125 397.831054688 154.999023438 375.998046875 154.999023438 345.998046875 c 2
 154.999023438 181.998046875 l 2
 154.999023438 124.665039062 171.999023438 95.998046875 205.999023438 95.998046875 c 0
 222.666015625 95.998046875 235.166015625 102.665039062 243.499023438 115.998046875 c 0
EndSplineSet
EndChar

StartChar: q
Encoding: 113 113 83
Width: 410
GlyphClass: 2
Flags: W
LayerCount: 2
Fore
SplineSet
254 32 m 1
 231.333007812 5.3330078125 202.333984375 -7.998046875 167.000976562 -7.998046875 c 0
 128.333984375 -7.998046875 97.1669921875 5.6689453125 73.5 33.001953125 c 0
 49.8330078125 60.3349609375 38 103.66796875 38 163.000976562 c 2
 38 365.000976562 l 2
 38 424.333984375 49.5 467.666992188 72.5 495 c 0
 95.5 522.333007812 126.333007812 536 165 536 c 0
 203 536 234 519.333007812 258 486 c 1
 258 528 l 1
 369 528 l 1
 369 -158 l 1
 254 -158 l 1
 254 32 l 1
256.000976562 182.001953125 m 2
 256.001953125 346.001953125 l 2
 256.001953125 376.001953125 251.668945312 397.834960938 243.001953125 411.501953125 c 0
 234.334960938 425.168945312 221.334960938 432.001953125 204.001953125 432.001953125 c 0
 187.334960938 432.001953125 174.834960938 425.168945312 166.501953125 411.501953125 c 0
 158.168945312 397.834960938 154.001953125 376.001953125 154.001953125 346.001953125 c 2
 154.001953125 182.001953125 l 2
 154.001953125 151.334960938 158.168945312 129.334960938 166.501953125 116.001953125 c 0
 174.834960938 102.668945312 187.66796875 96.001953125 205.000976562 96.001953125 c 0
 239.000976562 96.001953125 256.000976562 124.668945312 256.000976562 182.001953125 c 2
EndSplineSet
EndChar

StartChar: r
Encoding: 114 114 84
Width: 306
GlyphClass: 2
Flags: W
LayerCount: 2
Fore
SplineSet
41 528 m 1
 152 528 l 1
 152 479 l 1
 165.333007812 500.333007812 180.5 515.5 197.5 524.5 c 0
 214.5 533.5 234 538 256 538 c 0
 269.333007812 538 281.333007812 536.666992188 292 534 c 1
 292 412 l 1
 274 418.666992188 256.333007812 422 239 422 c 0
 214.333007812 422 194.5 414.166992188 179.5 398.5 c 0
 164.5 382.833007812 157 360.666015625 157 332 c 2
 157 0 l 1
 41 0 l 1
 41 528 l 1
EndSplineSet
EndChar

StartChar: s
Encoding: 115 115 85
Width: 392
GlyphClass: 2
Flags: W
LayerCount: 2
Fore
SplineSet
75 34.5 m 0
 45 62.8330078125 29.998046875 101.999023438 29.998046875 151.999023438 c 2
 29.998046875 157.999023438 l 1
 141.998046875 157.999023438 l 1
 141.998046875 151.999023438 l 2
 141.998046875 131.999023438 146.998046875 116.499023438 156.998046875 105.499023438 c 0
 166.998046875 94.4990234375 180.998046875 88.9990234375 198.998046875 88.9990234375 c 0
 216.331054688 88.9990234375 229.498046875 93.83203125 238.498046875 103.499023438 c 0
 247.498046875 113.166015625 251.998046875 127.333007812 251.998046875 146 c 0
 251.998046875 160 247.831054688 172.166992188 239.498046875 182.5 c 0
 231.165039062 192.833007812 217.998046875 202 199.998046875 210 c 2
 139.998046875 236 l 2
 99.3310546875 253.333007812 71.3310546875 273.666015625 55.998046875 296.999023438 c 0
 40.6650390625 320.333007812 32.998046875 349.666015625 32.998046875 384.999023438 c 0
 32.998046875 428.33203125 47.998046875 464.33203125 77.998046875 492.999023438 c 0
 107.998046875 521.666015625 147.331054688 535.999023438 195.998046875 535.999023438 c 0
 244.665039062 535.999023438 283.998046875 521.666015625 313.998046875 492.999023438 c 0
 343.998046875 464.33203125 358.998046875 426.999023438 358.998046875 380.999023438 c 2
 358.998046875 370.999023438 l 1
 246.998046875 370.999023438 l 1
 246.998046875 376.999023438 l 2
 246.998046875 397.666015625 242.331054688 413.333007812 232.998046875 424 c 0
 223.665039062 434.666992188 210.998046875 440 194.998046875 440 c 0
 179.665039062 440 167.498046875 435.666992188 158.498046875 427 c 0
 149.498046875 418.333007812 144.998046875 406 144.998046875 390 c 0
 144.998046875 376 148.331054688 364.333007812 154.998046875 355 c 0
 161.665039062 345.666992188 174.33203125 337 192.999023438 329 c 2
 257.999023438 301 l 2
 295.999023438 284.333007812 323.33203125 264.166015625 339.999023438 240.5 c 0
 356.666015625 216.833007812 364.999023438 186 364.999023438 148 c 0
 364.999023438 102 349.83203125 64.5 319.499023438 35.5 c 0
 289.166015625 6.5 248.333007812 -8 197 -8 c 0
 145.666992188 -8 105 6.1669921875 75 34.5 c 0
EndSplineSet
EndChar

StartChar: t
Encoding: 116 116 86
Width: 302
GlyphClass: 2
Flags: W
LayerCount: 2
Fore
SplineSet
194 447 m 1
 194 171 l 2
 194 126.333007812 216.333007812 104 261 104 c 2
 265 104 l 1
 265 0 l 1
 261 0 l 2
 201 0 155.5 13.1669921875 124.5 39.5 c 0
 93.5 65.8330078125 78 107.333007812 78 164 c 2
 78 447 l 1
 19 447 l 1
 19 528 l 1
 78 528 l 1
 78 621 l 1
 194 668 l 1
 194 528 l 1
 278 528 l 1
 278 447 l 1
 194 447 l 1
EndSplineSet
EndChar

StartChar: u
Encoding: 117 117 87
Width: 410
GlyphClass: 2
Flags: W
LayerCount: 2
Fore
SplineSet
75.5 38.5 m 0
 52.5 69.5 40.9990234375 115.666992188 40.9990234375 177 c 2
 40.9990234375 528 l 1
 156.999023438 528 l 1
 156.999023438 201 l 2
 156.999023438 173.666015625 157.83203125 153.333007812 159.499023438 140 c 0
 161.166015625 126.666992188 165.333007812 116 171.999023438 108 c 0
 178.666015625 100 189.666015625 96 204.999023438 96 c 0
 220.33203125 96 231.33203125 99.5 237.999023438 106.5 c 0
 244.666992188 113.5 248.833984375 123.666992188 250.5 137 c 0
 252.166992188 150.333007812 253 171.666015625 253 200.999023438 c 2
 253 527.999023438 l 1
 369 527.999023438 l 1
 369 176.999023438 l 2
 369 134.999023438 364.333007812 100.83203125 355 74.4990234375 c 0
 345.666992188 48.166015625 329.166992188 27.8330078125 305.5 13.5 c 0
 281.833007812 -0.8330078125 248.333007812 -8 205 -8 c 0
 141.666992188 -8 98.5 7.5 75.5 38.5 c 0
EndSplineSet
EndChar

StartChar: v
Encoding: 118 118 88
Width: 409
GlyphClass: 2
Flags: W
LayerCount: 2
Fore
SplineSet
11 528 m 1
 139 528 l 1
 205 185 l 1
 270 528 l 1
 398 528 l 1
 266 0 l 1
 143 0 l 1
 11 528 l 1
EndSplineSet
EndChar

StartChar: w
Encoding: 119 119 89
Width: 609
GlyphClass: 2
Flags: W
LayerCount: 2
Fore
SplineSet
11 528 m 1
 139 528 l 1
 192 185 l 1
 256 528 l 1
 352 528 l 1
 416 185 l 1
 469 528 l 1
 598 528 l 1
 477 0 l 1
 364 0 l 1
 304 323 l 1
 243 0 l 1
 131 0 l 1
 11 528 l 1
EndSplineSet
EndChar

StartChar: x
Encoding: 120 120 90
Width: 380
GlyphClass: 2
Flags: W
LayerCount: 2
Fore
SplineSet
251 0 m 1
 186 148 l 1
 130 0 l 1
 11 0 l 1
 130 274 l 1
 18 528 l 1
 136 528 l 1
 195 395 l 1
 244 528 l 1
 363 528 l 1
 247 276 l 1
 369 0 l 1
 251 0 l 1
EndSplineSet
EndChar

StartChar: y
Encoding: 121 121 91
Width: 409
GlyphClass: 2
Flags: W
LayerCount: 2
Fore
SplineSet
398 528 m 1
 255 -38.0009765625 l 2
 247 -70.66796875 234.5 -95.66796875 217.5 -113.000976562 c 0
 200.5 -130.333984375 179 -142.166992188 153 -148.5 c 0
 127 -154.833007812 93.6669921875 -158 53 -158 c 2
 49 -158 l 1
 49 -56 l 1
 91 -56 l 2
 125.666992188 -56 148 -47 158 -29 c 1
 11 528 l 1
 139 528 l 1
 210 207 l 1
 276 528 l 1
 398 528 l 1
EndSplineSet
EndChar

StartChar: z
Encoding: 122 122 92
Width: 384
GlyphClass: 2
Flags: W
LayerCount: 2
Fore
SplineSet
346 430 m 1
 157 98 l 1
 346 98 l 1
 346 0 l 1
 38 0 l 1
 38 98 l 1
 230 430 l 1
 38 430 l 1
 38 528 l 1
 346 528 l 1
 346 430 l 1
EndSplineSet
EndChar

StartChar: braceleft
Encoding: 123 123 93
Width: 319
GlyphClass: 2
Flags: W
LayerCount: 2
Fore
SplineSet
135 -52 m 0
 114.333007812 -30.6669921875 104 -0.0009765625 104 39.9990234375 c 2
 104 206.999023438 l 2
 104 232.999023438 99.3330078125 251.499023438 90 262.499023438 c 0
 80.6669921875 273.499023438 63.333984375 278.999023438 38.0009765625 278.999023438 c 1
 38.0009765625 381.999023438 l 1
 63.333984375 381.999023438 80.6669921875 387.499023438 90 398.499023438 c 0
 99.3330078125 409.499023438 104 428.33203125 104 454.999023438 c 2
 104 615.999023438 l 2
 104 655.999023438 114.333007812 686.666015625 135 707.999023438 c 0
 155.666992188 729.33203125 185.666992188 739.999023438 225 739.999023438 c 2
 281 739.999023438 l 1
 281 636.999023438 l 1
 261 636.999023438 l 2
 247 636.999023438 236.5 632.999023438 229.5 624.999023438 c 0
 222.5 616.999023438 219 605.666015625 219 590.999023438 c 2
 219 463.999023438 l 2
 219 421.33203125 215.166992188 390.83203125 207.5 372.499023438 c 0
 199.833007812 354.166015625 183.333007812 340.333007812 158 331 c 1
 183.333007812 321 199.833007812 306.666992188 207.5 288 c 0
 215.166992188 269.333007812 219 239 219 197 c 2
 219 65 l 2
 219 50.3330078125 222.5 39 229.5 31 c 0
 236.5 23 247 19 261 19 c 2
 281 19 l 1
 281 -84 l 1
 225 -84 l 2
 185.666992188 -84 155.666992188 -73.3330078125 135 -52 c 0
EndSplineSet
Substitution2: "'rtla' Right to Left Alternates lookup 0 subtable" braceright
EndChar

StartChar: bar
Encoding: 124 124 94
Width: 264
GlyphClass: 2
Flags: W
LayerCount: 2
Fore
SplineSet
76 740 m 1
 188 740 l 1
 188 -84 l 1
 76 -84 l 1
 76 740 l 1
EndSplineSet
EndChar

StartChar: braceright
Encoding: 125 125 95
Width: 319
GlyphClass: 2
Flags: W
LayerCount: 2
Fore
SplineSet
38 19 m 1
 58.0009765625 19 l 2
 72.0009765625 19 82.5009765625 23 89.5009765625 31 c 0
 96.5009765625 39 100.000976562 50.3330078125 100.000976562 65 c 2
 100.000976562 197 l 2
 100.000976562 239 104.000976562 269.333007812 112.000976562 288 c 0
 120.000976562 306.666992188 136.333984375 321 161.000976562 331 c 1
 135.66796875 340.334960938 119.16796875 354.16796875 111.500976562 372.5 c 0
 103.833984375 390.833007812 100.000976562 421.333007812 100.000976562 464 c 2
 100.000976562 591 l 2
 100.000976562 605.666992188 96.5009765625 617 89.5009765625 625 c 0
 82.5009765625 633 72.0009765625 637 58.0009765625 637 c 2
 38.0009765625 637 l 1
 38.0009765625 740 l 1
 95.0009765625 740 l 2
 134.333984375 740 164.166992188 729.333007812 184.5 708 c 0
 204.833007812 686.666992188 215 656 215 616 c 2
 215 455 l 2
 215 428.333007812 219.666992188 409.5 229 398.5 c 0
 238.333007812 387.5 255.666015625 382 280.999023438 382 c 1
 280.999023438 279 l 1
 255.665039062 279 238.33203125 273.5 228.999023438 262.5 c 0
 219.666015625 251.5 214.999023438 233 214.999023438 207 c 2
 214.999023438 40 l 2
 214.999023438 0 204.83203125 -30.6669921875 184.499023438 -52 c 0
 164.166015625 -73.3330078125 134.333007812 -84 95 -84 c 2
 38 -84 l 1
 38 19 l 1
EndSplineSet
Substitution2: "'rtla' Right to Left Alternates lookup 0 subtable" braceleft
EndChar

StartChar: asciitilde
Encoding: 126 126 96
Width: 419
GlyphClass: 2
Flags: W
LayerCount: 2
Fore
SplineSet
25 238 m 1
 41.6669921875 272.666992188 59.1689453125 297.665039062 77.501953125 312.998046875 c 0
 95.8349609375 328.331054688 117.001953125 335.998046875 141.001953125 335.998046875 c 0
 154.334960938 335.998046875 166.66796875 333.665039062 178.000976562 328.998046875 c 0
 189.333984375 324.330078125 202.000976562 317.663085938 216.000976562 308.998046875 c 0
 224.000976562 304.329101562 232.000976562 300.162109375 240.000976562 296.498046875 c 0
 248.000976562 292.831054688 255.000976562 290.998046875 261.000976562 290.998046875 c 0
 271.66796875 290.998046875 280.500976562 294.331054688 287.500976562 300.998046875 c 0
 294.500976562 307.665039062 303.66796875 321.33203125 315.000976562 341.999023438 c 1
 386.000976562 299.999023438 l 1
 370.000976562 265.33203125 352.833984375 240.33203125 334.500976562 224.999023438 c 0
 316.16796875 209.666015625 294.66796875 201.999023438 270.000976562 201.999023438 c 0
 257.333984375 201.999023438 245.000976562 204.33203125 233.000976562 208.999023438 c 0
 221.000976562 213.666015625 208.333984375 220.333007812 195.000976562 228.999023438 c 0
 193.000976562 230.33203125 188.833984375 232.83203125 182.500976562 236.499023438 c 0
 176.166992188 240.16796875 170.333984375 242.834960938 165.000976562 244.5 c 0
 159.66796875 246.166992188 155.000976562 247 151.000976562 247 c 0
 141.000976562 247 132.16796875 243.666992188 124.500976562 237 c 0
 116.833984375 230.333007812 107.666992188 217 97 197 c 1
 25 238 l 1
EndSplineSet
EndChar

StartChar: exclamdown
Encoding: 161 161 98
Width: 208
GlyphClass: 2
Flags: W
LayerCount: 2
Fore
SplineSet
46 528 m 1
 162 528 l 1
 162 397 l 1
 46 397 l 1
 46 528 l 1
65 307 m 1
 143 307 l 1
 167 -158 l 1
 41 -158 l 1
 65 307 l 1
EndSplineSet
EndChar

StartChar: cent
Encoding: 162 162 99
Width: 443
GlyphClass: 2
Flags: W
LayerCount: 2
Fore
SplineSet
257 344 m 1
 257 362.000976562 l 2
 257 385.333984375 252.5 402.833984375 243.5 414.500976562 c 0
 234.5 426.16796875 222 432.000976562 206 432.000976562 c 0
 188.666992188 432.000976562 175.666992188 425.16796875 167 411.500976562 c 0
 158.333007812 397.833984375 154 376.000976562 154 346.000976562 c 2
 154 182.000976562 l 2
 154 152.000976562 158.333007812 130.16796875 167 116.500976562 c 0
 175.666992188 102.833984375 188.333984375 96.0009765625 205 96.0009765625 c 0
 221.666992188 96.0009765625 234.5 101.833984375 243.5 113.500976562 c 0
 252.5 125.16796875 257 143.000976562 257 167.000976562 c 2
 257 184.000976562 l 1
 369 184.000976562 l 1
 369 167.000976562 l 2
 369 118.333984375 359.333007812 79.833984375 340 51.5009765625 c 0
 320.666992188 23.16796875 292.666992188 5.0009765625 256 -2.9990234375 c 1
 256 -99.9990234375 l 1
 197 -99.9990234375 l 1
 197 -7.9990234375 l 1
 145 -6.666015625 105.5 9.0009765625 78.5 39.0009765625 c 0
 51.5 69.0009765625 38 117.000976562 38 183.000976562 c 2
 38 345.000976562 l 2
 38 411.000976562 51.5 459.000976562 78.5 489.000976562 c 0
 105.5 519.000976562 145 534.66796875 197 536.000976562 c 1
 197 635.000976562 l 1
 256 635.000976562 l 1
 256 531.000976562 l 1
 331.333007812 514.333984375 369 458.666992188 369 364 c 2
 369 344 l 1
 257 344 l 1
EndSplineSet
EndChar

StartChar: sterling
Encoding: 163 163 100
Width: 420
GlyphClass: 2
Flags: W
LayerCount: 2
Fore
SplineSet
195 148.5 m 0
 189.666992188 134.166992188 181.000976562 121.668945312 169.000976562 111.001953125 c 1
 393.000976562 111.001953125 l 1
 393.000976562 0.001953125 l 1
 36.0009765625 0.001953125 l 1
 36.0009765625 113.001953125 l 1
 54.0009765625 119.668945312 65.833984375 129.501953125 71.5009765625 142.501953125 c 0
 77.16796875 155.501953125 80.0009765625 175.668945312 80.0009765625 203.001953125 c 2
 80.0009765625 289.001953125 l 1
 19.0009765625 289.001953125 l 1
 19.0009765625 400.001953125 l 1
 80.0009765625 400.001953125 l 1
 80.0009765625 539.001953125 l 2
 80.0009765625 590.334960938 93.333984375 630.001953125 120.000976562 658.001953125 c 0
 146.66796875 686.001953125 187.000976562 700.001953125 241.000976562 700.001953125 c 0
 295.000976562 700.001953125 335.16796875 685.668945312 361.500976562 657.001953125 c 0
 387.833984375 628.334960938 401.000976562 587.66796875 401.000976562 535.000976562 c 1
 284.000976562 535.000976562 l 1
 284.000976562 559.66796875 281.000976562 577.000976562 275.000976562 587.000976562 c 0
 269.000976562 597.000976562 259.000976562 602.000976562 245.000976562 602.000976562 c 0
 230.333984375 602.000976562 219.666992188 597.66796875 213 589.000976562 c 0
 206.333007812 580.333984375 203 566.666992188 203 548 c 2
 203 400 l 1
 323 400 l 1
 323 289 l 1
 203 289 l 1
 203 201 l 2
 203 180.333007812 200.333007812 162.833007812 195 148.5 c 0
EndSplineSet
EndChar

StartChar: currency
Encoding: 164 164 101
Width: 571
GlyphClass: 2
Flags: W
LayerCount: 2
Fore
SplineSet
389 134 m 1
 357 116 322.333007812 107 285 107 c 0
 246.333007812 107 211.666015625 116 180.999023438 134 c 1
 114.999023438 69 l 1
 40.9990234375 144 l 1
 105.999023438 210 l 1
 89.33203125 240 80.9990234375 273.666992188 80.9990234375 311 c 0
 80.9990234375 347 89.666015625 380.666992188 106.999023438 412 c 1
 40.9990234375 479 l 1
 115.999023438 554 l 1
 180.999023438 488 l 1
 213.666015625 506 248.333007812 515 285 515 c 0
 321.666992188 515 356 506 388 488 c 1
 455 554 l 1
 529 479 l 1
 463 413 l 1
 481 381 490 347 490 311 c 0
 490 275 481.333007812 241.333007812 464 210 c 1
 530 143 l 1
 455 68 l 1
 389 134 l 1
355 239 m 0
 373.666992188 258.333007812 383 282.333007812 383 311 c 0
 383 339.666992188 373.666992188 363.666992188 355 383 c 0
 336.333007812 402.333007812 313 412 285 412 c 0
 257 412 233.833007812 402.333007812 215.5 383 c 0
 197.166992188 363.666992188 188 339.666992188 188 311 c 0
 188 282.333007812 197.166992188 258.333007812 215.5 239 c 0
 233.833007812 219.666992188 257 210 285 210 c 0
 313 210 336.333007812 219.666992188 355 239 c 0
EndSplineSet
EndChar

StartChar: yen
Encoding: 165 165 102
Width: 409
GlyphClass: 2
Flags: W
LayerCount: 2
Fore
SplineSet
143 110 m 1
 40 110 l 1
 40 195 l 1
 143 195 l 1
 143 248 l 1
 40 248 l 1
 40 333 l 1
 131 333 l 1
 5 690 l 1
 135 690 l 1
 207 423 l 1
 276 690 l 1
 404 690 l 1
 278 333 l 1
 369 333 l 1
 369 248 l 1
 266 248 l 1
 266 195 l 1
 369 195 l 1
 369 110 l 1
 266 110 l 1
 266 0 l 1
 143 0 l 1
 143 110 l 1
EndSplineSet
EndChar

StartChar: brokenbar
Encoding: 166 166 103
Width: 264
GlyphClass: 2
Flags: W
LayerCount: 2
Fore
SplineSet
76 740 m 1
 188 740 l 1
 188 388 l 1
 76 388 l 1
 76 740 l 1
76 268 m 1
 188 268 l 1
 188 -84 l 1
 76 -84 l 1
 76 268 l 1
EndSplineSet
EndChar

StartChar: section
Encoding: 167 167 104
Width: 409
GlyphClass: 2
Flags: W
LayerCount: 2
Fore
SplineSet
88 -126.5 m 0
 66 -98.8330078125 54.9990234375 -55.33203125 54.9990234375 4.0009765625 c 1
 159.999023438 4.0009765625 l 1
 159.999023438 -25.33203125 162.499023438 -45.9990234375 167.499023438 -57.9990234375 c 0
 172.499023438 -69.9990234375 183.999023438 -75.9990234375 201.999023438 -75.9990234375 c 0
 218.666015625 -75.9990234375 229.999023438 -70.666015625 235.999023438 -59.9990234375 c 0
 241.999023438 -49.33203125 244.999023438 -34.33203125 244.999023438 -14.9990234375 c 0
 244.999023438 6.333984375 242.33203125 23.0009765625 236.999023438 35.0009765625 c 0
 231.666015625 47.0009765625 222.999023438 56.66796875 210.999023438 64.0009765625 c 0
 198.999023438 71.333984375 180.666015625 79.6669921875 155.999023438 89 c 0
 113.33203125 104.333007812 83.6650390625 126.166015625 66.998046875 154.499023438 c 0
 50.3310546875 182.83203125 41.998046875 222.33203125 41.998046875 272.999023438 c 0
 41.998046875 311.666015625 47.8310546875 343.166015625 59.498046875 367.499023438 c 0
 71.1650390625 391.83203125 91.33203125 409.999023438 119.999023438 421.999023438 c 1
 95.33203125 431.999023438 78.33203125 448.499023438 68.9990234375 471.499023438 c 0
 59.666015625 494.499023438 54.9990234375 522.666015625 54.9990234375 555.999023438 c 0
 54.9990234375 607.33203125 67.83203125 645.83203125 93.4990234375 671.499023438 c 0
 119.166015625 697.166015625 156.333007812 709.999023438 205 709.999023438 c 0
 259.666992188 709.999023438 297.666992188 696.33203125 319 668.999023438 c 0
 340.333007812 641.666015625 351 598.666015625 351 539.999023438 c 1
 246 539.999023438 l 1
 246 568.66796875 243.833007812 588.834960938 239.5 600.499023438 c 0
 235.166992188 612.166015625 224 617.999023438 206 617.999023438 c 0
 190 617.999023438 179.5 612.666015625 174.5 601.999023438 c 0
 169.5 591.33203125 167 575.999023438 167 555.999023438 c 0
 167 535.999023438 169.666992188 520.33203125 175 508.999023438 c 0
 180.333007812 497.666015625 188.833007812 488.166015625 200.5 480.499023438 c 0
 212.166992188 472.83203125 229.666992188 464.999023438 253 456.999023438 c 0
 296.333984375 441.666015625 326.166992188 419.999023438 342.5 391.999023438 c 0
 358.833007812 363.999023438 367 324.33203125 367 272.999023438 c 0
 367 233.666015625 361.166992188 201.999023438 349.5 177.999023438 c 0
 337.833007812 153.999023438 317.666015625 136.33203125 289 124.999023438 c 1
 314.333007812 113.666015625 331.833007812 96.8330078125 341.5 74.5 c 0
 351.166992188 52.1669921875 356 23.6669921875 356 -11 c 0
 356 -115.666992188 305 -168 203 -168 c 0
 148.333007812 -168 110 -154.166992188 88 -126.5 c 0
246.999023438 201.000976562 m 0
 253.666015625 216.333984375 256.999023438 240.333984375 256.999023438 273.000976562 c 0
 256.999023438 306.333984375 253.666015625 330.500976562 246.999023438 345.500976562 c 0
 240.33203125 360.500976562 225.999023438 368.000976562 203.999023438 368.000976562 c 0
 181.999023438 368.000976562 167.83203125 360.333984375 161.499023438 345.000976562 c 0
 155.166015625 329.66796875 151.999023438 305.66796875 151.999023438 273.000976562 c 0
 151.999023438 240.333984375 155.33203125 216.333984375 161.999023438 201.000976562 c 0
 168.666015625 185.66796875 182.666015625 178.000976562 203.999023438 178.000976562 c 0
 225.999023438 178.000976562 240.33203125 185.66796875 246.999023438 201.000976562 c 0
180.999023438 704.000976562 m 1024
EndSplineSet
EndChar

StartChar: dieresis
Encoding: 168 168 105
Width: 500
GlyphClass: 2
Flags: W
LayerCount: 2
Fore
SplineSet
125 705 m 1
 218 705 l 1
 218 591 l 1
 125 591 l 1
 125 705 l 1
281 705 m 1
 374 705 l 1
 374 591 l 1
 281 591 l 1
 281 705 l 1
EndSplineSet
EndChar

StartChar: copyright
Encoding: 169 169 106
Width: 703
GlyphClass: 2
Flags: W
LayerCount: 2
Fore
SplineSet
120 87 m 0
 65.3330078125 149 38 234.333007812 38 343 c 0
 38 453 65.3330078125 538.666992188 120 600 c 0
 174.666992188 661.333007812 252 692 352 692 c 0
 452 692 529.166992188 661 583.5 599 c 0
 637.833007812 537 665 451.666992188 665 343 c 0
 665 234.333007812 637.666992188 149 583 87 c 0
 528.333007812 25 451.333007812 -6 352 -6 c 0
 252 -6 174.666992188 25 120 87 c 0
529.5 135.5 m 0
 569.166992188 184.5 588.999023438 253.666992188 588.999023438 343 c 0
 588.999023438 433 568.999023438 502.333007812 528.999023438 551 c 0
 488.999023438 599.666992188 429.999023438 624 351.999023438 624 c 0
 273.33203125 624 213.999023438 599.5 173.999023438 550.5 c 0
 133.999023438 501.5 113.999023438 432.333007812 113.999023438 343 c 0
 113.999023438 253 133.999023438 183.666992188 173.999023438 135 c 0
 213.999023438 86.3330078125 273.33203125 62 351.999023438 62 c 0
 430.666015625 62 489.833007812 86.5 529.5 135.5 c 0
263.499023438 181.5 m 0
 243.166015625 203.166992188 232.998046875 237.999023438 232.998046875 285.999023438 c 2
 232.998046875 401.999023438 l 2
 232.998046875 449.999023438 243.165039062 484.666015625 263.498046875 505.999023438 c 0
 283.83203125 527.33203125 313.665039062 537.999023438 352.998046875 537.999023438 c 0
 430.998046875 537.999023438 469.998046875 497.33203125 469.998046875 415.999023438 c 2
 469.998046875 401.999023438 l 1
 389.998046875 401.999023438 l 1
 389.998046875 413.999023438 l 2
 389.998046875 430.666015625 386.665039062 443.333007812 379.998046875 452 c 0
 373.331054688 460.666992188 364.331054688 465 352.998046875 465 c 0
 328.331054688 465 315.998046875 444.333007812 315.998046875 403 c 2
 315.998046875 285 l 2
 315.998046875 263 318.998046875 247.166992188 324.998046875 237.5 c 0
 330.998046875 227.833007812 340.331054688 223 352.998046875 223 c 0
 377.665039062 223 389.998046875 240.333007812 389.998046875 275 c 2
 389.998046875 287 l 1
 469.998046875 287 l 1
 469.998046875 275 l 2
 469.998046875 233 459.998046875 201.5 439.998046875 180.5 c 0
 419.998046875 159.5 390.998046875 149 352.998046875 149 c 0
 313.665039062 149 283.83203125 159.833007812 263.499023438 181.5 c 0
EndSplineSet
EndChar

StartChar: ordfeminine
Encoding: 170 170 107
Width: 307
GlyphClass: 2
Flags: W
LayerCount: 2
Fore
SplineSet
230.5 718 m 0
 249.5 699.333007812 259.000976562 674.666992188 259.000976562 644 c 2
 259.000976562 430 l 1
 187.000976562 430 l 1
 187.000976562 455 l 1
 177.66796875 445 168.66796875 437.5 160.000976562 432.5 c 0
 151.333984375 427.5 140.000976562 425 126.000976562 425 c 0
 96.66796875 425 74.5009765625 433.5 59.5009765625 450.5 c 0
 44.5009765625 467.5 37.0009765625 491.666992188 37.0009765625 523 c 0
 37.0009765625 553 47.0009765625 576 67.0009765625 592 c 0
 87.0009765625 608 115.66796875 616 153.000976562 616 c 2
 183.000976562 616 l 1
 183.000976562 648 l 2
 183.000976562 667.333007812 172.000976562 677 150.000976562 677 c 0
 140.000976562 677 132.000976562 674.666992188 126.000976562 670 c 0
 120.000976562 665.333007812 117.000976562 659 117.000976562 651 c 2
 117.000976562 648 l 1
 46.0009765625 648 l 1
 46.0009765625 650 l 2
 46.0009765625 682 55.66796875 706 75.0009765625 722 c 0
 94.333984375 738 119.666992188 746 151 746 c 0
 185 746 211.5 736.666992188 230.5 718 c 0
173.000976562 502.500976562 m 0
 179.66796875 508.16796875 183.000976562 515.66796875 183.000976562 525.000976562 c 2
 183.000976562 561.000976562 l 1
 162.000976562 561.000976562 l 2
 130.000976562 561.000976562 114.000976562 549.333984375 114.000976562 526.000976562 c 0
 114.000976562 516.66796875 117.000976562 509.000976562 123.000976562 503.000976562 c 0
 129.000976562 497.000976562 137.333984375 494.000976562 148.000976562 494.000976562 c 0
 158.000976562 494.000976562 166.333984375 496.833984375 173.000976562 502.500976562 c 0
140.000976562 847.000976562 m 1024
EndSplineSet
EndChar

StartChar: guillemotleft
Encoding: 171 171 108
Width: 442
GlyphClass: 2
Flags: W
LayerCount: 2
Fore
SplineSet
14 264 m 1
 208 462 l 1
 208 352 l 1
 122 264 l 1
 208 176 l 1
 208 66 l 1
 14 264 l 1
207 264 m 1
 401 462 l 1
 401 352 l 1
 314 264 l 1
 401 176 l 1
 401 66 l 1
 207 264 l 1
EndSplineSet
EndChar

StartChar: logicalnot
Encoding: 172 172 109
Width: 419
GlyphClass: 2
Flags: W
LayerCount: 2
Fore
SplineSet
267 256 m 1
 35 256 l 1
 35 360 l 1
 383 360 l 1
 383 155 l 1
 267 155 l 1
 267 256 l 1
EndSplineSet
EndChar

StartChar: uni00AD
Encoding: 173 173 110
Width: 351
GlyphClass: 2
Flags: W
LayerCount: 2
Fore
SplineSet
38 401 m 1
 313 401 l 1
 313 291 l 1
 38 291 l 1
 38 401 l 1
EndSplineSet
EndChar

StartChar: registered
Encoding: 174 174 111
Width: 428
GlyphClass: 2
Flags: W
LayerCount: 2
Fore
SplineSet
86.5 365.5 m 0
 56.8330078125 399.166992188 42.001953125 445.66796875 42.001953125 505.000976562 c 0
 42.001953125 564.333984375 57.1689453125 610.666992188 87.501953125 644 c 0
 117.834960938 677.333007812 159.66796875 694 213.000976562 694 c 0
 267.66796875 694 310.16796875 676.833007812 340.500976562 642.5 c 0
 370.833984375 608.165039062 386.000976562 562.33203125 386.000976562 505 c 0
 386.000976562 446.333007812 370.833984375 400 340.500976562 366 c 0
 310.16796875 332 267.66796875 315 213.000976562 315 c 0
 158.333984375 315 116.166992188 331.833007812 86.5 365.5 c 0
310.001953125 392.500976562 m 0
 332.001953125 418.833984375 343.001953125 456.333984375 343.001953125 505.000976562 c 0
 343.001953125 553.66796875 331.834960938 591.000976562 309.501953125 617.000976562 c 0
 287.168945312 643.000976562 255.001953125 656.000976562 213.001953125 656.000976562 c 0
 170.334960938 656.000976562 138.001953125 642.833984375 116.001953125 616.500976562 c 0
 94.001953125 590.16796875 83.001953125 553.000976562 83.001953125 505.000976562 c 0
 83.001953125 455.66796875 94.001953125 418.000976562 116.001953125 392.000976562 c 0
 138.001953125 366.000976562 170.334960938 353.000976562 213.001953125 353.000976562 c 0
 255.668945312 353.000976562 288.001953125 366.16796875 310.001953125 392.500976562 c 0
157.001953125 612.000976562 m 1
 216.001953125 612.000976562 l 2
 257.334960938 612.000976562 278.001953125 591.000976562 278.001953125 549.000976562 c 0
 278.001953125 524.333984375 270.001953125 506.000976562 254.001953125 494.000976562 c 1
 285.001953125 400.000976562 l 1
 239.001953125 400.000976562 l 1
 213.001953125 483.000976562 l 1
 201.001953125 483.000976562 l 1
 201.001953125 400.000976562 l 1
 157.001953125 400.000976562 l 1
 157.001953125 612.000976562 l 1
211.001953125 522.000976562 m 2
 219.668945312 522.000976562 225.668945312 523.833984375 229.001953125 527.500976562 c 0
 232.334960938 531.16796875 234.001953125 538.000976562 234.001953125 548.000976562 c 0
 234.001953125 558.000976562 232.334960938 564.500976562 229.001953125 567.500976562 c 0
 225.668945312 570.500976562 219.668945312 572.000976562 211.001953125 572.000976562 c 2
 201.001953125 572.000976562 l 1
 201.001953125 522.000976562 l 1
 211.001953125 522.000976562 l 2
EndSplineSet
EndChar

StartChar: macron
Encoding: 175 175 112
Width: 500
GlyphClass: 2
Flags: W
LayerCount: 2
Fore
SplineSet
131 700 m 1
 368 700 l 1
 368 596 l 1
 131 596 l 1
 131 700 l 1
EndSplineSet
EndChar

StartChar: degree
Encoding: 176 176 113
Width: 325
GlyphClass: 2
Flags: W
LayerCount: 2
Fore
SplineSet
73.5 488.5 m 0
 49.8330078125 512.166992188 38 541.666992188 38 577 c 0
 38 612.333007812 49.8330078125 641.833007812 73.5 665.5 c 0
 97.1669921875 689.166992188 126.666992188 701 162 701 c 0
 198 701 227.833007812 689.166992188 251.5 665.5 c 0
 275.166992188 641.833007812 287 612.333007812 287 577 c 0
 287 541.666992188 275.166992188 512.166992188 251.5 488.5 c 0
 227.833007812 464.833007812 198 453 162 453 c 0
 126.666992188 453 97.1669921875 464.833007812 73.5 488.5 c 0
203.5 534 m 0
 214.5 545.333007812 220 559.66796875 220 577.000976562 c 0
 220 594.333984375 214.5 608.666992188 203.5 620 c 0
 192.5 631.333007812 178.666992188 637 162 637 c 0
 145.333007812 637 131.666015625 631.333007812 120.999023438 620 c 0
 110.33203125 608.6640625 104.999023438 594.331054688 104.999023438 577 c 0
 104.999023438 559.6640625 110.33203125 545.331054688 120.999023438 534 c 0
 131.666015625 522.666992188 145.333007812 517 162 517 c 0
 178.666992188 517 192.5 522.666992188 203.5 534 c 0
EndSplineSet
EndChar

StartChar: plusminus
Encoding: 177 177 114
Width: 419
GlyphClass: 2
Flags: W
LayerCount: 2
Fore
SplineSet
154 288 m 1
 32 288 l 1
 32 399 l 1
 154 399 l 1
 154 521 l 1
 265 521 l 1
 265 399 l 1
 387 399 l 1
 387 288 l 1
 265 288 l 1
 265 166 l 1
 154 166 l 1
 154 288 l 1
32 120 m 1
 387 120 l 1
 387 9 l 1
 32 9 l 1
 32 120 l 1
EndSplineSet
EndChar

StartChar: uni00B2
Encoding: 178 178 115
Width: 283
GlyphClass: 2
Flags: W
LayerCount: 2
Fore
SplineSet
31 498 m 1
 149 673.002929688 l 2
 157 684.3359375 162.5 693.668945312 165.5 701.001953125 c 0
 168.5 708.334960938 170 718.001953125 170 730.001953125 c 2
 170 752.001953125 l 2
 170 759.334960938 167.666992188 765.66796875 163 771.000976562 c 0
 158.333007812 776.333984375 151 779.000976562 141 779.000976562 c 0
 123 779.000976562 114 771.000976562 114 755.000976562 c 2
 114 724.000976562 l 1
 34 724.000976562 l 1
 34 763.000976562 l 2
 34 791.000976562 44 813.000976562 64 829.000976562 c 0
 84 845.000976562 110.333007812 853.000976562 143 853.000976562 c 0
 176.333007812 853.000976562 202.5 844.833984375 221.5 828.500976562 c 0
 240.5 812.16796875 250 789.66796875 250 761.000976562 c 2
 250 730.000976562 l 2
 250 710.66796875 247.5 694.66796875 242.5 682.000976562 c 0
 237.5 669.333984375 229.333007812 654.666992188 218 638 c 2
 123 504 l 1
 251 504 l 1
 251 430 l 1
 31 430 l 1
 31 498 l 1
EndSplineSet
EndChar

StartChar: uni00B3
Encoding: 179 179 116
Width: 278
GlyphClass: 2
Flags: W
LayerCount: 2
Fore
SplineSet
56 448.5 m 0
 37.3330078125 464.833007812 28 488 28 518 c 2
 28 549 l 1
 108 549 l 1
 108 525 l 2
 108 507 117.333007812 498 136 498 c 0
 147.333007812 498 155 500.333007812 159 505 c 0
 163 509.666992188 165 517.666992188 165 529 c 2
 165 568 l 2
 165 582 162.833007812 592 158.5 598 c 0
 154.166992188 604 145 607 131 607 c 2
 115 607 l 1
 115 681 l 1
 133 681 l 2
 145.666992188 681 154.166992188 683.666992188 158.5 689 c 0
 162.833007812 694.333007812 165 703 165 715 c 2
 165 747 l 2
 165 757.666992188 162.833007812 765.5 158.5 770.5 c 0
 154.166992188 775.5 146.666992188 778 136 778 c 0
 117.333007812 778 108 769 108 751 c 2
 108 726 l 1
 28 726 l 1
 28 756 l 2
 28 786.666992188 37.6669921875 810.5 57 827.5 c 0
 76.3330078125 844.5 103 853 137 853 c 0
 172.333007812 853 199.5 844.5 218.5 827.5 c 0
 237.5 810.5 247 786.666992188 247 756 c 2
 247 722 l 2
 247 702.666992188 243.833007812 687.5 237.5 676.5 c 0
 231.166992188 665.5 219 655.666992188 201 647 c 1
 219.666992188 639 232 629.666992188 238 619 c 0
 244 608.333007812 247 593 247 573 c 2
 247 527 l 2
 247 493.666992188 237.333007812 468.166992188 218 450.5 c 0
 198.666992188 432.833007812 171.666992188 424 137 424 c 0
 101.666992188 424 74.6669921875 432.166992188 56 448.5 c 0
EndSplineSet
EndChar

StartChar: acute
Encoding: 180 180 117
Width: 500
GlyphClass: 2
Flags: W
LayerCount: 2
Fore
SplineSet
238 726 m 1
 361 726 l 1
 238 590 l 1
 139 590 l 1
 238 726 l 1
EndSplineSet
EndChar

StartChar: uni00B5
Encoding: 181 181 118
Width: 410
GlyphClass: 2
Flags: W
LayerCount: 2
Fore
SplineSet
41 528 m 1
 157 528 l 1
 157 152 l 2
 157 134 161.5 120.166992188 170.5 110.5 c 0
 179.5 100.833007812 191 96 205 96 c 0
 219 96 230.5 100.833007812 239.5 110.5 c 0
 248.5 120.166992188 253 134 253 152 c 2
 253 528 l 1
 369 528 l 1
 369 0 l 1
 258 0 l 1
 258 39 l 1
 252 25 242.666992188 14.1669921875 230 6.5 c 0
 217.333007812 -1.1669921875 204.333007812 -5 191 -5 c 0
 175 -5 161.333007812 -2 150 4 c 1
 150 -158 l 1
 41 -158 l 1
 41 528 l 1
EndSplineSet
EndChar

StartChar: paragraph
Encoding: 182 182 119
Width: 553
GlyphClass: 2
Flags: W
LayerCount: 2
Fore
SplineSet
208 261 m 1
 175.333007812 263 146.500976562 273.831054688 121.500976562 293.498046875 c 0
 96.5009765625 313.165039062 77.0009765625 338.83203125 63.0009765625 370.499023438 c 0
 49.0009765625 402.166015625 42.0009765625 437.333007812 42.0009765625 476 c 0
 42.0009765625 515.333007812 50.16796875 551.333007812 66.5009765625 584 c 0
 82.833984375 616.666992188 106.166992188 642.5 136.5 661.5 c 0
 166.833007812 680.5 202 690 242 690 c 2
 490 690 l 1
 490 -158 l 1
 380 -158 l 1
 380 596 l 1
 319 596 l 1
 319 -158 l 1
 208 -158 l 1
 208 261 l 1
EndSplineSet
EndChar

StartChar: periodcentered
Encoding: 183 183 120
Width: 175
GlyphClass: 2
Flags: W
LayerCount: 2
Fore
SplineSet
29 346 m 1
 146 346 l 1
 146 214 l 1
 29 214 l 1
 29 346 l 1
EndSplineSet
EndChar

StartChar: cedilla
Encoding: 184 184 121
Width: 500
GlyphClass: 2
Flags: W
LayerCount: 2
Fore
SplineSet
227 10 m 1
 315 10 l 1
 256 -158 l 1
 154 -158 l 1
 227 10 l 1
EndSplineSet
EndChar

StartChar: uni00B9
Encoding: 185 185 122
Width: 215
GlyphClass: 2
Flags: W
LayerCount: 2
Fore
SplineSet
88 751 m 1
 24 708 l 1
 24 804 l 1
 88 847 l 1
 171 847 l 1
 171 430 l 1
 88 430 l 1
 88 751 l 1
EndSplineSet
EndChar

StartChar: ordmasculine
Encoding: 186 186 123
Width: 310
GlyphClass: 2
Flags: W
LayerCount: 2
Fore
SplineSet
71.5 451.5 m 0
 52.5 469.166992188 43 498.333984375 43 539.000976562 c 2
 43 632.000976562 l 2
 43 672.668945312 52.5 701.8359375 71.5 719.500976562 c 0
 90.5 737.16796875 118.666992188 746.000976562 156 746.000976562 c 0
 192 746.000976562 219.5 737.16796875 238.5 719.500976562 c 0
 257.5 701.833984375 267 672.666992188 267 632 c 2
 267 539 l 2
 267 498.333007812 257.5 469.166015625 238.5 451.5 c 0
 219.5 433.833007812 192 425 156 425 c 0
 118.666992188 425 90.5 433.833007812 71.5 451.5 c 0
180.5 506 m 0
 186.166992188 513.333007812 189 525.333007812 189 542 c 2
 189 629 l 2
 189 645.666992188 186.166992188 657.666992188 180.5 665 c 0
 174.833007812 672.333007812 166.333007812 676 155 676 c 0
 143.666992188 676 135 672.333007812 129 665 c 0
 123 657.666992188 120 645.666992188 120 629 c 2
 120 542 l 2
 120 510.666992188 131.666992188 495 155 495 c 0
 166.333007812 495 174.833007812 498.666992188 180.5 506 c 0
142 847 m 1024
EndSplineSet
EndChar

StartChar: guillemotright
Encoding: 187 187 124
Width: 442
GlyphClass: 2
Flags: W
LayerCount: 2
Fore
SplineSet
41 176 m 1
 127 264 l 1
 41 352 l 1
 41 462 l 1
 235 264 l 1
 41 66 l 1
 41 176 l 1
234 176 m 1
 320 264 l 1
 234 352 l 1
 234 462 l 1
 428 264 l 1
 234 66 l 1
 234 176 l 1
EndSplineSet
EndChar

StartChar: onequarter
Encoding: 188 188 125
Width: 696
GlyphClass: 3
Flags: W
LayerCount: 2
Fore
SplineSet
88 594 m 1
 24 551 l 1
 24 647 l 1
 88 690 l 1
 171 690 l 1
 171 273 l 1
 88 273 l 1
 88 594 l 1
676 64 m 1
 647 64 l 1
 647 0 l 1
 565 0 l 1
 565 64 l 1
 427 64 l 1
 427 138 l 1
 518 417 l 1
 600 417 l 1
 510 138 l 1
 565 138 l 1
 565 219 l 1
 647 219 l 1
 647 138 l 1
 676 138 l 1
 676 64 l 1
401 698 m 1
 483 698 l 1
 223 0 l 1
 141 0 l 1
 401 698 l 1
EndSplineSet
Ligature2: "'frac' Diagonal Fractions lookup 2 subtable" one slash four
EndChar

StartChar: onehalf
Encoding: 189 189 126
Width: 692
GlyphClass: 3
Flags: W
LayerCount: 2
Fore
SplineSet
88 594 m 1
 24 551 l 1
 24 647 l 1
 88 690 l 1
 171 690 l 1
 171 273 l 1
 88 273 l 1
 88 594 l 1
440 68 m 1
 558 243.001953125 l 2
 566 254.334960938 571.5 263.66796875 574.5 271.000976562 c 0
 577.5 278.333984375 579 288.000976562 579 300.000976562 c 2
 579 322.000976562 l 2
 579 329.3359375 576.666992188 335.668945312 572 341.000976562 c 0
 567.333007812 346.333984375 560 349.000976562 550 349.000976562 c 0
 532 349.000976562 523 341.000976562 523 325.000976562 c 2
 523 294.000976562 l 1
 443 294.000976562 l 1
 443 333.000976562 l 2
 443 361.000976562 453 383.000976562 473 399.000976562 c 0
 493.000976562 415.000976562 519.333984375 423.000976562 552 423.000976562 c 0
 585.333007812 423.000976562 611.5 414.833984375 630.5 398.500976562 c 0
 649.5 382.16796875 659 359.66796875 659 331.000976562 c 2
 659 300.000976562 l 2
 659 280.66796875 656.5 264.66796875 651.5 252.000976562 c 0
 646.5 239.333984375 638.333007812 224.666992188 627 208 c 2
 532 74 l 1
 660 74 l 1
 660 0 l 1
 440 0 l 1
 440 68 l 1
401 698.001953125 m 1
 483 698.001953125 l 1
 223 0.001953125 l 1
 141 0.001953125 l 1
 401 698.001953125 l 1
EndSplineSet
Ligature2: "'frac' Diagonal Fractions lookup 2 subtable" one slash two
EndChar

StartChar: threequarters
Encoding: 190 190 127
Width: 759
GlyphClass: 3
Flags: W
LayerCount: 2
Fore
SplineSet
56 291.5 m 0
 37.3330078125 307.833007812 28 331 28 361 c 2
 28 392 l 1
 108 392 l 1
 108 368 l 2
 108 350 117.333007812 341 136 341 c 0
 147.333007812 341 155 343.333007812 159 348 c 0
 163 352.666992188 165 360.666992188 165 372 c 2
 165 411 l 2
 165 425 162.833007812 435 158.5 441 c 0
 154.166992188 447 145 450 131 450 c 2
 115 450 l 1
 115 524 l 1
 133 524 l 2
 145.666992188 524 154.166992188 526.666992188 158.5 532 c 0
 162.833007812 537.333007812 165 546 165 558 c 2
 165 590 l 2
 165 600.666992188 162.833007812 608.5 158.5 613.5 c 0
 154.166992188 618.5 146.666992188 621 136 621 c 0
 117.333007812 621 108 612 108 594 c 2
 108 569 l 1
 28 569 l 1
 28 599 l 2
 28 629.666992188 37.6669921875 653.5 57 670.5 c 0
 76.3330078125 687.5 103 696 137 696 c 0
 172.333007812 696 199.5 687.5 218.5 670.5 c 0
 237.5 653.5 247 629.666992188 247 599 c 2
 247 565 l 2
 247 545.666992188 243.833007812 530.5 237.5 519.5 c 0
 231.166992188 508.5 219 498.666992188 201 490 c 1
 219.666992188 482 232 472.666992188 238 462 c 0
 244 451.333007812 247 436 247 416 c 2
 247 370 l 2
 247 336.666992188 237.333007812 311.166992188 218 293.5 c 0
 198.666992188 275.833007812 171.666992188 267 137 267 c 0
 101.666992188 267 74.6669921875 275.166992188 56 291.5 c 0
739 64 m 1
 710 64 l 1
 710 0 l 1
 628 0 l 1
 628 64 l 1
 490 64 l 1
 490 138 l 1
 581 417 l 1
 663 417 l 1
 573 138 l 1
 628 138 l 1
 628 219 l 1
 710 219 l 1
 710 138 l 1
 739 138 l 1
 739 64 l 1
464 698 m 1
 546 698 l 1
 286 0 l 1
 204 0 l 1
 464 698 l 1
EndSplineSet
Ligature2: "'frac' Diagonal Fractions lookup 2 subtable" three slash four
EndChar

StartChar: questiondown
Encoding: 191 191 128
Width: 376
GlyphClass: 2
Flags: W
LayerCount: 2
Fore
SplineSet
137 528 m 1
 246 528 l 1
 246 401 l 1
 137 401 l 1
 137 528 l 1
70.5 -124 m 0
 40.8330078125 -94.6669921875 26 -54.0009765625 26 -2.0009765625 c 0
 26 24.666015625 28.8330078125 47.8330078125 34.5 67.5 c 0
 40.1669921875 87.1669921875 52 110 70 136 c 2
 110 193 l 2
 122 209.666992188 129.5 224.5 132.5 237.5 c 0
 135.5 250.5 137 268 137 290 c 2
 137 330 l 1
 246 330 l 1
 246 290 l 2
 246 259.333007812 244 235.5 240 218.5 c 0
 236 201.5 225 179 207 151 c 2
 172 96 l 2
 161.333007812 79.3330078125 154 64.3330078125 150 51 c 0
 146 37.6669921875 144 20.6669921875 144 0 c 0
 144 -42 160 -63 192 -63 c 0
 212.666992188 -63 225.833984375 -55.6669921875 231.5 -41 c 0
 237.166992188 -26.3330078125 240 -1 240 35 c 1
 356 35 l 1
 356 -33.6669921875 342.833007812 -84.6669921875 316.5 -118 c 0
 290.166992188 -151.333007812 248.333984375 -168 191.000976562 -168 c 0
 140.333984375 -168 100.166992188 -153.333007812 70.5 -124 c 0
EndSplineSet
EndChar

StartChar: Agrave
Encoding: 192 192 129
Width: 485
GlyphClass: 2
Flags: W
LayerCount: 2
Fore
SplineSet
323 134 m 1
 162 134 l 1
 134 0 l 1
 6 0 l 1
 183 690 l 1
 303 690 l 1
 479 0 l 1
 351 0 l 1
 323 134 l 1
301 244 m 1
 243 524 l 1
 185 244 l 1
 301 244 l 1
102 888 m 1
 225 888 l 1
 324 752 l 1
 225 752 l 1
 102 888 l 1
EndSplineSet
EndChar

StartChar: Aacute
Encoding: 193 193 130
Width: 485
GlyphClass: 2
Flags: W
LayerCount: 2
Fore
SplineSet
323 134 m 1
 162 134 l 1
 134 0 l 1
 6 0 l 1
 183 690 l 1
 303 690 l 1
 479 0 l 1
 351 0 l 1
 323 134 l 1
301 244 m 1
 243 524 l 1
 185 244 l 1
 301 244 l 1
261 888 m 1
 384 888 l 1
 261 752 l 1
 162 752 l 1
 261 888 l 1
EndSplineSet
EndChar

StartChar: Acircumflex
Encoding: 194 194 131
Width: 485
GlyphClass: 2
Flags: W
LayerCount: 2
Fore
SplineSet
323 134 m 1
 162 134 l 1
 134 0 l 1
 6 0 l 1
 183 690 l 1
 303 690 l 1
 479 0 l 1
 351 0 l 1
 323 134 l 1
301 244 m 1
 243 524 l 1
 185 244 l 1
 301 244 l 1
200 894 m 1
 283 894 l 1
 386 746 l 1
 299 746 l 1
 243 826 l 1
 186 746 l 1
 99 746 l 1
 200 894 l 1
EndSplineSet
EndChar

StartChar: Atilde
Encoding: 195 195 132
Width: 485
GlyphClass: 2
Flags: W
LayerCount: 2
Fore
SplineSet
323 134 m 1
 162 134 l 1
 134 0 l 1
 6 0 l 1
 183 690 l 1
 303 690 l 1
 479 0 l 1
 351 0 l 1
 323 134 l 1
301 244 m 1
 243 524 l 1
 185 244 l 1
 301 244 l 1
130 844 m 1
 143.333007812 858 154.5 867.499023438 163.5 872.499023438 c 0
 172.5 877.499023438 183.333007812 879.999023438 196 879.999023438 c 0
 206.666992188 879.999023438 216 878.33203125 224 874.999023438 c 0
 232 871.666015625 240.333007812 866.999023438 249 860.999023438 c 0
 259 854.999023438 267 850.83203125 273 848.499023438 c 0
 279 846.166015625 286 844.999023438 294 844.999023438 c 0
 304.666992188 844.999023438 313.666992188 847.499023438 321 852.499023438 c 0
 328.334960938 857.499023438 339.66796875 867.999023438 355 883.999023438 c 1
 355 791.999023438 l 1
 342.333007812 777.999023438 331.666015625 768.33203125 323 762.999023438 c 0
 314.333007812 757.666015625 303.333007812 754.999023438 290 754.999023438 c 0
 278.666992188 754.999023438 269.333984375 756.666015625 262.000976562 759.999023438 c 0
 254.66796875 763.33203125 246.000976562 767.999023438 236.000976562 773.999023438 c 0
 226.66796875 779.33203125 219.16796875 783.33203125 213.500976562 785.999023438 c 0
 207.833984375 788.666015625 200.666992188 789.999023438 192 789.999023438 c 0
 181.333007812 789.999023438 171.833007812 787.33203125 163.5 781.999023438 c 0
 155.166992188 776.66015625 144 766.327148438 130 751 c 1
 130 844 l 1
EndSplineSet
EndChar

StartChar: Adieresis
Encoding: 196 196 133
Width: 485
GlyphClass: 2
Flags: W
LayerCount: 2
Fore
SplineSet
323 134 m 1
 162 134 l 1
 134 0 l 1
 6 0 l 1
 183 690 l 1
 303 690 l 1
 479 0 l 1
 351 0 l 1
 323 134 l 1
301 244 m 1
 243 524 l 1
 185 244 l 1
 301 244 l 1
118 867 m 1
 211 867 l 1
 211 753 l 1
 118 753 l 1
 118 867 l 1
274 867 m 1
 367 867 l 1
 367 753 l 1
 274 753 l 1
 274 867 l 1
EndSplineSet
EndChar

StartChar: Aring
Encoding: 197 197 134
Width: 485
GlyphClass: 2
Flags: W
LayerCount: 2
Fore
SplineSet
323 134 m 1
 162 134.000976562 l 1
 134 0.0009765625 l 1
 6 0.0009765625 l 1
 183 690.000976562 l 1
 172.333007812 698.66796875 164 709.334960938 158 722.000976562 c 0
 152 734.670898438 149 748.337890625 149 763.001953125 c 0
 149 790.334960938 158 813.001953125 176 831.001953125 c 0
 194 849.001953125 216.333007812 858.001953125 243 858.001953125 c 0
 269.666992188 858.001953125 292 849.001953125 310 831.001953125 c 0
 328 813.001953125 337 790.334960938 337 763.001953125 c 0
 337 748.334960938 334 734.66796875 328 722.000976562 c 0
 322 709.333984375 313.666992188 698.666992188 303 690 c 1
 479 0 l 1
 351 0 l 1
 323 134 l 1
210.5 796.000976562 m 0
 202.166992188 787.333984375 197.998046875 776.333984375 197.998046875 763.000976562 c 0
 197.998046875 750.333984375 202.331054688 739.666992188 210.998046875 731 c 0
 219.665039062 722.333007812 230.33203125 718 242.999023438 718 c 0
 255.666015625 718 266.166015625 722.333007812 274.499023438 731 c 0
 282.83203125 739.669921875 286.999023438 750.336914062 286.999023438 763.000976562 c 0
 286.999023438 776.333984375 282.83203125 787.333984375 274.499023438 796.000976562 c 0
 266.166015625 804.66796875 255.666015625 809.000976562 242.999023438 809.000976562 c 0
 229.666015625 809.000976562 218.833007812 804.66796875 210.5 796.000976562 c 0
300.998046875 244.000976562 m 1
 242.998046875 524.000976562 l 1
 184.998046875 244.000976562 l 1
 300.998046875 244.000976562 l 1
268.998046875 669.000976562 m 1024
EndSplineSet
EndChar

StartChar: AE
Encoding: 198 198 135
Width: 679
GlyphClass: 2
Flags: W
LayerCount: 2
Fore
SplineSet
469 579 m 1
 469 406 l 1
 629 406 l 1
 629 296 l 1
 469 296 l 1
 469 110 l 1
 654 110 l 1
 654 0 l 1
 346 0 l 1
 346 133 l 1
 183 133 l 1
 134 0 l 1
 6 0 l 1
 266 690 l 1
 654 690 l 1
 654 579 l 1
 469 579 l 1
346 243 m 1
 346 580 l 1
 223 243 l 1
 346 243 l 1
EndSplineSet
EndChar

StartChar: Ccedilla
Encoding: 199 199 136
Width: 468
GlyphClass: 2
Flags: W
LayerCount: 2
Fore
SplineSet
307 477 m 1
 307.000976562 497 l 2
 307.000976562 528.333007812 300.500976562 551.5 287.500976562 566.5 c 0
 274.500976562 581.5 257.000976562 589 235.000976562 589 c 0
 209.000976562 589 190.16796875 580 178.500976562 562 c 0
 166.833984375 544 161.000976562 517 161.000976562 481 c 2
 161.000976562 204 l 2
 161.000976562 136.666992188 185.66796875 103 235.000976562 103 c 0
 257.000976562 103 274.500976562 110.666992188 287.500976562 126 c 0
 300.500976562 141.333007812 307.000976562 164 307.000976562 194 c 2
 307.000976562 212 l 1
 429.000976562 212 l 1
 429.000976562 193 l 2
 429.000976562 139 416.66796875 95.8330078125 392.000976562 63.5 c 0
 367.333984375 31.1669921875 334.000976562 9.6669921875 292.000976562 -1 c 1
 237.000976562 -158 l 1
 135.000976562 -158 l 1
 201.000976562 -6 l 1
 150.333984375 -0.6669921875 110.500976562 18.5 81.5009765625 51.5 c 0
 52.5009765625 84.5 38.0009765625 130.666992188 38.0009765625 190 c 2
 38.0009765625 501 l 2
 38.0009765625 566.333007812 56.333984375 615.833007812 93.0009765625 649.5 c 0
 129.66796875 683.166992188 178.000976562 700 238.000976562 700 c 0
 295.333984375 700 341.666992188 683.333007812 377 650 c 0
 412.333007812 616.666992188 430 566 430 498 c 2
 430 477 l 1
 307 477 l 1
EndSplineSet
EndChar

StartChar: Egrave
Encoding: 200 200 137
Width: 375
GlyphClass: 2
Flags: W
LayerCount: 2
Fore
SplineSet
164 579 m 1
 164 406 l 1
 324 406 l 1
 324 296 l 1
 164 296 l 1
 164 110 l 1
 350 110 l 1
 350 0 l 1
 42 0 l 1
 42 690 l 1
 350 690 l 1
 350 579 l 1
 164 579 l 1
59 888 m 1
 182 888 l 1
 281 752 l 1
 182 752 l 1
 59 888 l 1
EndSplineSet
EndChar

StartChar: Eacute
Encoding: 201 201 138
Width: 375
GlyphClass: 2
Flags: W
LayerCount: 2
Fore
SplineSet
164 579 m 1
 164 406 l 1
 324 406 l 1
 324 296 l 1
 164 296 l 1
 164 110 l 1
 350 110 l 1
 350 0 l 1
 42 0 l 1
 42 690 l 1
 350 690 l 1
 350 579 l 1
 164 579 l 1
218 888 m 1
 341 888 l 1
 218 752 l 1
 119 752 l 1
 218 888 l 1
EndSplineSet
EndChar

StartChar: Ecircumflex
Encoding: 202 202 139
Width: 375
GlyphClass: 2
Flags: W
LayerCount: 2
Fore
SplineSet
164 579 m 1
 164 406 l 1
 324 406 l 1
 324 296 l 1
 164 296 l 1
 164 110 l 1
 350 110 l 1
 350 0 l 1
 42 0 l 1
 42 690 l 1
 350 690 l 1
 350 579 l 1
 164 579 l 1
157 894 m 1
 240 894 l 1
 343 746 l 1
 256 746 l 1
 200 826 l 1
 143 746 l 1
 56 746 l 1
 157 894 l 1
EndSplineSet
EndChar

StartChar: Edieresis
Encoding: 203 203 140
Width: 375
GlyphClass: 2
Flags: W
LayerCount: 2
Fore
SplineSet
164 579 m 1
 164 406 l 1
 324 406 l 1
 324 296 l 1
 164 296 l 1
 164 110 l 1
 350 110 l 1
 350 0 l 1
 42 0 l 1
 42 690 l 1
 350 690 l 1
 350 579 l 1
 164 579 l 1
75 867 m 1
 168 867 l 1
 168 753 l 1
 75 753 l 1
 75 867 l 1
231 867 m 1
 324 867 l 1
 324 753 l 1
 231 753 l 1
 231 867 l 1
EndSplineSet
EndChar

StartChar: Igrave
Encoding: 204 204 141
Width: 214
GlyphClass: 2
Flags: W
LayerCount: 2
Fore
SplineSet
46 690 m 1
 168 690 l 1
 168 0 l 1
 46 0 l 1
 46 690 l 1
-34 888 m 1
 89 888 l 1
 188 752 l 1
 89 752 l 1
 -34 888 l 1
EndSplineSet
EndChar

StartChar: Iacute
Encoding: 205 205 142
Width: 214
GlyphClass: 2
Flags: W
LayerCount: 2
Fore
SplineSet
46 690 m 1
 168 690 l 1
 168 0 l 1
 46 0 l 1
 46 690 l 1
125 888 m 1
 248 888 l 1
 125 752 l 1
 26 752 l 1
 125 888 l 1
EndSplineSet
EndChar

StartChar: Icircumflex
Encoding: 206 206 143
Width: 214
GlyphClass: 2
Flags: W
LayerCount: 2
Fore
SplineSet
46 690 m 1
 168 690 l 1
 168 0 l 1
 46 0 l 1
 46 690 l 1
64 894 m 1
 147 894 l 1
 250 746 l 1
 163 746 l 1
 107 826 l 1
 50 746 l 1
 -37 746 l 1
 64 894 l 1
EndSplineSet
EndChar

StartChar: Idieresis
Encoding: 207 207 144
Width: 214
GlyphClass: 2
Flags: W
LayerCount: 2
Fore
SplineSet
46 690 m 1
 168 690 l 1
 168 0 l 1
 46 0 l 1
 46 690 l 1
-18 867 m 1
 75 867 l 1
 75 753 l 1
 -18 753 l 1
 -18 867 l 1
138 867 m 1
 231 867 l 1
 231 753 l 1
 138 753 l 1
 138 867 l 1
EndSplineSet
EndChar

StartChar: Eth
Encoding: 208 208 145
Width: 483
GlyphClass: 2
Flags: W
LayerCount: 2
Fore
SplineSet
392.5 640 m 0
 427.5 606.666015625 445 557.333984375 445 492.000976562 c 2
 445 198.000976562 l 2
 445 133.333984375 426.666992188 84.1669921875 390 50.5 c 0
 353.333007812 16.8330078125 305.666015625 0 247 0 c 2
 62 0 l 1
 62 300 l 1
 20 300 l 1
 20 410 l 1
 62 410 l 1
 62 690 l 1
 253 690 l 2
 311 690 357.5 673.333007812 392.5 640 c 0
322 471.000976562 m 2
 322 506.333984375 316 533.16796875 304 551.500976562 c 0
 292 569.833984375 274 579.000976562 250 579.000976562 c 2
 184 579.000976562 l 1
 184 410.000976562 l 1
 270 410.000976562 l 1
 270 300.000976562 l 1
 184 300.000976562 l 1
 184 110.000976562 l 1
 250 110.000976562 l 2
 273.333984375 110.000976562 291.166992188 119.000976562 303.5 137.000976562 c 0
 315.833007812 155.000976562 322 180.000976562 322 212.000976562 c 2
 322 471.000976562 l 2
EndSplineSet
EndChar

StartChar: Ntilde
Encoding: 209 209 146
Width: 474
GlyphClass: 2
Flags: W
LayerCount: 2
Fore
SplineSet
432 690 m 1
 432 0 l 1
 309 0 l 1
 165 368 l 1
 165 0 l 1
 42 0 l 1
 42 690 l 1
 165 690 l 1
 309 306 l 1
 309 690 l 1
 432 690 l 1
124 844 m 1
 137.333007812 858 148.5 867.499023438 157.5 872.499023438 c 0
 166.5 877.499023438 177.333007812 879.999023438 190 879.999023438 c 0
 200.666992188 879.999023438 210 878.33203125 218 874.999023438 c 0
 226 871.666015625 234.333007812 866.999023438 243 860.999023438 c 0
 253 854.999023438 261 850.83203125 267 848.499023438 c 0
 273 846.166015625 280 844.999023438 288 844.999023438 c 0
 298.666992188 844.999023438 307.666992188 847.499023438 315 852.499023438 c 0
 322.333984375 857.499023438 333.666992188 867.999023438 349 883.999023438 c 1
 349 791.999023438 l 1
 336.33203125 777.999023438 325.665039062 768.33203125 317 762.999023438 c 0
 308.333007812 757.666015625 297.333007812 754.999023438 284 754.999023438 c 0
 272.666992188 754.999023438 263.333984375 756.666015625 256.000976562 759.999023438 c 0
 248.66796875 763.33203125 240.000976562 767.999023438 230.000976562 773.999023438 c 0
 220.66796875 779.33203125 213.16796875 783.33203125 207.500976562 785.999023438 c 0
 201.833984375 788.666015625 194.666992188 789.999023438 186 789.999023438 c 0
 175.333007812 789.999023438 165.833007812 787.33203125 157.5 781.999023438 c 0
 149.166992188 776.66015625 138 766.327148438 124 751 c 1
 124 844 l 1
EndSplineSet
EndChar

StartChar: Ograve
Encoding: 210 210 147
Width: 468
GlyphClass: 2
Flags: W
LayerCount: 2
Fore
SplineSet
90 42.5 m 0
 55.3330078125 76.1669921875 38 125.333007812 38 190 c 2
 38 501 l 2
 38 566.333007812 56.3330078125 615.833007812 93 649.5 c 0
 129.666992188 683.166992188 178 700 238 700 c 0
 296 700 342.5 683.166992188 377.5 649.5 c 0
 412.5 615.833007812 430 566.333007812 430 501 c 2
 430 190 l 2
 430 126 411.5 77 374.5 43 c 0
 337.5 9 289.666992188 -8 231 -8 c 0
 171.666992188 -8 124.666992188 8.8330078125 90 42.5 c 0
288.5 129.499023438 m 0
 300.833007812 147.166015625 307 172 307 204 c 2
 307 481 l 2
 307 516.333007812 301 543.166015625 289 561.499023438 c 0
 277 579.83203125 259 588.999023438 235 588.999023438 c 0
 209 588.999023438 190.166992188 579.999023438 178.5 561.999023438 c 0
 166.833007812 543.999023438 161 516.999023438 161 480.999023438 c 2
 161 203.999023438 l 2
 161 136.666015625 185.666992188 102.999023438 235 102.999023438 c 0
 258.333984375 102.999023438 276.166992188 111.83203125 288.5 129.499023438 c 0
93 888 m 1
 216 888 l 1
 315 752 l 1
 216 752 l 1
 93 888 l 1
EndSplineSet
EndChar

StartChar: Oacute
Encoding: 211 211 148
Width: 468
GlyphClass: 2
Flags: W
LayerCount: 2
Fore
SplineSet
90 42.5 m 0
 55.3330078125 76.1669921875 38 125.333007812 38 190 c 2
 38 501 l 2
 38 566.333007812 56.3330078125 615.833007812 93 649.5 c 0
 129.666992188 683.166992188 178 700 238 700 c 0
 296 700 342.5 683.166992188 377.5 649.5 c 0
 412.5 615.833007812 430 566.333007812 430 501 c 2
 430 190 l 2
 430 126 411.5 77 374.5 43 c 0
 337.5 9 289.666992188 -8 231 -8 c 0
 171.666992188 -8 124.666992188 8.8330078125 90 42.5 c 0
288.5 129.499023438 m 0
 300.833007812 147.166015625 307 172 307 204 c 2
 307 481 l 2
 307 516.333007812 301 543.166015625 289 561.499023438 c 0
 277 579.83203125 259 588.999023438 235 588.999023438 c 0
 209 588.999023438 190.166992188 579.999023438 178.5 561.999023438 c 0
 166.833007812 543.999023438 161 516.999023438 161 480.999023438 c 2
 161 203.999023438 l 2
 161 136.666015625 185.666992188 102.999023438 235 102.999023438 c 0
 258.333984375 102.999023438 276.166992188 111.83203125 288.5 129.499023438 c 0
252 888 m 1
 375 888 l 1
 252 752 l 1
 153 752 l 1
 252 888 l 1
EndSplineSet
EndChar

StartChar: Ocircumflex
Encoding: 212 212 149
Width: 468
GlyphClass: 2
Flags: W
LayerCount: 2
Fore
SplineSet
90 42.5 m 0
 55.3330078125 76.1669921875 38 125.333007812 38 190 c 2
 38 501 l 2
 38 566.333007812 56.3330078125 615.833007812 93 649.5 c 0
 129.666992188 683.166992188 178 700 238 700 c 0
 296 700 342.5 683.166992188 377.5 649.5 c 0
 412.5 615.833007812 430 566.333007812 430 501 c 2
 430 190 l 2
 430 126 411.5 77 374.5 43 c 0
 337.5 9 289.666992188 -8 231 -8 c 0
 171.666992188 -8 124.666992188 8.8330078125 90 42.5 c 0
288.5 129.499023438 m 0
 300.833007812 147.166015625 307 172 307 204 c 2
 307 481 l 2
 307 516.333007812 301 543.166015625 289 561.499023438 c 0
 277 579.83203125 259 588.999023438 235 588.999023438 c 0
 209 588.999023438 190.166992188 579.999023438 178.5 561.999023438 c 0
 166.833007812 543.999023438 161 516.999023438 161 480.999023438 c 2
 161 203.999023438 l 2
 161 136.666015625 185.666992188 102.999023438 235 102.999023438 c 0
 258.333984375 102.999023438 276.166992188 111.83203125 288.5 129.499023438 c 0
191 894 m 1
 274 894 l 1
 377 746 l 1
 290 746 l 1
 234 826 l 1
 177 746 l 1
 90 746 l 1
 191 894 l 1
EndSplineSet
EndChar

StartChar: Otilde
Encoding: 213 213 150
Width: 468
GlyphClass: 2
Flags: W
LayerCount: 2
Fore
SplineSet
90 42.5 m 0
 55.3330078125 76.1669921875 38 125.333007812 38 190 c 2
 38 501 l 2
 38 566.333007812 56.3330078125 615.833007812 93 649.5 c 0
 129.666992188 683.166992188 178 700 238 700 c 0
 296 700 342.5 683.166992188 377.5 649.5 c 0
 412.5 615.833007812 430 566.333007812 430 501 c 2
 430 190 l 2
 430 126 411.5 77 374.5 43 c 0
 337.5 9 289.666992188 -8 231 -8 c 0
 171.666992188 -8 124.666992188 8.8330078125 90 42.5 c 0
288.5 129.499023438 m 0
 300.833007812 147.166015625 307 172 307 204 c 2
 307 481 l 2
 307 516.333007812 301 543.166015625 289 561.499023438 c 0
 277 579.83203125 259 588.999023438 235 588.999023438 c 0
 209 588.999023438 190.166992188 579.999023438 178.5 561.999023438 c 0
 166.833007812 543.999023438 161 516.999023438 161 480.999023438 c 2
 161 203.999023438 l 2
 161 136.666015625 185.666992188 102.999023438 235 102.999023438 c 0
 258.333984375 102.999023438 276.166992188 111.83203125 288.5 129.499023438 c 0
121 844 m 1
 134.333007812 858 145.5 867.499023438 154.5 872.499023438 c 0
 163.5 877.499023438 174.333007812 879.999023438 187 879.999023438 c 0
 197.666992188 879.999023438 207 878.33203125 215 874.999023438 c 0
 223 871.666015625 231.333007812 866.999023438 240 860.999023438 c 0
 250 854.999023438 258 850.83203125 264 848.499023438 c 0
 270 846.166015625 277 844.999023438 285 844.999023438 c 0
 295.666992188 844.999023438 304.666992188 847.499023438 312 852.499023438 c 0
 319.334960938 857.499023438 330.66796875 867.999023438 346 883.999023438 c 1
 346 791.999023438 l 1
 333.333007812 777.999023438 322.666015625 768.33203125 314 762.999023438 c 0
 305.333007812 757.666015625 294.333007812 754.999023438 281 754.999023438 c 0
 269.666992188 754.999023438 260.333984375 756.666015625 253.000976562 759.999023438 c 0
 245.66796875 763.33203125 237.000976562 767.999023438 227.000976562 773.999023438 c 0
 217.66796875 779.33203125 210.16796875 783.33203125 204.500976562 785.999023438 c 0
 198.833984375 788.666015625 191.666992188 789.999023438 183 789.999023438 c 0
 172.333007812 789.999023438 162.833007812 787.33203125 154.5 781.999023438 c 0
 146.166992188 776.66015625 135 766.327148438 121 751 c 1
 121 844 l 1
EndSplineSet
EndChar

StartChar: Odieresis
Encoding: 214 214 151
Width: 468
GlyphClass: 2
Flags: W
LayerCount: 2
Fore
SplineSet
90 42.5 m 0
 55.3330078125 76.1669921875 38 125.333007812 38 190 c 2
 38 501 l 2
 38 566.333007812 56.3330078125 615.833007812 93 649.5 c 0
 129.666992188 683.166992188 178 700 238 700 c 0
 296 700 342.5 683.166992188 377.5 649.5 c 0
 412.5 615.833007812 430 566.333007812 430 501 c 2
 430 190 l 2
 430 126 411.5 77 374.5 43 c 0
 337.5 9 289.666992188 -8 231 -8 c 0
 171.666992188 -8 124.666992188 8.8330078125 90 42.5 c 0
288.5 129.499023438 m 0
 300.833007812 147.166015625 307 172 307 204 c 2
 307 481 l 2
 307 516.333007812 301 543.166015625 289 561.499023438 c 0
 277 579.83203125 259 588.999023438 235 588.999023438 c 0
 209 588.999023438 190.166992188 579.999023438 178.5 561.999023438 c 0
 166.833007812 543.999023438 161 516.999023438 161 480.999023438 c 2
 161 203.999023438 l 2
 161 136.666015625 185.666992188 102.999023438 235 102.999023438 c 0
 258.333984375 102.999023438 276.166992188 111.83203125 288.5 129.499023438 c 0
109 867 m 1
 202 867 l 1
 202 753 l 1
 109 753 l 1
 109 867 l 1
265 867 m 1
 358 867 l 1
 358 753 l 1
 265 753 l 1
 265 867 l 1
EndSplineSet
EndChar

StartChar: multiply
Encoding: 215 215 152
Width: 419
GlyphClass: 2
Flags: W
LayerCount: 2
Fore
SplineSet
42 181 m 1
 137 276 l 1
 42 370 l 1
 115 443 l 1
 210 349 l 1
 304 443 l 1
 377 370 l 1
 283 276 l 1
 377 181 l 1
 304 108 l 1
 210 203 l 1
 115 108 l 1
 42 181 l 1
EndSplineSet
EndChar

StartChar: Oslash
Encoding: 216 216 153
Width: 468
GlyphClass: 2
Flags: W
LayerCount: 2
Fore
SplineSet
392 633 m 1
 417.333007812 599 429.999023438 555 429.999023438 501 c 2
 429.999023438 190 l 2
 429.999023438 126 411.499023438 77 374.499023438 43 c 0
 337.499023438 9 289.666015625 -8 230.999023438 -8 c 0
 185.666015625 -8 147.333007812 2 116 22 c 1
 97 -20 l 1
 38 -20 l 1
 74 61 l 1
 50 93.6669921875 38 136.666992188 38 190 c 2
 38 501 l 2
 38 566.333007812 56.3330078125 615.833007812 93 649.5 c 0
 129.666992188 683.166992188 178 700 238 700 c 0
 282.666992188 700 320 690.333007812 350 671 c 1
 371 718 l 1
 430 718 l 1
 392 633 l 1
160.999023438 253 m 1
 294.999023438 550 l 1
 284.33203125 576 264.33203125 589 234.999023438 589 c 0
 208.999023438 589 190.166015625 580 178.499023438 562 c 0
 166.83203125 544 160.999023438 517 160.999023438 481 c 2
 160.999023438 253 l 1
306.999023438 445 m 1
 171 144 l 1
 182.333007812 116.666992188 203.666015625 103 234.999023438 103 c 0
 258.333007812 103 276.166015625 111.833007812 288.499023438 129.5 c 0
 300.83203125 147.166992188 306.999023438 172 306.999023438 204 c 2
 306.999023438 445 l 1
EndSplineSet
EndChar

StartChar: Ugrave
Encoding: 217 217 154
Width: 460
GlyphClass: 2
Flags: W
LayerCount: 2
Fore
SplineSet
133.5 15.5 m 0
 105.166992188 31.1669921875 82.8330078125 53.333984375 66.5 82.0009765625 c 0
 50.1669921875 110.66796875 42 143.66796875 42 181.000976562 c 2
 42 690.000976562 l 1
 165 690.000976562 l 1
 165 184.000976562 l 2
 165 156.000976562 170.333007812 135.500976562 181 122.500976562 c 0
 191.666992188 109.500976562 208 103.000976562 230 103.000976562 c 0
 273.333007812 103.000976562 295 130.000976562 295 184.000976562 c 2
 295 690.000976562 l 1
 418 690.000976562 l 1
 418 181.000976562 l 2
 418 143.66796875 410 110.66796875 394 82.0009765625 c 0
 378 53.333984375 355.666992188 31.1669921875 327 15.5 c 0
 298.333007812 -0.1669921875 266 -8 230 -8 c 0
 194 -8 161.833007812 -0.1669921875 133.5 15.5 c 0
88.9990234375 888 m 1
 211.999023438 888 l 1
 310.999023438 752 l 1
 211.999023438 752 l 1
 88.9990234375 888 l 1
EndSplineSet
EndChar

StartChar: Uacute
Encoding: 218 218 155
Width: 460
GlyphClass: 2
Flags: W
LayerCount: 2
Fore
SplineSet
133.5 15.5 m 0
 105.166992188 31.1669921875 82.8330078125 53.333984375 66.5 82.0009765625 c 0
 50.1669921875 110.66796875 42 143.66796875 42 181.000976562 c 2
 42 690.000976562 l 1
 165 690.000976562 l 1
 165 184.000976562 l 2
 165 156.000976562 170.333007812 135.500976562 181 122.500976562 c 0
 191.666992188 109.500976562 208 103.000976562 230 103.000976562 c 0
 273.333007812 103.000976562 295 130.000976562 295 184.000976562 c 2
 295 690.000976562 l 1
 418 690.000976562 l 1
 418 181.000976562 l 2
 418 143.66796875 410 110.66796875 394 82.0009765625 c 0
 378 53.333984375 355.666992188 31.1669921875 327 15.5 c 0
 298.333007812 -0.1669921875 266 -8 230 -8 c 0
 194 -8 161.833007812 -0.1669921875 133.5 15.5 c 0
247.999023438 888 m 1
 370.999023438 888 l 1
 247.999023438 752 l 1
 148.999023438 752 l 1
 247.999023438 888 l 1
EndSplineSet
EndChar

StartChar: Ucircumflex
Encoding: 219 219 156
Width: 460
GlyphClass: 2
Flags: W
LayerCount: 2
Fore
SplineSet
133.5 15.5 m 0
 105.166992188 31.1669921875 82.8330078125 53.333984375 66.5 82.0009765625 c 0
 50.1669921875 110.66796875 42 143.66796875 42 181.000976562 c 2
 42 690.000976562 l 1
 165 690.000976562 l 1
 165 184.000976562 l 2
 165 156.000976562 170.333007812 135.500976562 181 122.500976562 c 0
 191.666992188 109.500976562 208 103.000976562 230 103.000976562 c 0
 273.333007812 103.000976562 295 130.000976562 295 184.000976562 c 2
 295 690.000976562 l 1
 418 690.000976562 l 1
 418 181.000976562 l 2
 418 143.66796875 410 110.66796875 394 82.0009765625 c 0
 378 53.333984375 355.666992188 31.1669921875 327 15.5 c 0
 298.333007812 -0.1669921875 266 -8 230 -8 c 0
 194 -8 161.833007812 -0.1669921875 133.5 15.5 c 0
186.999023438 894 m 1
 269.999023438 894 l 1
 372.999023438 746 l 1
 285.999023438 746 l 1
 229.999023438 826 l 1
 172.999023438 746 l 1
 85.9990234375 746 l 1
 186.999023438 894 l 1
EndSplineSet
EndChar

StartChar: Udieresis
Encoding: 220 220 157
Width: 460
GlyphClass: 2
Flags: W
LayerCount: 2
Fore
SplineSet
133.5 15.5 m 0
 105.166992188 31.1669921875 82.8330078125 53.333984375 66.5 82.0009765625 c 0
 50.1669921875 110.66796875 42 143.66796875 42 181.000976562 c 2
 42 690.000976562 l 1
 165 690.000976562 l 1
 165 184.000976562 l 2
 165 156.000976562 170.333007812 135.500976562 181 122.500976562 c 0
 191.666992188 109.500976562 208 103.000976562 230 103.000976562 c 0
 273.333007812 103.000976562 295 130.000976562 295 184.000976562 c 2
 295 690.000976562 l 1
 418 690.000976562 l 1
 418 181.000976562 l 2
 418 143.66796875 410 110.66796875 394 82.0009765625 c 0
 378 53.333984375 355.666992188 31.1669921875 327 15.5 c 0
 298.333007812 -0.1669921875 266 -8 230 -8 c 0
 194 -8 161.833007812 -0.1669921875 133.5 15.5 c 0
104.999023438 867 m 1
 197.999023438 867 l 1
 197.999023438 753 l 1
 104.999023438 753 l 1
 104.999023438 867 l 1
260.999023438 867 m 1
 353.999023438 867 l 1
 353.999023438 753 l 1
 260.999023438 753 l 1
 260.999023438 867 l 1
EndSplineSet
EndChar

StartChar: Yacute
Encoding: 221 221 158
Width: 415
GlyphClass: 2
Flags: W
LayerCount: 2
Fore
SplineSet
269 269 m 1
 269 0 l 1
 146 0 l 1
 146 271 l 1
 6 690 l 1
 141 690 l 1
 207 426 l 1
 273 690 l 1
 409 690 l 1
 269 269 l 1
225 888 m 1
 348 888 l 1
 225 752 l 1
 126 752 l 1
 225 888 l 1
EndSplineSet
EndChar

StartChar: Thorn
Encoding: 222 222 159
Width: 434
GlyphClass: 2
Flags: W
LayerCount: 2
Fore
SplineSet
373.5 525 m 0
 402.5 489 417.000976562 434.666992188 417.000976562 362 c 0
 417.000976562 288.666992188 402.16796875 234 372.500976562 198 c 0
 342.833984375 162 294.666992188 144 228 144 c 2
 164 144 l 1
 164 0 l 1
 42 0 l 1
 42 690 l 1
 164 690 l 1
 164 579 l 1
 228 579 l 2
 296 579 344.5 561 373.5 525 c 0
278.500976562 280.5 m 0
 288.833984375 298.166992188 294.000976562 325.333007812 294.000976562 362 c 0
 294.000976562 398 288.833984375 424.666992188 278.500976562 442 c 0
 268.16796875 459.333007812 250.000976562 468 224.000976562 468 c 2
 164.000976562 468 l 1
 164.000976562 254 l 1
 224.000976562 254 l 2
 250.000976562 254 268.16796875 262.833007812 278.500976562 280.5 c 0
EndSplineSet
EndChar

StartChar: germandbls
Encoding: 223 223 160
Width: 420
GlyphClass: 2
Flags: W
LayerCount: 2
Fore
SplineSet
212 93 m 1
 227.998046875 93 l 2
 239.998046875 93 248.665039062 97.1669921875 253.998046875 105.5 c 0
 259.334960938 113.833007812 262.66796875 126.5 263.997070312 143.5 c 0
 265.330078125 160.5 265.997070312 187.666992188 265.997070312 225 c 0
 265.997070312 259 265.330078125 284 263.997070312 300 c 0
 262.6640625 316 259.331054688 328.333007812 253.998046875 337 c 0
 248.665039062 345.666992188 239.998046875 350 227.998046875 350 c 2
 209.998046875 350 l 1
 209.998046875 447 l 1
 225.998046875 447 l 2
 241.331054688 447 250.998046875 453 254.998046875 465 c 0
 258.998046875 477 260.998046875 497.333007812 260.998046875 526 c 0
 260.998046875 549.333007812 256.831054688 566.833007812 248.498046875 578.5 c 0
 240.1640625 590.166992188 227.331054688 596 209.998046875 596 c 0
 192.665039062 596 179.498046875 590.666992188 170.498046875 580 c 0
 161.498046875 569.333007812 156.998046875 554 156.998046875 534 c 2
 156.998046875 0 l 1
 40.998046875 0 l 1
 40.998046875 519 l 2
 40.998046875 639.666992188 97.3310546875 700 209.998046875 700 c 0
 262.665039062 700 303.665039062 685.5 332.998046875 656.5 c 0
 362.331054688 627.5 376.998046875 587.666992188 376.998046875 537 c 0
 376.998046875 501 373.331054688 474.166992188 365.998046875 456.5 c 0
 358.665039062 438.833007812 344.33203125 422.333007812 322.999023438 407 c 1
 340.333984375 396.333007812 353.166992188 384.5 361.499023438 371.5 c 0
 369.83203125 358.5 375.33203125 341.166992188 377.999023438 319.5 c 0
 380.666015625 297.833007812 381.999023438 266.333007812 381.999023438 225 c 0
 381.999023438 163.666992188 378.999023438 117.666992188 372.999023438 87 c 0
 366.999023438 56.3330078125 353.83203125 33.3330078125 333.499023438 18 c 0
 313.166015625 2.6669921875 281.333007812 -5 238 -5 c 2
 212 -5 l 1
 212 93 l 1
EndSplineSet
EndChar

StartChar: agrave
Encoding: 224 224 161
Width: 405
GlyphClass: 2
Flags: W
LayerCount: 2
Fore
SplineSet
321.5 490.5 m 0
 349.833007812 460.166992188 364.001953125 419.33203125 364.001953125 367.999023438 c 2
 364.001953125 -0.0009765625 l 1
 256.001953125 -0.0009765625 l 1
 256.001953125 43.9990234375 l 1
 242.001953125 25.9990234375 228.334960938 12.83203125 215.001953125 4.4990234375 c 0
 201.66796875 -3.833984375 184.334960938 -8.0009765625 163.001953125 -8.0009765625 c 0
 119.001953125 -8.0009765625 85.8349609375 6.33203125 63.501953125 34.9990234375 c 0
 41.1689453125 63.666015625 30.001953125 103.666015625 30.001953125 154.999023438 c 0
 30.001953125 204.33203125 45.001953125 242.499023438 75.001953125 269.499023438 c 0
 105.001953125 296.499023438 148.001953125 309.999023438 204.001953125 309.999023438 c 2
 248.001953125 309.999023438 l 1
 248.001953125 376.999023438 l 2
 248.001953125 395.666015625 243.834960938 409.833007812 235.501953125 419.5 c 0
 227.168945312 429.166992188 215.001953125 434 199.001953125 434 c 0
 184.334960938 434 172.66796875 429.333007812 164.000976562 420 c 0
 155.333984375 410.666992188 151.000976562 398 151.000976562 382 c 2
 151.000976562 374 l 1
 44.0009765625 374 l 1
 44.0009765625 378 l 2
 44.0009765625 430 58.66796875 469.333007812 88.0009765625 496 c 0
 117.333984375 522.666992188 155.333984375 536 202.000976562 536 c 0
 253.333984375 536 293.166992188 520.833007812 321.5 490.5 c 0
233.501953125 110.498046875 m 0
 243.168945312 122.165039062 248.001953125 137.999023438 248.001953125 157.999023438 c 2
 248.001953125 228.999023438 l 1
 218.001953125 228.999023438 l 2
 194.66796875 228.999023438 176.834960938 223.666015625 164.501953125 212.999023438 c 0
 152.168945312 202.33203125 146.001953125 184.665039062 146.001953125 159.998046875 c 0
 146.001953125 137.998046875 150.334960938 121.331054688 159.001953125 109.998046875 c 0
 167.668945312 98.6650390625 180.3359375 92.998046875 197.001953125 92.998046875 c 0
 211.668945312 92.998046875 223.8359375 98.8310546875 233.501953125 110.498046875 c 0
61.001953125 725.999023438 m 1
 184.001953125 725.999023438 l 1
 283.001953125 589.999023438 l 1
 184.001953125 589.999023438 l 1
 61.001953125 725.999023438 l 1
EndSplineSet
EndChar

StartChar: aacute
Encoding: 225 225 162
Width: 405
GlyphClass: 2
Flags: W
LayerCount: 2
Fore
SplineSet
321.5 490.5 m 0
 349.833007812 460.166992188 364.001953125 419.33203125 364.001953125 367.999023438 c 2
 364.001953125 -0.0009765625 l 1
 256.001953125 -0.0009765625 l 1
 256.001953125 43.9990234375 l 1
 242.001953125 25.9990234375 228.334960938 12.83203125 215.001953125 4.4990234375 c 0
 201.66796875 -3.833984375 184.334960938 -8.0009765625 163.001953125 -8.0009765625 c 0
 119.001953125 -8.0009765625 85.8349609375 6.33203125 63.501953125 34.9990234375 c 0
 41.1689453125 63.666015625 30.001953125 103.666015625 30.001953125 154.999023438 c 0
 30.001953125 204.33203125 45.001953125 242.499023438 75.001953125 269.499023438 c 0
 105.001953125 296.499023438 148.001953125 309.999023438 204.001953125 309.999023438 c 2
 248.001953125 309.999023438 l 1
 248.001953125 376.999023438 l 2
 248.001953125 395.666015625 243.834960938 409.833007812 235.501953125 419.5 c 0
 227.168945312 429.166992188 215.001953125 434 199.001953125 434 c 0
 184.334960938 434 172.66796875 429.333007812 164.000976562 420 c 0
 155.333984375 410.666992188 151.000976562 398 151.000976562 382 c 2
 151.000976562 374 l 1
 44.0009765625 374 l 1
 44.0009765625 378 l 2
 44.0009765625 430 58.66796875 469.333007812 88.0009765625 496 c 0
 117.333984375 522.666992188 155.333984375 536 202.000976562 536 c 0
 253.333984375 536 293.166992188 520.833007812 321.5 490.5 c 0
233.501953125 110.498046875 m 0
 243.168945312 122.165039062 248.001953125 137.999023438 248.001953125 157.999023438 c 2
 248.001953125 228.999023438 l 1
 218.001953125 228.999023438 l 2
 194.66796875 228.999023438 176.834960938 223.666015625 164.501953125 212.999023438 c 0
 152.168945312 202.33203125 146.001953125 184.665039062 146.001953125 159.998046875 c 0
 146.001953125 137.998046875 150.334960938 121.331054688 159.001953125 109.998046875 c 0
 167.668945312 98.6650390625 180.3359375 92.998046875 197.001953125 92.998046875 c 0
 211.668945312 92.998046875 223.8359375 98.8310546875 233.501953125 110.498046875 c 0
220.001953125 725.999023438 m 1
 343.001953125 725.999023438 l 1
 220.001953125 589.999023438 l 1
 121.001953125 589.999023438 l 1
 220.001953125 725.999023438 l 1
EndSplineSet
EndChar

StartChar: acircumflex
Encoding: 226 226 163
Width: 405
GlyphClass: 2
Flags: W
LayerCount: 2
Fore
SplineSet
321.5 490.5 m 0
 349.833007812 460.166992188 364.001953125 419.33203125 364.001953125 367.999023438 c 2
 364.001953125 -0.0009765625 l 1
 256.001953125 -0.0009765625 l 1
 256.001953125 43.9990234375 l 1
 242.001953125 25.9990234375 228.334960938 12.83203125 215.001953125 4.4990234375 c 0
 201.66796875 -3.833984375 184.334960938 -8.0009765625 163.001953125 -8.0009765625 c 0
 119.001953125 -8.0009765625 85.8349609375 6.33203125 63.501953125 34.9990234375 c 0
 41.1689453125 63.666015625 30.001953125 103.666015625 30.001953125 154.999023438 c 0
 30.001953125 204.33203125 45.001953125 242.499023438 75.001953125 269.499023438 c 0
 105.001953125 296.499023438 148.001953125 309.999023438 204.001953125 309.999023438 c 2
 248.001953125 309.999023438 l 1
 248.001953125 376.999023438 l 2
 248.001953125 395.666015625 243.834960938 409.833007812 235.501953125 419.5 c 0
 227.168945312 429.166992188 215.001953125 434 199.001953125 434 c 0
 184.334960938 434 172.66796875 429.333007812 164.000976562 420 c 0
 155.333984375 410.666992188 151.000976562 398 151.000976562 382 c 2
 151.000976562 374 l 1
 44.0009765625 374 l 1
 44.0009765625 378 l 2
 44.0009765625 430 58.66796875 469.333007812 88.0009765625 496 c 0
 117.333984375 522.666992188 155.333984375 536 202.000976562 536 c 0
 253.333984375 536 293.166992188 520.833007812 321.5 490.5 c 0
233.501953125 110.498046875 m 0
 243.168945312 122.165039062 248.001953125 137.999023438 248.001953125 157.999023438 c 2
 248.001953125 228.999023438 l 1
 218.001953125 228.999023438 l 2
 194.66796875 228.999023438 176.834960938 223.666015625 164.501953125 212.999023438 c 0
 152.168945312 202.33203125 146.001953125 184.665039062 146.001953125 159.998046875 c 0
 146.001953125 137.998046875 150.334960938 121.331054688 159.001953125 109.998046875 c 0
 167.668945312 98.6650390625 180.3359375 92.998046875 197.001953125 92.998046875 c 0
 211.668945312 92.998046875 223.8359375 98.8310546875 233.501953125 110.498046875 c 0
159.001953125 731.999023438 m 1
 242.001953125 731.999023438 l 1
 345.001953125 583.999023438 l 1
 258.001953125 583.999023438 l 1
 202.001953125 663.999023438 l 1
 145.001953125 583.999023438 l 1
 58.001953125 583.999023438 l 1
 159.001953125 731.999023438 l 1
EndSplineSet
EndChar

StartChar: atilde
Encoding: 227 227 164
Width: 405
GlyphClass: 2
Flags: W
LayerCount: 2
Fore
SplineSet
321.5 490.5 m 0
 349.833007812 460.166992188 364.001953125 419.33203125 364.001953125 367.999023438 c 2
 364.001953125 -0.0009765625 l 1
 256.001953125 -0.0009765625 l 1
 256.001953125 43.9990234375 l 1
 242.001953125 25.9990234375 228.334960938 12.83203125 215.001953125 4.4990234375 c 0
 201.66796875 -3.833984375 184.334960938 -8.0009765625 163.001953125 -8.0009765625 c 0
 119.001953125 -8.0009765625 85.8349609375 6.33203125 63.501953125 34.9990234375 c 0
 41.1689453125 63.666015625 30.001953125 103.666015625 30.001953125 154.999023438 c 0
 30.001953125 204.33203125 45.001953125 242.499023438 75.001953125 269.499023438 c 0
 105.001953125 296.499023438 148.001953125 309.999023438 204.001953125 309.999023438 c 2
 248.001953125 309.999023438 l 1
 248.001953125 376.999023438 l 2
 248.001953125 395.666015625 243.834960938 409.833007812 235.501953125 419.5 c 0
 227.168945312 429.166992188 215.001953125 434 199.001953125 434 c 0
 184.334960938 434 172.66796875 429.333007812 164.000976562 420 c 0
 155.333984375 410.666992188 151.000976562 398 151.000976562 382 c 2
 151.000976562 374 l 1
 44.0009765625 374 l 1
 44.0009765625 378 l 2
 44.0009765625 430 58.66796875 469.333007812 88.0009765625 496 c 0
 117.333984375 522.666992188 155.333984375 536 202.000976562 536 c 0
 253.333984375 536 293.166992188 520.833007812 321.5 490.5 c 0
233.501953125 110.498046875 m 0
 243.168945312 122.165039062 248.001953125 137.999023438 248.001953125 157.999023438 c 2
 248.001953125 228.999023438 l 1
 218.001953125 228.999023438 l 2
 194.66796875 228.999023438 176.834960938 223.666015625 164.501953125 212.999023438 c 0
 152.168945312 202.33203125 146.001953125 184.665039062 146.001953125 159.998046875 c 0
 146.001953125 137.998046875 150.334960938 121.331054688 159.001953125 109.998046875 c 0
 167.668945312 98.6650390625 180.3359375 92.998046875 197.001953125 92.998046875 c 0
 211.668945312 92.998046875 223.8359375 98.8310546875 233.501953125 110.498046875 c 0
89.001953125 681.999023438 m 1
 102.334960938 695.999023438 113.50390625 705.499023438 122.50390625 710.499023438 c 0
 131.50390625 715.499023438 142.336914062 717.999023438 155.00390625 717.999023438 c 0
 165.670898438 717.999023438 175.00390625 716.33203125 183.00390625 712.999023438 c 0
 191.00390625 709.666015625 199.336914062 704.999023438 208.00390625 698.999023438 c 0
 218.00390625 692.999023438 226.00390625 688.83203125 232.00390625 686.499023438 c 0
 238.00390625 684.166015625 245.00390625 682.999023438 253.00390625 682.999023438 c 0
 263.670898438 682.999023438 272.670898438 685.499023438 280.00390625 690.499023438 c 0
 287.337890625 695.499023438 298.670898438 705.999023438 314.002929688 721.999023438 c 1
 314.002929688 629.999023438 l 1
 301.3359375 615.999023438 290.668945312 606.33203125 282.002929688 600.999023438 c 0
 273.3359375 595.666015625 262.3359375 592.999023438 249.002929688 592.999023438 c 0
 237.668945312 592.999023438 228.3359375 594.666015625 221.002929688 597.999023438 c 0
 213.669921875 601.33203125 205.002929688 605.999023438 195.002929688 611.999023438 c 0
 185.669921875 617.33203125 178.169921875 621.33203125 172.502929688 623.999023438 c 0
 166.8359375 626.666015625 159.668945312 627.999023438 151.001953125 627.999023438 c 0
 140.334960938 627.999023438 130.834960938 625.33203125 122.501953125 619.999023438 c 0
 114.168945312 614.661132812 103.001953125 604.328125 89.001953125 588.999023438 c 1
 89.001953125 681.999023438 l 1
EndSplineSet
EndChar

StartChar: adieresis
Encoding: 228 228 165
Width: 405
GlyphClass: 2
Flags: W
LayerCount: 2
Fore
SplineSet
321.5 490.5 m 0
 349.833007812 460.166992188 364.001953125 419.33203125 364.001953125 367.999023438 c 2
 364.001953125 -0.0009765625 l 1
 256.001953125 -0.0009765625 l 1
 256.001953125 43.9990234375 l 1
 242.001953125 25.9990234375 228.334960938 12.83203125 215.001953125 4.4990234375 c 0
 201.66796875 -3.833984375 184.334960938 -8.0009765625 163.001953125 -8.0009765625 c 0
 119.001953125 -8.0009765625 85.8349609375 6.33203125 63.501953125 34.9990234375 c 0
 41.1689453125 63.666015625 30.001953125 103.666015625 30.001953125 154.999023438 c 0
 30.001953125 204.33203125 45.001953125 242.499023438 75.001953125 269.499023438 c 0
 105.001953125 296.499023438 148.001953125 309.999023438 204.001953125 309.999023438 c 2
 248.001953125 309.999023438 l 1
 248.001953125 376.999023438 l 2
 248.001953125 395.666015625 243.834960938 409.833007812 235.501953125 419.5 c 0
 227.168945312 429.166992188 215.001953125 434 199.001953125 434 c 0
 184.334960938 434 172.66796875 429.333007812 164.000976562 420 c 0
 155.333984375 410.666992188 151.000976562 398 151.000976562 382 c 2
 151.000976562 374 l 1
 44.0009765625 374 l 1
 44.0009765625 378 l 2
 44.0009765625 430 58.66796875 469.333007812 88.0009765625 496 c 0
 117.333984375 522.666992188 155.333984375 536 202.000976562 536 c 0
 253.333984375 536 293.166992188 520.833007812 321.5 490.5 c 0
233.501953125 110.498046875 m 0
 243.168945312 122.165039062 248.001953125 137.999023438 248.001953125 157.999023438 c 2
 248.001953125 228.999023438 l 1
 218.001953125 228.999023438 l 2
 194.66796875 228.999023438 176.834960938 223.666015625 164.501953125 212.999023438 c 0
 152.168945312 202.33203125 146.001953125 184.665039062 146.001953125 159.998046875 c 0
 146.001953125 137.998046875 150.334960938 121.331054688 159.001953125 109.998046875 c 0
 167.668945312 98.6650390625 180.3359375 92.998046875 197.001953125 92.998046875 c 0
 211.668945312 92.998046875 223.8359375 98.8310546875 233.501953125 110.498046875 c 0
77.001953125 704.999023438 m 1
 170.001953125 704.999023438 l 1
 170.001953125 590.999023438 l 1
 77.001953125 590.999023438 l 1
 77.001953125 704.999023438 l 1
233.001953125 704.999023438 m 1
 326.001953125 704.999023438 l 1
 326.001953125 590.999023438 l 1
 233.001953125 590.999023438 l 1
 233.001953125 704.999023438 l 1
EndSplineSet
EndChar

StartChar: aring
Encoding: 229 229 166
Width: 405
GlyphClass: 2
Flags: W
LayerCount: 2
Fore
SplineSet
321.5 490.5 m 0
 349.833007812 460.166992188 364.001953125 419.33203125 364.001953125 367.999023438 c 2
 364.001953125 -0.0009765625 l 1
 256.001953125 -0.0009765625 l 1
 256.001953125 43.9990234375 l 1
 242.001953125 25.9990234375 228.334960938 12.83203125 215.001953125 4.4990234375 c 0
 201.66796875 -3.833984375 184.334960938 -8.0009765625 163.001953125 -8.0009765625 c 0
 119.001953125 -8.0009765625 85.8349609375 6.33203125 63.501953125 34.9990234375 c 0
 41.1689453125 63.666015625 30.001953125 103.666015625 30.001953125 154.999023438 c 0
 30.001953125 204.33203125 45.001953125 242.499023438 75.001953125 269.499023438 c 0
 105.001953125 296.499023438 148.001953125 309.999023438 204.001953125 309.999023438 c 2
 248.001953125 309.999023438 l 1
 248.001953125 376.999023438 l 2
 248.001953125 395.666015625 243.834960938 409.833007812 235.501953125 419.5 c 0
 227.168945312 429.166992188 215.001953125 434 199.001953125 434 c 0
 184.334960938 434 172.66796875 429.333007812 164.000976562 420 c 0
 155.333984375 410.666992188 151.000976562 398 151.000976562 382 c 2
 151.000976562 374 l 1
 44.0009765625 374 l 1
 44.0009765625 378 l 2
 44.0009765625 430 58.66796875 469.333007812 88.0009765625 496 c 0
 117.333984375 522.666992188 155.333984375 536 202.000976562 536 c 0
 253.333984375 536 293.166992188 520.833007812 321.5 490.5 c 0
233.501953125 110.498046875 m 0
 243.168945312 122.165039062 248.001953125 137.999023438 248.001953125 157.999023438 c 2
 248.001953125 228.999023438 l 1
 218.001953125 228.999023438 l 2
 194.66796875 228.999023438 176.834960938 223.666015625 164.501953125 212.999023438 c 0
 152.168945312 202.33203125 146.001953125 184.665039062 146.001953125 159.998046875 c 0
 146.001953125 137.998046875 150.334960938 121.331054688 159.001953125 109.998046875 c 0
 167.668945312 98.6650390625 180.3359375 92.998046875 197.001953125 92.998046875 c 0
 211.668945312 92.998046875 223.8359375 98.8310546875 233.501953125 110.498046875 c 0
135.001953125 563.999023438 m 0
 117.001953125 581.999023438 108.001953125 604.33203125 108.001953125 630.999023438 c 0
 108.001953125 658.33203125 117.001953125 680.999023438 135.001953125 698.999023438 c 0
 153.001953125 716.999023438 175.334960938 725.999023438 202.001953125 725.999023438 c 0
 228.668945312 725.999023438 251.001953125 716.999023438 269.001953125 698.999023438 c 0
 287.001953125 680.999023438 296.001953125 658.33203125 296.001953125 630.999023438 c 0
 296.001953125 604.33203125 287.001953125 581.999023438 269.001953125 563.999023438 c 0
 251.001953125 545.999023438 228.668945312 536.999023438 202.001953125 536.999023438 c 0
 175.334960938 536.999023438 153.001953125 545.999023438 135.001953125 563.999023438 c 0
233.501953125 598.999023438 m 0
 241.834960938 607.669921875 246.002929688 618.337890625 246.002929688 631 c 0
 246.002929688 644.333007812 241.8359375 655.333007812 233.502929688 664 c 0
 225.169921875 672.666992188 214.669921875 677 202.002929688 677 c 0
 188.668945312 677 177.8359375 672.666992188 169.502929688 664 c 0
 161.169921875 655.333007812 157.002929688 644.333007812 157.002929688 631 c 0
 157.002929688 618.333007812 161.169921875 607.666015625 169.502929688 598.999023438 c 0
 177.8359375 590.33203125 188.668945312 585.999023438 202.001953125 585.999023438 c 0
 214.668945312 585.999023438 225.168945312 590.33203125 233.501953125 598.999023438 c 0
EndSplineSet
EndChar

StartChar: ae
Encoding: 230 230 167
Width: 621
GlyphClass: 2
Flags: W
LayerCount: 2
Fore
SplineSet
364 175 m 2
 364 121 381.333984375 93.998046875 416.000976562 93.998046875 c 0
 450.000976562 93.998046875 467.000976562 116.331054688 467.000976562 160.998046875 c 2
 467.000976562 165.998046875 l 1
 580.000976562 165.998046875 l 1
 580.000976562 159.998046875 l 2
 580.000976562 104.665039062 565.833984375 62.83203125 537.500976562 34.4990234375 c 0
 509.16796875 6.166015625 469.000976562 -8.0009765625 417.000976562 -8.0009765625 c 0
 366.333984375 -8.0009765625 327.666992188 4.9990234375 301.000976562 30.9990234375 c 1
 269.66796875 4.9990234375 232.000976562 -8.0009765625 188.000976562 -8.0009765625 c 0
 140.66796875 -8.0009765625 102.500976562 6.666015625 73.5009765625 35.9990234375 c 0
 44.5009765625 65.33203125 30.0009765625 104.999023438 30.0009765625 154.999023438 c 0
 30.0009765625 204.33203125 45.0009765625 242.499023438 75.0009765625 269.499023438 c 0
 105.000976562 296.499023438 148.000976562 309.999023438 204.000976562 309.999023438 c 2
 248.000976562 309.999023438 l 1
 248.000976562 376.999023438 l 2
 248.000976562 395.666015625 243.833984375 409.833007812 235.500976562 419.5 c 0
 227.16796875 429.166992188 215.000976562 434 199.000976562 434 c 0
 184.333984375 434 172.666992188 429.333007812 164 420 c 0
 155.333007812 410.666992188 151 398 151 382 c 2
 151 374 l 1
 44 374 l 1
 44 378 l 2
 44 430 58.6669921875 469.333007812 88 496 c 0
 117.333007812 522.666992188 155.333007812 536 202 536 c 0
 244 536 279 525.333007812 307 504 c 1
 333 525.333007812 368.333007812 536 413 536 c 0
 467 536 508.833007812 519.166992188 538.5 485.5 c 0
 568.166992188 451.833007812 583 399.333007812 583 328 c 2
 583 223 l 1
 364 223 l 1
 364 175 l 2
377.000976562 411.498046875 m 0
 368.333984375 397.831054688 364.001953125 375.998046875 364.001953125 345.998046875 c 2
 364.001953125 306.998046875 l 1
 467.001953125 306.998046875 l 1
 467.001953125 345.998046875 l 2
 467.001953125 375.998046875 462.668945312 397.831054688 454.001953125 411.498046875 c 0
 445.333984375 425.165039062 432.666992188 431.998046875 416.000976562 431.998046875 c 0
 398.66796875 431.998046875 385.66796875 425.165039062 377.000976562 411.498046875 c 0
248.001953125 228.998046875 m 1
 218.001953125 228.999023438 l 2
 194.66796875 228.999023438 176.834960938 223.666015625 164.501953125 212.999023438 c 0
 152.168945312 202.33203125 146.001953125 184.665039062 146.001953125 159.998046875 c 0
 146.001953125 137.998046875 150.334960938 121.331054688 159.001953125 109.998046875 c 0
 167.668945312 98.6650390625 180.3359375 92.998046875 197.001953125 92.998046875 c 0
 211.668945312 92.998046875 223.8359375 98.8310546875 233.501953125 110.498046875 c 0
 243.168945312 122.165039062 248.001953125 137.998046875 248.001953125 157.998046875 c 2
 248.001953125 228.998046875 l 1
EndSplineSet
EndChar

StartChar: ccedilla
Encoding: 231 231 168
Width: 407
GlyphClass: 2
Flags: W
LayerCount: 2
Fore
SplineSet
257 344 m 1
 256.998046875 362 l 2
 256.998046875 385.333007812 252.498046875 402.833007812 243.498046875 414.5 c 0
 234.498046875 426.166992188 221.998046875 432 205.998046875 432 c 0
 188.665039062 432 175.665039062 425.166992188 166.998046875 411.5 c 0
 158.331054688 397.833007812 153.998046875 376 153.998046875 346 c 2
 153.998046875 182 l 2
 153.998046875 152 158.331054688 130.166992188 166.998046875 116.5 c 0
 175.665039062 102.833007812 188.33203125 96 204.998046875 96 c 0
 221.665039062 96 234.498046875 101.833007812 243.498046875 113.5 c 0
 252.498046875 125.166992188 256.998046875 143 256.998046875 167 c 2
 256.998046875 184 l 1
 368.998046875 184 l 1
 368.998046875 167 l 2
 368.998046875 75.6669921875 335.331054688 20 267.998046875 0 c 1
 211.998046875 -158 l 1
 109.998046875 -158 l 1
 175.998046875 -6 l 1
 130.665039062 -1.3330078125 96.33203125 16 72.9990234375 46 c 0
 49.666015625 76 37.9990234375 121.666992188 37.9990234375 183 c 2
 37.9990234375 345 l 2
 37.9990234375 412.333007812 52.33203125 461 80.9990234375 491 c 0
 109.666015625 521 151.333007812 536 206 536 c 0
 258.666992188 536 299 521.666992188 327 493 c 0
 355 464.333007812 369 421.333007812 369 364 c 2
 369 344 l 1
 257 344 l 1
EndSplineSet
EndChar

StartChar: egrave
Encoding: 232 232 169
Width: 411
GlyphClass: 2
Flags: W
LayerCount: 2
Fore
SplineSet
154 223 m 1
 153.998046875 174.999023438 l 2
 153.998046875 120.999023438 171.331054688 93.9990234375 205.998046875 93.9990234375 c 0
 239.998046875 93.9990234375 256.998046875 116.33203125 256.998046875 160.999023438 c 2
 256.998046875 165.999023438 l 1
 368.998046875 165.999023438 l 1
 368.998046875 159.999023438 l 2
 368.998046875 104.666015625 354.998046875 62.8330078125 326.998046875 34.5 c 0
 298.998046875 6.1669921875 258.665039062 -8 205.998046875 -8 c 0
 152.665039062 -8 111.33203125 8 81.9990234375 40 c 0
 52.666015625 72 37.9990234375 125 37.9990234375 199 c 2
 37.9990234375 328 l 2
 37.9990234375 400 51.83203125 452.666992188 79.4990234375 486 c 0
 107.166015625 519.333007812 148.333007812 536 203 536 c 0
 257 536 298.833007812 519 328.5 485 c 0
 358.166992188 451 373 398.666992188 373 328 c 2
 373 223 l 1
 154 223 l 1
166.998046875 411.499023438 m 0
 158.331054688 397.83203125 153.999023438 375.999023438 153.999023438 345.999023438 c 2
 153.999023438 306.999023438 l 1
 256.999023438 306.999023438 l 1
 256.999023438 345.999023438 l 2
 256.999023438 375.999023438 252.666015625 397.83203125 243.999023438 411.499023438 c 0
 235.33203125 425.166015625 222.33203125 431.999023438 204.999023438 431.999023438 c 0
 188.33203125 431.999023438 175.665039062 425.166015625 166.998046875 411.499023438 c 0
63.9990234375 725.999023438 m 1
 186.999023438 725.999023438 l 1
 285.999023438 589.999023438 l 1
 186.999023438 589.999023438 l 1
 63.9990234375 725.999023438 l 1
EndSplineSet
EndChar

StartChar: eacute
Encoding: 233 233 170
Width: 411
GlyphClass: 2
Flags: W
LayerCount: 2
Fore
SplineSet
154 223 m 1
 153.998046875 174.999023438 l 2
 153.998046875 120.999023438 171.331054688 93.9990234375 205.998046875 93.9990234375 c 0
 239.998046875 93.9990234375 256.998046875 116.33203125 256.998046875 160.999023438 c 2
 256.998046875 165.999023438 l 1
 368.998046875 165.999023438 l 1
 368.998046875 159.999023438 l 2
 368.998046875 104.666015625 354.998046875 62.8330078125 326.998046875 34.5 c 0
 298.998046875 6.1669921875 258.665039062 -8 205.998046875 -8 c 0
 152.665039062 -8 111.33203125 8 81.9990234375 40 c 0
 52.666015625 72 37.9990234375 125 37.9990234375 199 c 2
 37.9990234375 328 l 2
 37.9990234375 400 51.83203125 452.666992188 79.4990234375 486 c 0
 107.166015625 519.333007812 148.333007812 536 203 536 c 0
 257 536 298.833007812 519 328.5 485 c 0
 358.166992188 451 373 398.666992188 373 328 c 2
 373 223 l 1
 154 223 l 1
166.998046875 411.499023438 m 0
 158.331054688 397.83203125 153.999023438 375.999023438 153.999023438 345.999023438 c 2
 153.999023438 306.999023438 l 1
 256.999023438 306.999023438 l 1
 256.999023438 345.999023438 l 2
 256.999023438 375.999023438 252.666015625 397.83203125 243.999023438 411.499023438 c 0
 235.33203125 425.166015625 222.33203125 431.999023438 204.999023438 431.999023438 c 0
 188.33203125 431.999023438 175.665039062 425.166015625 166.998046875 411.499023438 c 0
222.999023438 725.999023438 m 1
 345.999023438 725.999023438 l 1
 222.999023438 589.999023438 l 1
 123.999023438 589.999023438 l 1
 222.999023438 725.999023438 l 1
EndSplineSet
EndChar

StartChar: ecircumflex
Encoding: 234 234 171
Width: 411
GlyphClass: 2
Flags: W
LayerCount: 2
Fore
SplineSet
154 223 m 1
 153.998046875 174.999023438 l 2
 153.998046875 120.999023438 171.331054688 93.9990234375 205.998046875 93.9990234375 c 0
 239.998046875 93.9990234375 256.998046875 116.33203125 256.998046875 160.999023438 c 2
 256.998046875 165.999023438 l 1
 368.998046875 165.999023438 l 1
 368.998046875 159.999023438 l 2
 368.998046875 104.666015625 354.998046875 62.8330078125 326.998046875 34.5 c 0
 298.998046875 6.1669921875 258.665039062 -8 205.998046875 -8 c 0
 152.665039062 -8 111.33203125 8 81.9990234375 40 c 0
 52.666015625 72 37.9990234375 125 37.9990234375 199 c 2
 37.9990234375 328 l 2
 37.9990234375 400 51.83203125 452.666992188 79.4990234375 486 c 0
 107.166015625 519.333007812 148.333007812 536 203 536 c 0
 257 536 298.833007812 519 328.5 485 c 0
 358.166992188 451 373 398.666992188 373 328 c 2
 373 223 l 1
 154 223 l 1
166.998046875 411.499023438 m 0
 158.331054688 397.83203125 153.999023438 375.999023438 153.999023438 345.999023438 c 2
 153.999023438 306.999023438 l 1
 256.999023438 306.999023438 l 1
 256.999023438 345.999023438 l 2
 256.999023438 375.999023438 252.666015625 397.83203125 243.999023438 411.499023438 c 0
 235.33203125 425.166015625 222.33203125 431.999023438 204.999023438 431.999023438 c 0
 188.33203125 431.999023438 175.665039062 425.166015625 166.998046875 411.499023438 c 0
161.999023438 731.999023438 m 1
 244.999023438 731.999023438 l 1
 347.999023438 583.999023438 l 1
 260.999023438 583.999023438 l 1
 204.999023438 663.999023438 l 1
 147.999023438 583.999023438 l 1
 60.9990234375 583.999023438 l 1
 161.999023438 731.999023438 l 1
EndSplineSet
EndChar

StartChar: edieresis
Encoding: 235 235 172
Width: 411
GlyphClass: 2
Flags: W
LayerCount: 2
Fore
SplineSet
154 223 m 1
 153.998046875 174.999023438 l 2
 153.998046875 120.999023438 171.331054688 93.9990234375 205.998046875 93.9990234375 c 0
 239.998046875 93.9990234375 256.998046875 116.33203125 256.998046875 160.999023438 c 2
 256.998046875 165.999023438 l 1
 368.998046875 165.999023438 l 1
 368.998046875 159.999023438 l 2
 368.998046875 104.666015625 354.998046875 62.8330078125 326.998046875 34.5 c 0
 298.998046875 6.1669921875 258.665039062 -8 205.998046875 -8 c 0
 152.665039062 -8 111.33203125 8 81.9990234375 40 c 0
 52.666015625 72 37.9990234375 125 37.9990234375 199 c 2
 37.9990234375 328 l 2
 37.9990234375 400 51.83203125 452.666992188 79.4990234375 486 c 0
 107.166015625 519.333007812 148.333007812 536 203 536 c 0
 257 536 298.833007812 519 328.5 485 c 0
 358.166992188 451 373 398.666992188 373 328 c 2
 373 223 l 1
 154 223 l 1
166.998046875 411.499023438 m 0
 158.331054688 397.83203125 153.999023438 375.999023438 153.999023438 345.999023438 c 2
 153.999023438 306.999023438 l 1
 256.999023438 306.999023438 l 1
 256.999023438 345.999023438 l 2
 256.999023438 375.999023438 252.666015625 397.83203125 243.999023438 411.499023438 c 0
 235.33203125 425.166015625 222.33203125 431.999023438 204.999023438 431.999023438 c 0
 188.33203125 431.999023438 175.665039062 425.166015625 166.998046875 411.499023438 c 0
79.9990234375 704.999023438 m 1
 172.999023438 704.999023438 l 1
 172.999023438 590.999023438 l 1
 79.9990234375 590.999023438 l 1
 79.9990234375 704.999023438 l 1
235.999023438 704.999023438 m 1
 328.999023438 704.999023438 l 1
 328.999023438 590.999023438 l 1
 235.999023438 590.999023438 l 1
 235.999023438 704.999023438 l 1
EndSplineSet
EndChar

StartChar: igrave
Encoding: 236 236 173
Width: 206
GlyphClass: 2
Flags: W
LayerCount: 2
Fore
SplineSet
45 528 m 1
 161 528 l 1
 161 0 l 1
 45 0 l 1
 45 528 l 1
-38 724 m 1
 85 724 l 1
 184 588 l 1
 85 588 l 1
 -38 724 l 1
EndSplineSet
EndChar

StartChar: iacute
Encoding: 237 237 174
Width: 206
GlyphClass: 2
Flags: W
LayerCount: 2
Fore
SplineSet
45 528 m 1
 161 528 l 1
 161 0 l 1
 45 0 l 1
 45 528 l 1
121 724 m 1
 244 724 l 1
 121 588 l 1
 22 588 l 1
 121 724 l 1
EndSplineSet
EndChar

StartChar: icircumflex
Encoding: 238 238 175
Width: 206
GlyphClass: 2
Flags: W
LayerCount: 2
Fore
SplineSet
45 528 m 1
 161 528 l 1
 161 0 l 1
 45 0 l 1
 45 528 l 1
60 730 m 1
 143 730 l 1
 246 582 l 1
 159 582 l 1
 103 662 l 1
 46 582 l 1
 -41 582 l 1
 60 730 l 1
EndSplineSet
EndChar

StartChar: idieresis
Encoding: 239 239 176
Width: 206
GlyphClass: 2
Flags: W
LayerCount: 2
Fore
SplineSet
45 528 m 1
 161 528 l 1
 161 0 l 1
 45 0 l 1
 45 528 l 1
-22 703 m 1
 71 703 l 1
 71 589 l 1
 -22 589 l 1
 -22 703 l 1
134 703 m 1
 227 703 l 1
 227 589 l 1
 134 589 l 1
 134 703 l 1
EndSplineSet
EndChar

StartChar: eth
Encoding: 240 240 177
Width: 399
GlyphClass: 2
Flags: W
LayerCount: 2
Fore
SplineSet
347 393 m 0
 356.333007812 360.333007812 361 322.333984375 361 279.000976562 c 2
 361 177.000976562 l 2
 361 116.333984375 347.166992188 70.0009765625 319.5 38.0009765625 c 0
 291.833007812 6.0009765625 251.333007812 -9.9990234375 198 -9.9990234375 c 0
 145.333007812 -9.9990234375 105.5 5.833984375 78.5 37.5009765625 c 0
 51.5 69.16796875 38 115.66796875 38 177.000976562 c 2
 38 285.000976562 l 2
 38 343.000976562 49 387.000976562 71 417.000976562 c 0
 93 447.000976562 125.333007812 462.000976562 168 462.000976562 c 0
 185.333007812 462.000976562 202.333007812 458.66796875 219 452.000976562 c 1
 175 538.000976562 l 1
 91 511.000976562 l 1
 66 585.000976562 l 1
 138 608.000976562 l 1
 92 698.000976562 l 1
 203 698.000976562 l 1
 233 638.000976562 l 1
 307 662.000976562 l 1
 331 587.000976562 l 1
 269 567.000976562 l 1
 296 515.000976562 l 2
 320.666992188 466.333984375 337.666992188 425.666992188 347 393 c 0
245 296.000976562 m 2
 245 314.66796875 241.16796875 328.833984375 233.500976562 338.500976562 c 0
 225.833984375 348.16796875 214.666992188 353.000976562 200 353.000976562 c 0
 185.333007812 353.000976562 174 348.16796875 166 338.500976562 c 0
 158 328.833984375 154 314.666992188 154 296.000976562 c 2
 154 165.000976562 l 2
 154 145.000976562 158 129.500976562 166 118.500976562 c 0
 174 107.500976562 185.333007812 102.000976562 200 102.000976562 c 0
 214.666992188 102.000976562 225.833984375 107.500976562 233.5 118.500976562 c 0
 241.166992188 129.500976562 245 145.000976562 245 165.000976562 c 2
 245 296.000976562 l 2
EndSplineSet
EndChar

StartChar: ntilde
Encoding: 241 241 178
Width: 410
GlyphClass: 2
Flags: W
LayerCount: 2
Fore
SplineSet
41 528 m 1
 152.000976562 528 l 1
 152.000976562 489 l 1
 176.66796875 520.333007812 206.000976562 536 240.000976562 536 c 0
 326.000976562 536 369.000976562 483 369.000976562 377 c 2
 369.000976562 0 l 1
 253.000976562 0 l 1
 253.000976562 376 l 2
 253.000976562 394 248.500976562 407.833007812 239.500976562 417.5 c 0
 230.500976562 427.166992188 219.000976562 432 205.000976562 432 c 0
 190.333984375 432 178.666992188 427.166992188 170 417.5 c 0
 161.333007812 407.833007812 157 394 157 376 c 2
 157 0 l 1
 41 0 l 1
 41 528 l 1
92.0009765625 682 m 1
 105.333984375 696 116.502929688 705.5 125.502929688 710.5 c 0
 134.502929688 715.5 145.3359375 718 158.002929688 718 c 0
 168.669921875 718 178.002929688 716.333007812 186.002929688 713 c 0
 194.002929688 709.666992188 202.3359375 705 211.002929688 699 c 0
 221.002929688 693 229.002929688 688.833007812 235.002929688 686.5 c 0
 241.002929688 684.166992188 248.002929688 683 256.002929688 683 c 0
 266.669921875 683 275.669921875 685.5 283.002929688 690.5 c 0
 290.336914062 695.5 301.669921875 706 317.002929688 722 c 1
 317.002929688 630 l 1
 304.334960938 616 293.66796875 606.333007812 285.001953125 601 c 0
 276.334960938 595.666992188 265.334960938 593 252.001953125 593 c 0
 240.66796875 593 231.334960938 594.666992188 224.001953125 598 c 0
 216.668945312 601.333007812 208.001953125 606 198.001953125 612 c 0
 188.668945312 617.333007812 181.168945312 621.333007812 175.501953125 624 c 0
 169.834960938 626.666992188 162.66796875 628 154.000976562 628 c 0
 143.333984375 628 133.833984375 625.333007812 125.500976562 620 c 0
 117.16796875 614.662109375 106.000976562 604.329101562 92.0009765625 589 c 1
 92.0009765625 682 l 1
EndSplineSet
EndChar

StartChar: ograve
Encoding: 242 242 179
Width: 411
GlyphClass: 2
Flags: W
LayerCount: 2
Fore
SplineSet
81 37 m 0
 52.3330078125 67 38 115.666992188 38 183 c 2
 38 345 l 2
 38 412.333007812 52.3330078125 461 81 491 c 0
 109.666992188 521 151.333984375 536 206.000976562 536 c 0
 260.66796875 536 302.16796875 521 330.500976562 491 c 0
 358.833984375 461 373.000976562 412.333007812 373.000976562 345 c 2
 373.000976562 183 l 2
 373.000976562 115.666992188 358.833984375 67 330.500976562 37 c 0
 302.16796875 7 260.66796875 -8 206.000976562 -8 c 0
 151.333984375 -8 109.666992188 7 81 37 c 0
244 116.5 m 0
 252.666992188 130.166992188 257.000976562 152 257.000976562 182 c 2
 257.000976562 346 l 2
 257.000976562 376 252.66796875 397.833007812 244.000976562 411.5 c 0
 235.333984375 425.166992188 222.333984375 432 205.000976562 432 c 0
 188.333984375 432 175.666992188 425.166992188 167 411.5 c 0
 158.333007812 397.833007812 154 376 154 346 c 2
 154 182 l 2
 154 152 158.333007812 130.166992188 167 116.5 c 0
 175.666992188 102.833007812 188.333984375 96 205 96 c 0
 222.333007812 96 235.333007812 102.833007812 244 116.5 c 0
64.0009765625 726 m 1
 187.000976562 726 l 1
 286.000976562 590 l 1
 187.000976562 590 l 1
 64.0009765625 726 l 1
EndSplineSet
EndChar

StartChar: oacute
Encoding: 243 243 180
Width: 411
GlyphClass: 2
Flags: W
LayerCount: 2
Fore
SplineSet
81 37 m 0
 52.3330078125 67 38 115.666992188 38 183 c 2
 38 345 l 2
 38 412.333007812 52.3330078125 461 81 491 c 0
 109.666992188 521 151.333984375 536 206.000976562 536 c 0
 260.66796875 536 302.16796875 521 330.500976562 491 c 0
 358.833984375 461 373.000976562 412.333007812 373.000976562 345 c 2
 373.000976562 183 l 2
 373.000976562 115.666992188 358.833984375 67 330.500976562 37 c 0
 302.16796875 7 260.66796875 -8 206.000976562 -8 c 0
 151.333984375 -8 109.666992188 7 81 37 c 0
244 116.5 m 0
 252.666992188 130.166992188 257.000976562 152 257.000976562 182 c 2
 257.000976562 346 l 2
 257.000976562 376 252.66796875 397.833007812 244.000976562 411.5 c 0
 235.333984375 425.166992188 222.333984375 432 205.000976562 432 c 0
 188.333984375 432 175.666992188 425.166992188 167 411.5 c 0
 158.333007812 397.833007812 154 376 154 346 c 2
 154 182 l 2
 154 152 158.333007812 130.166992188 167 116.5 c 0
 175.666992188 102.833007812 188.333984375 96 205 96 c 0
 222.333007812 96 235.333007812 102.833007812 244 116.5 c 0
223.000976562 726 m 1
 346.000976562 726 l 1
 223.000976562 590 l 1
 124.000976562 590 l 1
 223.000976562 726 l 1
EndSplineSet
EndChar

StartChar: ocircumflex
Encoding: 244 244 181
Width: 411
GlyphClass: 2
Flags: W
LayerCount: 2
Fore
SplineSet
81 37 m 0
 52.3330078125 67 38 115.666992188 38 183 c 2
 38 345 l 2
 38 412.333007812 52.3330078125 461 81 491 c 0
 109.666992188 521 151.333984375 536 206.000976562 536 c 0
 260.66796875 536 302.16796875 521 330.500976562 491 c 0
 358.833984375 461 373.000976562 412.333007812 373.000976562 345 c 2
 373.000976562 183 l 2
 373.000976562 115.666992188 358.833984375 67 330.500976562 37 c 0
 302.16796875 7 260.66796875 -8 206.000976562 -8 c 0
 151.333984375 -8 109.666992188 7 81 37 c 0
244 116.5 m 0
 252.666992188 130.166992188 257.000976562 152 257.000976562 182 c 2
 257.000976562 346 l 2
 257.000976562 376 252.66796875 397.833007812 244.000976562 411.5 c 0
 235.333984375 425.166992188 222.333984375 432 205.000976562 432 c 0
 188.333984375 432 175.666992188 425.166992188 167 411.5 c 0
 158.333007812 397.833007812 154 376 154 346 c 2
 154 182 l 2
 154 152 158.333007812 130.166992188 167 116.5 c 0
 175.666992188 102.833007812 188.333984375 96 205 96 c 0
 222.333007812 96 235.333007812 102.833007812 244 116.5 c 0
162.000976562 732 m 1
 245.000976562 732 l 1
 348.000976562 584 l 1
 261.000976562 584 l 1
 205.000976562 664 l 1
 148.000976562 584 l 1
 61.0009765625 584 l 1
 162.000976562 732 l 1
EndSplineSet
EndChar

StartChar: otilde
Encoding: 245 245 182
Width: 411
GlyphClass: 2
Flags: W
LayerCount: 2
Fore
SplineSet
81 37 m 0
 52.3330078125 67 38 115.666992188 38 183 c 2
 38 345 l 2
 38 412.333007812 52.3330078125 461 81 491 c 0
 109.666992188 521 151.333984375 536 206.000976562 536 c 0
 260.66796875 536 302.16796875 521 330.500976562 491 c 0
 358.833984375 461 373.000976562 412.333007812 373.000976562 345 c 2
 373.000976562 183 l 2
 373.000976562 115.666992188 358.833984375 67 330.500976562 37 c 0
 302.16796875 7 260.66796875 -8 206.000976562 -8 c 0
 151.333984375 -8 109.666992188 7 81 37 c 0
244 116.5 m 0
 252.666992188 130.166992188 257.000976562 152 257.000976562 182 c 2
 257.000976562 346 l 2
 257.000976562 376 252.66796875 397.833007812 244.000976562 411.5 c 0
 235.333984375 425.166992188 222.333984375 432 205.000976562 432 c 0
 188.333984375 432 175.666992188 425.166992188 167 411.5 c 0
 158.333007812 397.833007812 154 376 154 346 c 2
 154 182 l 2
 154 152 158.333007812 130.166992188 167 116.5 c 0
 175.666992188 102.833007812 188.333984375 96 205 96 c 0
 222.333007812 96 235.333007812 102.833007812 244 116.5 c 0
92.0009765625 682 m 1
 105.333984375 696 116.502929688 705.5 125.502929688 710.5 c 0
 134.502929688 715.5 145.3359375 718 158.002929688 718 c 0
 168.669921875 718 178.002929688 716.333007812 186.002929688 713 c 0
 194.002929688 709.666992188 202.3359375 705 211.002929688 699 c 0
 221.002929688 693 229.002929688 688.833007812 235.002929688 686.5 c 0
 241.002929688 684.166992188 248.002929688 683 256.002929688 683 c 0
 266.669921875 683 275.669921875 685.5 283.002929688 690.5 c 0
 290.336914062 695.5 301.669921875 706 317.002929688 722 c 1
 317.002929688 630 l 1
 304.334960938 616 293.66796875 606.333007812 285.001953125 601 c 0
 276.334960938 595.666992188 265.334960938 593 252.001953125 593 c 0
 240.66796875 593 231.334960938 594.666992188 224.001953125 598 c 0
 216.668945312 601.333007812 208.001953125 606 198.001953125 612 c 0
 188.668945312 617.333007812 181.168945312 621.333007812 175.501953125 624 c 0
 169.834960938 626.666992188 162.66796875 628 154.000976562 628 c 0
 143.333984375 628 133.833984375 625.333007812 125.500976562 620 c 0
 117.16796875 614.662109375 106.000976562 604.329101562 92.0009765625 589 c 1
 92.0009765625 682 l 1
EndSplineSet
EndChar

StartChar: odieresis
Encoding: 246 246 183
Width: 411
GlyphClass: 2
Flags: W
LayerCount: 2
Fore
SplineSet
81 37 m 0
 52.3330078125 67 38 115.666992188 38 183 c 2
 38 345 l 2
 38 412.333007812 52.3330078125 461 81 491 c 0
 109.666992188 521 151.333984375 536 206.000976562 536 c 0
 260.66796875 536 302.16796875 521 330.500976562 491 c 0
 358.833984375 461 373.000976562 412.333007812 373.000976562 345 c 2
 373.000976562 183 l 2
 373.000976562 115.666992188 358.833984375 67 330.500976562 37 c 0
 302.16796875 7 260.66796875 -8 206.000976562 -8 c 0
 151.333984375 -8 109.666992188 7 81 37 c 0
244 116.5 m 0
 252.666992188 130.166992188 257.000976562 152 257.000976562 182 c 2
 257.000976562 346 l 2
 257.000976562 376 252.66796875 397.833007812 244.000976562 411.5 c 0
 235.333984375 425.166992188 222.333984375 432 205.000976562 432 c 0
 188.333984375 432 175.666992188 425.166992188 167 411.5 c 0
 158.333007812 397.833007812 154 376 154 346 c 2
 154 182 l 2
 154 152 158.333007812 130.166992188 167 116.5 c 0
 175.666992188 102.833007812 188.333984375 96 205 96 c 0
 222.333007812 96 235.333007812 102.833007812 244 116.5 c 0
80.0009765625 705 m 1
 173.000976562 705 l 1
 173.000976562 591 l 1
 80.0009765625 591 l 1
 80.0009765625 705 l 1
236.000976562 705 m 1
 329.000976562 705 l 1
 329.000976562 591 l 1
 236.000976562 591 l 1
 236.000976562 705 l 1
EndSplineSet
EndChar

StartChar: divide
Encoding: 247 247 184
Width: 419
GlyphClass: 2
Flags: W
LayerCount: 2
Fore
SplineSet
164.5 395 m 0
 152.166992188 407.666992188 146.000976562 422.666992188 146.000976562 440 c 0
 146.000976562 457.333984375 152.16796875 472.166992188 164.500976562 484.499023438 c 0
 176.833984375 496.83203125 191.666992188 502.999023438 209 502.999023438 c 0
 226.333007812 502.999023438 241.333007812 496.83203125 254 484.499023438 c 0
 266.666992188 472.166015625 273 457.333007812 273 440 c 0
 273 422.666992188 266.666992188 407.666992188 254 395 c 0
 241.333007812 382.333007812 226.333007812 376 209 376 c 0
 191.666015625 376 176.833007812 382.333007812 164.5 395 c 0
32.0009765625 331 m 1
 387.000976562 331 l 1
 387.000976562 220 l 1
 32.0009765625 220 l 1
 32.0009765625 331 l 1
164.500976562 70.5 m 0
 152.16796875 82.8330078125 146.001953125 97.666015625 146.001953125 114.999023438 c 0
 146.001953125 132.33203125 152.168945312 147.33203125 164.501953125 159.999023438 c 0
 176.834960938 172.666015625 191.66796875 178.999023438 209.000976562 178.999023438 c 0
 226.333984375 178.999023438 241.333984375 172.666015625 254.000976562 159.999023438 c 0
 266.66796875 147.33203125 273.000976562 132.33203125 273.000976562 114.999023438 c 0
 273.000976562 97.666015625 266.66796875 82.8330078125 254.000976562 70.5 c 0
 241.333984375 58.1669921875 226.333984375 52 209.000976562 52 c 0
 191.666992188 52 176.833984375 58.1669921875 164.500976562 70.5 c 0
EndSplineSet
EndChar

StartChar: oslash
Encoding: 248 248 185
Width: 411
GlyphClass: 2
Flags: W
LayerCount: 2
Fore
SplineSet
338 482 m 1
 361.333007812 451.333007812 372.999023438 405.666015625 372.999023438 345 c 2
 372.999023438 183 l 2
 372.999023438 115.666992188 358.83203125 67 330.499023438 37 c 0
 302.166015625 7 260.666015625 -8 205.999023438 -8 c 0
 167.999023438 -8 136.666015625 -1.3330078125 111.999023438 12 c 1
 91.9990234375 -29 l 1
 37.9990234375 -29 l 1
 73.9990234375 45 l 1
 49.9990234375 77.6669921875 37.9990234375 123.666992188 37.9990234375 183 c 2
 37.9990234375 345 l 2
 37.9990234375 412.333007812 52.33203125 461 80.9990234375 491 c 0
 109.666015625 521 151.333007812 536 206 536 c 0
 244.666992188 536 276 529 300 515 c 1
 319 555 l 1
 373 555 l 1
 338 482 l 1
153.999023438 212 m 1
 247 406 l 1
 239 423.333007812 225 432 205 432 c 0
 188.333007812 432 175.666015625 425.166992188 166.999023438 411.5 c 0
 158.33203125 397.833007812 153.999023438 376 153.999023438 346 c 2
 153.999023438 212 l 1
257 314 m 1
 164 121 l 1
 172.666992188 104.333007812 186.333984375 96 205 96 c 0
 222.333007812 96 235.333007812 102.833007812 244 116.5 c 0
 252.666992188 130.166992188 257 152 257 182 c 2
 257 314 l 1
EndSplineSet
EndChar

StartChar: ugrave
Encoding: 249 249 186
Width: 410
GlyphClass: 2
Flags: W
LayerCount: 2
Fore
SplineSet
75.5 38.5 m 0
 52.5 69.5 40.9990234375 115.666992188 40.9990234375 177 c 2
 40.9990234375 528 l 1
 156.999023438 528 l 1
 156.999023438 201 l 2
 156.999023438 173.666015625 157.83203125 153.333007812 159.499023438 140 c 0
 161.166015625 126.666992188 165.333007812 116 171.999023438 108 c 0
 178.666015625 100 189.666015625 96 204.999023438 96 c 0
 220.33203125 96 231.33203125 99.5 237.999023438 106.5 c 0
 244.666992188 113.5 248.833984375 123.666992188 250.5 137 c 0
 252.166992188 150.333007812 253 171.666015625 253 200.999023438 c 2
 253 527.999023438 l 1
 369 527.999023438 l 1
 369 176.999023438 l 2
 369 134.999023438 364.333007812 100.83203125 355 74.4990234375 c 0
 345.666992188 48.166015625 329.166992188 27.8330078125 305.5 13.5 c 0
 281.833007812 -0.8330078125 248.333007812 -8 205 -8 c 0
 141.666992188 -8 98.5 7.5 75.5 38.5 c 0
63.9990234375 726 m 1
 186.999023438 726 l 1
 285.999023438 590 l 1
 186.999023438 590 l 1
 63.9990234375 726 l 1
EndSplineSet
EndChar

StartChar: uacute
Encoding: 250 250 187
Width: 410
GlyphClass: 2
Flags: W
LayerCount: 2
Fore
SplineSet
75.5 38.5 m 0
 52.5 69.5 40.9990234375 115.666992188 40.9990234375 177 c 2
 40.9990234375 528 l 1
 156.999023438 528 l 1
 156.999023438 201 l 2
 156.999023438 173.666015625 157.83203125 153.333007812 159.499023438 140 c 0
 161.166015625 126.666992188 165.333007812 116 171.999023438 108 c 0
 178.666015625 100 189.666015625 96 204.999023438 96 c 0
 220.33203125 96 231.33203125 99.5 237.999023438 106.5 c 0
 244.666992188 113.5 248.833984375 123.666992188 250.5 137 c 0
 252.166992188 150.333007812 253 171.666015625 253 200.999023438 c 2
 253 527.999023438 l 1
 369 527.999023438 l 1
 369 176.999023438 l 2
 369 134.999023438 364.333007812 100.83203125 355 74.4990234375 c 0
 345.666992188 48.166015625 329.166992188 27.8330078125 305.5 13.5 c 0
 281.833007812 -0.8330078125 248.333007812 -8 205 -8 c 0
 141.666992188 -8 98.5 7.5 75.5 38.5 c 0
222.999023438 726 m 1
 345.999023438 726 l 1
 222.999023438 590 l 1
 123.999023438 590 l 1
 222.999023438 726 l 1
EndSplineSet
EndChar

StartChar: ucircumflex
Encoding: 251 251 188
Width: 410
GlyphClass: 2
Flags: W
LayerCount: 2
Fore
SplineSet
75.5 38.5 m 0
 52.5 69.5 40.9990234375 115.666992188 40.9990234375 177 c 2
 40.9990234375 528 l 1
 156.999023438 528 l 1
 156.999023438 201 l 2
 156.999023438 173.666015625 157.83203125 153.333007812 159.499023438 140 c 0
 161.166015625 126.666992188 165.333007812 116 171.999023438 108 c 0
 178.666015625 100 189.666015625 96 204.999023438 96 c 0
 220.33203125 96 231.33203125 99.5 237.999023438 106.5 c 0
 244.666992188 113.5 248.833984375 123.666992188 250.5 137 c 0
 252.166992188 150.333007812 253 171.666015625 253 200.999023438 c 2
 253 527.999023438 l 1
 369 527.999023438 l 1
 369 176.999023438 l 2
 369 134.999023438 364.333007812 100.83203125 355 74.4990234375 c 0
 345.666992188 48.166015625 329.166992188 27.8330078125 305.5 13.5 c 0
 281.833007812 -0.8330078125 248.333007812 -8 205 -8 c 0
 141.666992188 -8 98.5 7.5 75.5 38.5 c 0
161.999023438 732 m 1
 244.999023438 732 l 1
 347.999023438 584 l 1
 260.999023438 584 l 1
 204.999023438 664 l 1
 147.999023438 584 l 1
 60.9990234375 584 l 1
 161.999023438 732 l 1
EndSplineSet
EndChar

StartChar: udieresis
Encoding: 252 252 189
Width: 410
GlyphClass: 2
Flags: W
LayerCount: 2
Fore
SplineSet
75.5 38.5 m 0
 52.5 69.5 40.9990234375 115.666992188 40.9990234375 177 c 2
 40.9990234375 528 l 1
 156.999023438 528 l 1
 156.999023438 201 l 2
 156.999023438 173.666015625 157.83203125 153.333007812 159.499023438 140 c 0
 161.166015625 126.666992188 165.333007812 116 171.999023438 108 c 0
 178.666015625 100 189.666015625 96 204.999023438 96 c 0
 220.33203125 96 231.33203125 99.5 237.999023438 106.5 c 0
 244.666992188 113.5 248.833984375 123.666992188 250.5 137 c 0
 252.166992188 150.333007812 253 171.666015625 253 200.999023438 c 2
 253 527.999023438 l 1
 369 527.999023438 l 1
 369 176.999023438 l 2
 369 134.999023438 364.333007812 100.83203125 355 74.4990234375 c 0
 345.666992188 48.166015625 329.166992188 27.8330078125 305.5 13.5 c 0
 281.833007812 -0.8330078125 248.333007812 -8 205 -8 c 0
 141.666992188 -8 98.5 7.5 75.5 38.5 c 0
79.9990234375 705 m 1
 172.999023438 705 l 1
 172.999023438 591 l 1
 79.9990234375 591 l 1
 79.9990234375 705 l 1
235.999023438 705 m 1
 328.999023438 705 l 1
 328.999023438 591 l 1
 235.999023438 591 l 1
 235.999023438 705 l 1
EndSplineSet
EndChar

StartChar: yacute
Encoding: 253 253 190
Width: 409
GlyphClass: 2
Flags: W
LayerCount: 2
Fore
SplineSet
398 528 m 1
 255 -38.0009765625 l 2
 247 -70.66796875 234.5 -95.66796875 217.5 -113.000976562 c 0
 200.5 -130.333984375 179 -142.166992188 153 -148.5 c 0
 127 -154.833007812 93.6669921875 -158 53 -158 c 2
 49 -158 l 1
 49 -56 l 1
 91 -56 l 2
 125.666992188 -56 148 -47 158 -29 c 1
 11 528 l 1
 139 528 l 1
 210 207 l 1
 276 528 l 1
 398 528 l 1
223 725.999023438 m 1
 346 725.999023438 l 1
 223 589.999023438 l 1
 124 589.999023438 l 1
 223 725.999023438 l 1
EndSplineSet
EndChar

StartChar: thorn
Encoding: 254 254 191
Width: 410
GlyphClass: 2
Flags: W
LayerCount: 2
Fore
SplineSet
41 690 m 1
 156.999023438 689.999023438 l 1
 156.999023438 485.999023438 l 1
 166.33203125 502.000976562 178.499023438 514.333984375 193.499023438 522.999023438 c 0
 208.499023438 531.666015625 225.999023438 535.999023438 245.999023438 535.999023438 c 0
 284.666015625 535.999023438 315.333007812 522.33203125 338 494.999023438 c 0
 360.666992188 467.666015625 372 424.333007812 372 365 c 2
 372 163 l 2
 372 103.666992188 360.166992188 60.333984375 336.5 33.0009765625 c 0
 312.833007812 5.66796875 282 -7.9990234375 244 -7.9990234375 c 0
 225.333007812 -7.9990234375 208.833007812 -4.33203125 194.5 3.0009765625 c 0
 180.166015625 10.333984375 166.333007812 21.6669921875 153 37 c 1
 153 -158 l 1
 41 -158 l 1
 41 690 l 1
243.499023438 115.999023438 m 0
 251.83203125 129.33203125 256 151.33203125 256 181.999023438 c 2
 256 345.999023438 l 2
 256 375.999023438 251.833007812 397.83203125 243.5 411.499023438 c 0
 235.166992188 425.166015625 222.666992188 431.999023438 206 431.999023438 c 0
 189.333007812 431.999023438 176.666015625 425.166015625 167.999023438 411.499023438 c 0
 159.33203125 397.83203125 154.999023438 375.999023438 154.999023438 345.999023438 c 2
 154.999023438 181.999023438 l 2
 154.999023438 124.666015625 171.999023438 95.9990234375 205.999023438 95.9990234375 c 0
 222.666015625 95.9990234375 235.166015625 102.666015625 243.499023438 115.999023438 c 0
EndSplineSet
EndChar

StartChar: ydieresis
Encoding: 255 255 192
Width: 409
GlyphClass: 2
Flags: W
LayerCount: 2
Fore
SplineSet
398 528 m 1
 255 -38.0009765625 l 2
 247 -70.66796875 234.5 -95.66796875 217.5 -113.000976562 c 0
 200.5 -130.333984375 179 -142.166992188 153 -148.5 c 0
 127 -154.833007812 93.6669921875 -158 53 -158 c 2
 49 -158 l 1
 49 -56 l 1
 91 -56 l 2
 125.666992188 -56 148 -47 158 -29 c 1
 11 528 l 1
 139 528 l 1
 210 207 l 1
 276 528 l 1
 398 528 l 1
80 704.999023438 m 1
 173 704.999023438 l 1
 173 590.999023438 l 1
 80 590.999023438 l 1
 80 704.999023438 l 1
236 704.999023438 m 1
 329 704.999023438 l 1
 329 590.999023438 l 1
 236 590.999023438 l 1
 236 704.999023438 l 1
EndSplineSet
EndChar

StartChar: dotlessi
Encoding: 305 305 193
Width: 206
GlyphClass: 2
Flags: W
LayerCount: 2
Fore
SplineSet
45 528 m 1
 161 528 l 1
 161 0 l 1
 45 0 l 1
 45 528 l 1
EndSplineSet
EndChar

StartChar: OE
Encoding: 338 338 194
Width: 641
GlyphClass: 2
Flags: W
LayerCount: 2
Fore
SplineSet
430 579 m 1
 429.998046875 406 l 1
 589.998046875 406 l 1
 589.998046875 296 l 1
 429.998046875 296 l 1
 429.998046875 110 l 1
 615.998046875 110 l 1
 615.998046875 0 l 1
 323.998046875 0 l 1
 323.998046875 28 l 1
 292.665039062 4 256.33203125 -8 214.999023438 -8 c 0
 156.999023438 -8 112.999023438 8.5 82.9990234375 41.5 c 0
 52.9990234375 74.5 37.9990234375 124 37.9990234375 190 c 2
 37.9990234375 501 l 2
 37.9990234375 567.666992188 53.83203125 617.5 85.4990234375 650.5 c 0
 117.166015625 683.5 162.333007812 700 221 700 c 0
 260.333984375 700 294.666992188 689.666992188 324 669 c 1
 324 690 l 1
 616 690 l 1
 616 579 l 1
 430 579 l 1
306.998046875 481 m 2
 306.998046875 516.333007812 300.998046875 543.166992188 288.998046875 561.5 c 0
 276.998046875 579.833007812 258.998046875 589 234.998046875 589 c 0
 208.998046875 589 190.165039062 580 178.498046875 562 c 0
 166.831054688 544 160.998046875 517 160.998046875 481 c 2
 160.998046875 204 l 2
 160.998046875 136.666992188 185.665039062 103 234.998046875 103 c 0
 258.33203125 103 276.165039062 111.833007812 288.498046875 129.5 c 0
 300.831054688 147.166992188 306.998046875 172 306.998046875 204 c 2
 306.998046875 481 l 2
EndSplineSet
EndChar

StartChar: oe
Encoding: 339 339 195
Width: 630
GlyphClass: 2
Flags: W
LayerCount: 2
Fore
SplineSet
373 175 m 2
 373 121 390.333984375 93.9990234375 425.000976562 93.9990234375 c 0
 459.000976562 93.9990234375 476.000976562 116.33203125 476.000976562 160.999023438 c 2
 476.000976562 165.999023438 l 1
 588.000976562 165.999023438 l 1
 588.000976562 159.999023438 l 2
 588.000976562 104.666015625 574.000976562 62.8330078125 546.000976562 34.5 c 0
 518.000976562 6.1669921875 477.66796875 -8 425.000976562 -8 c 0
 379.000976562 -8 343.000976562 2.6669921875 317.000976562 24 c 1
 289.66796875 2.6669921875 252.66796875 -8 206.000976562 -8 c 0
 151.333984375 -8 109.666992188 7 81 37 c 0
 52.3330078125 67 38 115.666992188 38 183 c 2
 38 345 l 2
 38 412.333007812 52.3330078125 461 81 491 c 0
 109.666992188 521 151.333984375 536 206.000976562 536 c 0
 252.66796875 536 289.66796875 525.333007812 317.000976562 504 c 1
 342.333984375 525.333007812 377.333984375 536 422.000976562 536 c 0
 476.000976562 536 517.833984375 519 547.5 485 c 0
 577.166992188 451 592 398.666992188 592 328 c 2
 592 223 l 1
 373 223 l 1
 373 175 l 2
257.000976562 345.999023438 m 2
 257.000976562 375.999023438 252.668945312 397.83203125 244.001953125 411.499023438 c 0
 235.334960938 425.166015625 222.334960938 431.999023438 205.001953125 431.999023438 c 0
 188.334960938 431.999023438 175.66796875 425.166015625 167.000976562 411.499023438 c 0
 158.333984375 397.83203125 154.000976562 375.999023438 154.000976562 345.999023438 c 2
 154.000976562 181.999023438 l 2
 154.000976562 151.999023438 158.333984375 130.166015625 167.000976562 116.499023438 c 0
 175.66796875 102.83203125 188.334960938 95.9990234375 205.000976562 95.9990234375 c 0
 222.333984375 95.9990234375 235.333984375 102.83203125 244.000976562 116.499023438 c 0
 252.66796875 130.166015625 257.000976562 151.999023438 257.000976562 181.999023438 c 2
 257.000976562 345.999023438 l 2
373.001953125 306.999023438 m 1
 476.001953125 306.999023438 l 1
 476.001953125 345.999023438 l 2
 476.001953125 375.999023438 471.668945312 397.83203125 463.001953125 411.499023438 c 0
 454.334960938 425.166015625 441.334960938 431.999023438 424.001953125 431.999023438 c 0
 407.334960938 431.999023438 394.66796875 425.166015625 386.001953125 411.499023438 c 0
 377.334960938 397.83203125 373.001953125 375.999023438 373.001953125 345.999023438 c 2
 373.001953125 306.999023438 l 1
EndSplineSet
EndChar

StartChar: Scaron
Encoding: 352 352 196
Width: 426
GlyphClass: 2
Flags: W
LayerCount: 2
Fore
SplineSet
68 45 m 0
 36 80.3330078125 19.6669921875 130.999023438 19 196.999023438 c 1
 135 196.999023438 l 1
 136.333007812 162.999023438 143.166015625 137.999023438 155.499023438 121.999023438 c 0
 167.83203125 105.999023438 185.999023438 97.9990234375 209.999023438 97.9990234375 c 0
 233.999023438 97.9990234375 251.499023438 105.33203125 262.499023438 119.999023438 c 0
 273.499023438 134.666015625 278.999023438 157.999023438 278.999023438 189.999023438 c 0
 278.999023438 216.666015625 272.83203125 237.833007812 260.499023438 253.499023438 c 0
 248.166015625 269.166015625 227.333007812 283.666015625 198 296.999023438 c 2
 151 317.999023438 l 2
 106.333007812 337.999023438 74.166015625 362.666015625 54.4990234375 391.999023438 c 0
 34.83203125 421.333007812 24.9990234375 460.666015625 24.9990234375 509.999023438 c 0
 24.9990234375 567.999023438 41.83203125 614.33203125 75.4990234375 648.999023438 c 0
 109.166015625 683.666015625 154.666015625 700.999023438 211.999023438 700.999023438 c 0
 268.666015625 700.999023438 312.499023438 683.83203125 343.499023438 649.499023438 c 0
 374.499023438 615.166015625 390.999023438 565.666015625 392.999023438 500.999023438 c 1
 279.999023438 500.999023438 l 1
 279.33203125 532.33203125 273.83203125 555.83203125 263.499023438 571.499023438 c 0
 253.166015625 587.166015625 235.999023438 594.999023438 211.999023438 594.999023438 c 0
 167.33203125 594.999023438 144.999023438 568.666015625 144.999023438 515.999023438 c 0
 144.999023438 491.999023438 150.499023438 472.83203125 161.499023438 458.499023438 c 0
 172.499023438 444.166015625 190.999023438 431.333007812 216.999023438 420 c 2
 261.999023438 400 l 2
 309.999023438 378.666992188 344.83203125 352 366.499023438 320 c 0
 388.166015625 288 398.999023438 245.333007812 398.999023438 192 c 0
 398.999023438 128 382.33203125 78.6669921875 348.999023438 44 c 0
 315.666015625 9.3330078125 268.333007812 -8 207 -8 c 0
 146.333007812 -8 100 9.6669921875 68 45 c 0
66 890.999023438 m 1
 153 890.999023438 l 1
 210 811.999023438 l 1
 266 890.999023438 l 1
 353 890.999023438 l 1
 250 742.999023438 l 1
 167 742.999023438 l 1
 66 890.999023438 l 1
EndSplineSet
EndChar

StartChar: scaron
Encoding: 353 353 197
Width: 392
GlyphClass: 2
Flags: W
LayerCount: 2
Fore
SplineSet
75 34.5 m 0
 45 62.8330078125 29.998046875 101.999023438 29.998046875 151.999023438 c 2
 29.998046875 157.999023438 l 1
 141.998046875 157.999023438 l 1
 141.998046875 151.999023438 l 2
 141.998046875 131.999023438 146.998046875 116.499023438 156.998046875 105.499023438 c 0
 166.998046875 94.4990234375 180.998046875 88.9990234375 198.998046875 88.9990234375 c 0
 216.331054688 88.9990234375 229.498046875 93.83203125 238.498046875 103.499023438 c 0
 247.498046875 113.166015625 251.998046875 127.333007812 251.998046875 146 c 0
 251.998046875 160 247.831054688 172.166992188 239.498046875 182.5 c 0
 231.165039062 192.833007812 217.998046875 202 199.998046875 210 c 2
 139.998046875 236 l 2
 99.3310546875 253.333007812 71.3310546875 273.666015625 55.998046875 296.999023438 c 0
 40.6650390625 320.333007812 32.998046875 349.666015625 32.998046875 384.999023438 c 0
 32.998046875 428.33203125 47.998046875 464.33203125 77.998046875 492.999023438 c 0
 107.998046875 521.666015625 147.331054688 535.999023438 195.998046875 535.999023438 c 0
 244.665039062 535.999023438 283.998046875 521.666015625 313.998046875 492.999023438 c 0
 343.998046875 464.33203125 358.998046875 426.999023438 358.998046875 380.999023438 c 2
 358.998046875 370.999023438 l 1
 246.998046875 370.999023438 l 1
 246.998046875 376.999023438 l 2
 246.998046875 397.666015625 242.331054688 413.333007812 232.998046875 424 c 0
 223.665039062 434.666992188 210.998046875 440 194.998046875 440 c 0
 179.665039062 440 167.498046875 435.666992188 158.498046875 427 c 0
 149.498046875 418.333007812 144.998046875 406 144.998046875 390 c 0
 144.998046875 376 148.331054688 364.333007812 154.998046875 355 c 0
 161.665039062 345.666992188 174.33203125 337 192.999023438 329 c 2
 257.999023438 301 l 2
 295.999023438 284.333007812 323.33203125 264.166015625 339.999023438 240.5 c 0
 356.666015625 216.833007812 364.999023438 186 364.999023438 148 c 0
 364.999023438 102 349.83203125 64.5 319.499023438 35.5 c 0
 289.166015625 6.5 248.333007812 -8 197 -8 c 0
 145.666992188 -8 105 6.1669921875 75 34.5 c 0
51.998046875 728.999023438 m 1
 138.998046875 728.999023438 l 1
 195.998046875 649.999023438 l 1
 251.998046875 728.999023438 l 1
 338.998046875 728.999023438 l 1
 235.998046875 580.999023438 l 1
 152.998046875 580.999023438 l 1
 51.998046875 728.999023438 l 1
EndSplineSet
EndChar

StartChar: Ydieresis
Encoding: 376 376 198
Width: 415
GlyphClass: 2
Flags: W
LayerCount: 2
Fore
SplineSet
269 269 m 1
 269 0 l 1
 146 0 l 1
 146 271 l 1
 6 690 l 1
 141 690 l 1
 207 426 l 1
 273 690 l 1
 409 690 l 1
 269 269 l 1
82 867 m 1
 175 867 l 1
 175 753 l 1
 82 753 l 1
 82 867 l 1
238 867 m 1
 331 867 l 1
 331 753 l 1
 238 753 l 1
 238 867 l 1
EndSplineSet
EndChar

StartChar: Zcaron
Encoding: 381 381 199
Width: 359
GlyphClass: 2
Flags: W
LayerCount: 2
Fore
SplineSet
340 111 m 1
 340 0 l 1
 21 0 l 1
 21 111 l 1
 215 579 l 1
 31 579 l 1
 31 690 l 1
 336 690 l 1
 336 579 l 1
 143 111 l 1
 340 111 l 1
36 891 m 1
 123 891 l 1
 180 812 l 1
 236 891 l 1
 323 891 l 1
 220 743 l 1
 137 743 l 1
 36 891 l 1
EndSplineSet
EndChar

StartChar: zcaron
Encoding: 382 382 200
Width: 384
GlyphClass: 2
Flags: W
LayerCount: 2
Fore
SplineSet
346 430 m 1
 157 98 l 1
 346 98 l 1
 346 0 l 1
 38 0 l 1
 38 98 l 1
 230 430 l 1
 38 430 l 1
 38 528 l 1
 346 528 l 1
 346 430 l 1
48 729 m 1
 135 729 l 1
 192 650 l 1
 248 729 l 1
 335 729 l 1
 232 581 l 1
 149 581 l 1
 48 729 l 1
EndSplineSet
EndChar

StartChar: florin
Encoding: 402 402 201
Width: 390
GlyphClass: 2
Flags: W
LayerCount: 2
Fore
SplineSet
7 -53 m 1
 29 -53 l 2
 51.6669921875 -53 68.1669921875 -48.1669921875 78.5 -38.5 c 0
 88.8330078125 -28.8330078125 95.666015625 -11 98.9990234375 15 c 2
 139.999023438 316 l 1
 67.9990234375 316 l 1
 67.9990234375 421 l 1
 153.999023438 421 l 1
 167.999023438 527 l 2
 175.33203125 583 192.83203125 624.166992188 220.499023438 650.5 c 0
 248.166015625 676.833007812 288.999023438 690 342.999023438 690 c 2
 382.999023438 690 l 1
 382.999023438 585 l 1
 355.999023438 585 l 2
 333.33203125 585 316.83203125 580.333007812 306.499023438 571 c 0
 296.166015625 561.666992188 289.333007812 544 286 518 c 2
 273 421 l 1
 346 421 l 1
 346 316 l 1
 258 316 l 1
 217 5 l 2
 209.666015625 -51.6669921875 192.333007812 -93 165 -119 c 0
 137.666992188 -145 96.6669921875 -158 42 -158 c 2
 7 -158 l 1
 7 -53 l 1
EndSplineSet
EndChar

StartChar: circumflex
Encoding: 710 710 202
Width: 500
GlyphClass: 2
Flags: W
LayerCount: 2
Fore
SplineSet
207 732 m 1
 290 732 l 1
 393 584 l 1
 306 584 l 1
 250 664 l 1
 193 584 l 1
 106 584 l 1
 207 732 l 1
EndSplineSet
EndChar

StartChar: caron
Encoding: 711 711 203
Width: 500
GlyphClass: 2
Flags: W
LayerCount: 2
Fore
SplineSet
106 729 m 1
 193 729 l 1
 250 650 l 1
 306 729 l 1
 393 729 l 1
 290 581 l 1
 207 581 l 1
 106 729 l 1
EndSplineSet
EndChar

StartChar: dotaccent
Encoding: 729 729 204
Width: 500
GlyphClass: 2
Flags: W
LayerCount: 2
Fore
SplineSet
192 698 m 1
 308 698 l 1
 308 601 l 1
 192 601 l 1
 192 698 l 1
EndSplineSet
EndChar

StartChar: ring
Encoding: 730 730 205
Width: 500
GlyphClass: 2
Flags: W
LayerCount: 2
Fore
SplineSet
183 600 m 0
 165 618 156 640.333007812 156 667 c 0
 156 694.333007812 165 717 183 735 c 0
 201 753 223.333007812 762 250 762 c 0
 276.666992188 762 299 753 317 735 c 0
 335 717 344 694.333007812 344 667 c 0
 344 640.333007812 335 618 317 600 c 0
 299 582 276.666992188 573 250 573 c 0
 223.333007812 573 201 582 183 600 c 0
281.5 635 m 0
 289.833007812 643.668945312 294 654.336914062 294 667.000976562 c 0
 294 680.333984375 289.833007812 691.333984375 281.5 700.000976562 c 0
 273.166992188 708.66796875 262.666992188 713.000976562 250 713.000976562 c 0
 236.666015625 713.000976562 225.833007812 708.66796875 217.5 700.000976562 c 0
 209.166992188 691.333984375 205 680.333984375 205 667.000976562 c 0
 205 654.333984375 209.333007812 643.666992188 218 635 c 0
 226.666992188 626.333007812 237.333984375 622 250 622 c 0
 262.666992188 622 273.166992188 626.333007812 281.5 635 c 0
EndSplineSet
EndChar

StartChar: tilde
Encoding: 732 732 206
Width: 500
GlyphClass: 2
Flags: W
LayerCount: 2
Fore
SplineSet
137 682 m 1
 150.333007812 696 161.5 705.5 170.5 710.5 c 0
 179.5 715.5 190.333007812 718 203 718 c 0
 213.666992188 718 223 716.333007812 231 713 c 0
 239 709.666992188 247.333007812 705 256 699 c 0
 266 693 274 688.833007812 280 686.5 c 0
 286 684.166992188 293 683 301 683 c 0
 311.666992188 683 320.666992188 685.5 328 690.5 c 0
 335.334960938 695.5 346.66796875 706 362 722 c 1
 362 630 l 1
 349.333007812 616 338.666015625 606.333007812 330 601 c 0
 321.333007812 595.666992188 310.333007812 593 297 593 c 0
 285.666992188 593 276.333984375 594.666992188 269.000976562 598 c 0
 261.66796875 601.333007812 253.000976562 606 243.000976562 612 c 0
 233.66796875 617.333007812 226.16796875 621.333007812 220.500976562 624 c 0
 214.833984375 626.666992188 207.666992188 628 199 628 c 0
 188.333007812 628 178.833007812 625.333007812 170.5 620 c 0
 162.166992188 614.662109375 151 604.329101562 137 589 c 1
 137 682 l 1
EndSplineSet
EndChar

StartChar: gravecomb
Encoding: 768 768 207
Width: 0
GlyphClass: 2
Flags: W
LayerCount: 2
Fore
SplineSet
-141 726 m 1
 -18 726 l 1
 81 590 l 1
 -18 590 l 1
 -141 726 l 1
EndSplineSet
EndChar

StartChar: acutecomb
Encoding: 769 769 208
Width: 0
GlyphClass: 2
Flags: W
LayerCount: 2
Fore
SplineSet
18 726 m 1
 141 726 l 1
 18 590 l 1
 -81 590 l 1
 18 726 l 1
EndSplineSet
EndChar

StartChar: uni0302
Encoding: 770 770 209
Width: 0
GlyphClass: 2
Flags: W
LayerCount: 2
Fore
SplineSet
-43 732 m 1
 40 732 l 1
 143 584 l 1
 56 584 l 1
 0 664 l 1
 -57 584 l 1
 -144 584 l 1
 -43 732 l 1
EndSplineSet
EndChar

StartChar: tildecomb
Encoding: 771 771 210
Width: 0
GlyphClass: 2
Flags: W
LayerCount: 2
Fore
SplineSet
-113 682 m 1
 -99.6669921875 696 -88.498046875 705.5 -79.498046875 710.5 c 0
 -70.498046875 715.5 -59.6650390625 718 -46.998046875 718 c 0
 -36.3310546875 718 -26.998046875 716.333007812 -18.998046875 713 c 0
 -10.998046875 709.666992188 -2.6650390625 705 6.001953125 699 c 0
 16.001953125 693 24.001953125 688.833007812 30.001953125 686.5 c 0
 36.001953125 684.166992188 43.001953125 683 51.001953125 683 c 0
 61.6689453125 683 70.6689453125 685.5 78.001953125 690.5 c 0
 85.3349609375 695.5 96.66796875 706 112.000976562 722 c 1
 112.000976562 630 l 1
 99.333984375 616 88.6669921875 606.333007812 80 601 c 0
 71.3330078125 595.666992188 60.3330078125 593 47 593 c 0
 35.6669921875 593 26.333984375 594.666992188 19.0009765625 598 c 0
 11.66796875 601.333007812 3.0009765625 606 -6.9990234375 612 c 0
 -16.33203125 617.333007812 -23.83203125 621.333007812 -29.4990234375 624 c 0
 -35.166015625 626.666992188 -42.3330078125 628 -51 628 c 0
 -61.6669921875 628 -71.1669921875 625.333007812 -79.5 620 c 0
 -87.8330078125 614.662109375 -99 604.329101562 -113 589 c 1
 -113 682 l 1
EndSplineSet
EndChar

StartChar: uni0308
Encoding: 776 776 211
Width: 0
GlyphClass: 2
Flags: W
LayerCount: 2
Fore
SplineSet
-125 705 m 1
 -32 705 l 1
 -32 591 l 1
 -125 591 l 1
 -125 705 l 1
31 705 m 1
 124 705 l 1
 124 591 l 1
 31 591 l 1
 31 705 l 1
EndSplineSet
EndChar

StartChar: uni030A
Encoding: 778 778 212
Width: 0
GlyphClass: 2
Flags: W
LayerCount: 2
Fore
SplineSet
-67 600 m 0
 -85 618 -94 640.333007812 -94 667 c 0
 -94 694.333007812 -85 717 -67 735 c 0
 -49 753 -26.6669921875 762 0 762 c 0
 26.6669921875 762 49 753 67 735 c 0
 85 717 94 694.333007812 94 667 c 0
 94 640.333007812 85 618 67 600 c 0
 49 582 26.6669921875 573 0 573 c 0
 -26.6669921875 573 -49 582 -67 600 c 0
31.5 635 m 0
 39.8330078125 643.668945312 44 654.336914062 44 667.000976562 c 0
 44 680.333984375 39.8330078125 691.333984375 31.5 700.000976562 c 0
 23.1669921875 708.66796875 12.6669921875 713.000976562 0 713.000976562 c 0
 -13.3330078125 713.000976562 -24.166015625 708.66796875 -32.4990234375 700.000976562 c 0
 -40.83203125 691.333984375 -44.9990234375 680.333984375 -44.9990234375 667.000976562 c 0
 -44.9990234375 654.333984375 -40.83203125 643.666992188 -32.4990234375 635 c 0
 -24.166015625 626.333007812 -13.3330078125 622 0 622 c 0
 12.6669921875 622 23.1669921875 626.333007812 31.5 635 c 0
EndSplineSet
EndChar

StartChar: endash
Encoding: 8211 8211 213
Width: 417
GlyphClass: 2
Flags: W
LayerCount: 2
Fore
SplineSet
0 401 m 1
 417 401 l 1
 417 291 l 1
 0 291 l 1
 0 401 l 1
EndSplineSet
EndChar

StartChar: emdash
Encoding: 8212 8212 214
Width: 833
GlyphClass: 2
Flags: W
LayerCount: 2
Fore
SplineSet
0 401 m 1
 833 401 l 1
 833 291 l 1
 0 291 l 1
 0 401 l 1
EndSplineSet
EndChar

StartChar: quoteleft
Encoding: 8216 8216 215
Width: 171
GlyphClass: 2
Flags: W
LayerCount: 2
Fore
SplineSet
142 434 m 1
 29 434 l 1
 29 636 l 1
 142 727 l 1
 142 434 l 1
71 690 m 1024
EndSplineSet
EndChar

StartChar: quoteright
Encoding: 8217 8217 216
Width: 171
GlyphClass: 2
Flags: W
LayerCount: 2
Fore
SplineSet
29 690 m 1
 142 690 l 1
 142 488 l 1
 29 397 l 1
 29 690 l 1
EndSplineSet
EndChar

StartChar: quotesinglbase
Encoding: 8218 8218 217
Width: 171
GlyphClass: 2
Flags: W
LayerCount: 2
Fore
SplineSet
29 133 m 1
 142 133 l 1
 142 -69 l 1
 29 -160 l 1
 29 133 l 1
EndSplineSet
EndChar

StartChar: quotedblleft
Encoding: 8220 8220 218
Width: 351
GlyphClass: 2
Flags: W
LayerCount: 2
Fore
SplineSet
142 434 m 1
 29 434 l 1
 29 636 l 1
 142 727 l 1
 142 434 l 1
322 434 m 1
 209 434 l 1
 209 636 l 1
 322 727 l 1
 322 434 l 1
185 690 m 1024
EndSplineSet
EndChar

StartChar: quotedblright
Encoding: 8221 8221 219
Width: 351
GlyphClass: 2
Flags: W
LayerCount: 2
Fore
SplineSet
29 690 m 1
 142 690 l 1
 142 488 l 1
 29 397 l 1
 29 690 l 1
209 690 m 1
 322 690 l 1
 322 488 l 1
 209 397 l 1
 209 690 l 1
EndSplineSet
EndChar

StartChar: quotedblbase
Encoding: 8222 8222 220
Width: 351
GlyphClass: 2
Flags: W
LayerCount: 2
Fore
SplineSet
209 133 m 1
 322 133 l 1
 322 -69 l 1
 209 -160 l 1
 209 133 l 1
29 133 m 1
 142 133 l 1
 142 -69 l 1
 29 -160 l 1
 29 133 l 1
EndSplineSet
EndChar

StartChar: dagger
Encoding: 8224 8224 221
Width: 456
GlyphClass: 2
Flags: W
LayerCount: 2
Fore
SplineSet
415 373 m 1
 290 373 l 1
 290 -158 l 1
 167 -158 l 1
 167 373 l 1
 41 373 l 1
 41 484 l 1
 167 484 l 1
 167 690 l 1
 290 690 l 1
 290 484 l 1
 415 484 l 1
 415 373 l 1
EndSplineSet
EndChar

StartChar: daggerdbl
Encoding: 8225 8225 222
Width: 456
GlyphClass: 2
Flags: W
LayerCount: 2
Fore
SplineSet
290 373 m 1
 290 167 l 1
 415 167 l 1
 415 56 l 1
 290 56 l 1
 290 -158 l 1
 167 -158 l 1
 167 56 l 1
 41 56 l 1
 41 167 l 1
 167 167 l 1
 167 373 l 1
 41 373 l 1
 41 484 l 1
 167 484 l 1
 167 690 l 1
 290 690 l 1
 290 484 l 1
 415 484 l 1
 415 373 l 1
 290 373 l 1
EndSplineSet
EndChar

StartChar: bullet
Encoding: 8226 8226 223
Width: 396
GlyphClass: 2
Flags: W
LayerCount: 2
Fore
SplineSet
100 211 m 0
 74 237 61 269.333007812 61 308 c 0
 61 347.333007812 74 379.833007812 100 405.5 c 0
 126 431.166992188 158.333007812 444 197 444 c 0
 236.333007812 444 269 431 295 405 c 0
 321 379 334 346.666992188 334 308 c 0
 334 269.333007812 321 237 295 211 c 0
 269 185 236.333007812 172 197 172 c 0
 158.333007812 172 126 185 100 211 c 0
EndSplineSet
EndChar

StartChar: ellipsis
Encoding: 8230 8230 224
Width: 636
GlyphClass: 2
Flags: W
LayerCount: 2
Fore
SplineSet
29 132 m 1
 146 132 l 1
 146 0 l 1
 29 0 l 1
 29 132 l 1
490 132 m 1
 607 132 l 1
 607 0 l 1
 490 0 l 1
 490 132 l 1
259 132 m 1
 376 132 l 1
 376 0 l 1
 259 0 l 1
 259 132 l 1
EndSplineSet
EndChar

